#N canvas 82 272 1440 752 10;
#X obj -297 -1096 cnv 15 500 500 empty empty Transcode_h:m:s_to_proximity
20 12 0 10 -158081 -66577 0;
#X floatatom -255 -1032 5 0 0 0 - - -, f 5;
#X obj -255 -933 -;
#X floatatom -255 -909 5 0 0 0 - - -, f 5;
#X floatatom -255 -745 5 0 0 0 - - -, f 5;
#X obj -256 -884 moses 0;
#X obj -255 -815 float \$1;
#X floatatom -255 -789 9 0 0 0 - - -, f 9;
#X obj -188 -816 float \$1;
#X floatatom -188 -791 9 0 0 0 - - -, f 9;
#X obj -255 -768 * -1;
#X msg -245 -851 0, f 4;
#X msg -182 -851 0, f 4;
#X floatatom -255 -685 5 0 0 0 - - -, f 5;
#X obj -255 -719 +;
#X floatatom -13 -1033 5 0 60 0 - - -, f 5;
#X obj -13 -933 -;
#X floatatom -13 -910 5 0 0 0 - - -, f 5;
#X floatatom -12 -745 5 0 0 0 - - -, f 5;
#X obj -13 -884 moses 0;
#X obj -12 -815 float \$1;
#X floatatom -12 -789 9 0 0 0 - - -, f 9;
#X obj 55 -816 float \$1;
#X floatatom 55 -791 9 0 0 0 - - -, f 9;
#X obj -12 -768 * -1;
#X msg -2 -851 0, f 4;
#X msg 61 -851 0, f 4;
#X obj -13 -1060 r longs;
#X floatatom -13 -685 5 0 0 0 - - -, f 5;
#X obj -13 -719 +;
#X obj -255 -1060 r lats;
#X msg 21 -958 bang;
#X msg -225 -960 bang;
#X msg -189 -768 bang;
#X msg 54 -769 bang;
#X text -216 -686 <-- proximity to other user -->;
#X text -150 -1036 test;
#X text 90 -1035 test;
#X obj -1346 -1533 cnv 15 550 150 empty empty master_control 20 12
0 10 -262130 -66577 0;
#X obj -287 -576 cnv 15 350 550 empty empty proximity 20 12 0 10 -158081
-66577 0;
#X obj -1358 -153 cnv 15 550 500 empty empty audio_out 20 12 0 10 -233017
-66577 0;
#X obj -240 -983 nbx 5 14 -1e+37 1e+37 0 0 empty empty u2_lat:s_via_bluetooth
0 -8 0 10 -4032 -1 -1 0 256;
#X obj 2 -980 nbx 5 14 -1e+37 1e+37 0 0 empty empty u2_long:s_via_bluetooth
0 -8 0 10 -4032 -1 -1 0 256;
#X obj -195 -1060 r test \$3;
#X obj 45 -1059 r test \$3;
#X msg -195 -1037 36.125;
#X msg 45 -1036 47.875;
#X obj -192 -239 nbx 5 14 -1e+37 1e+37 0 0 empty empty empty 0 -8 0
10 -4032 -1 -1 0 256;
#X obj -90 -505 nbx 5 14 -1e+37 1e+37 0 0 empty empty empty 0 -8 0
10 -4032 -1 -1 0 256;
#X msg -90 -570 -3.14;
#X msg -39 -572 3.14;
#X obj -192 -217 * 2.5;
#X msg -193 -295 0.25;
#X msg -153 -294 10;
#X msg -239 -238 bang;
#X floatatom -88 -383 5 0 0 0 - - -, f 5;
#X obj -89 -484 moses 0;
#X obj -88 -430 float \$1;
#X obj -26 -432 float \$1;
#X obj -88 -406 * -1;
#X msg -78 -453 0, f 4;
#X msg -20 -454 0, f 4;
#X floatatom -88 -339 5 0 0 0 - - -, f 5;
#X obj -88 -361 +;
#X msg -5 -406 bang;
#X floatatom -143 -122 5 0 0 0 - - -, f 5;
#X floatatom -192 -139 5 0 0 0 - - -, f 5;
#X msg -234 -104 bang;
#X obj -188 -53 s synth2;
#X floatatom -192 -194 5 0 0 0 - - -, f 5;
#X obj -143 -170 int;
#X obj -192 -166 int;
#X obj -143 -146 + 0.33;
#X obj -188 -76 pack 0 0;
#X text -31 -484 convert bearing to + values only;
#X text -27 -505 INCOMING data (bearing);
#X text -131 -237 INCOMING prox values;
#X obj -83 -190 s prox2;
#X text -276 -348 'true' proximity = highest difference in proximity
\, whether lat or long \, in s;
#X obj -40 -598 r test \$3;
#X obj -193 -318 r test \$3;
#X obj -90 -532 r androidbearing;
#X obj -197 -263 r androidproximity;
#X text -1345 -1366 1) take the GPS input from Android. Send latitude
and longitude in s to A1 and A2;
#X obj -83 -134 s A2;
#X obj -85 -215 s A1;
#X obj -85 -265 r Androidlat;
#X obj -83 -181 r Android long;
#X text 0 -265 need to round to nearest 1;
#X text 10 -183 need to round to nearest 1;
#X obj -916 -732 +~;
#X obj -916 -800 osc~ 220;
#X obj -1339 -1275 hradio 15 1 0 60 empty empty empty 0 -8 0 10 -262144
-1 -1 0;
#X floatatom -917 -916 5 0 0 0 - - -, f 5;
#X obj -917 -897 mtof;
#X floatatom -917 -875 5 0 0 0 - - -, f 5;
#X obj -901 -1120 r A2;
#X obj -1337 -1195 hradio 15 1 0 60 empty empty empty 0 -8 0 10 -262144
-1 -1 0;
#X obj -1337 -1173 s A2;
#X obj -1339 -1254 s A1;
#X obj -1312 -751 +~;
#X floatatom -1317 -938 5 0 0 0 - - -, f 5;
#X obj -1317 -919 mtof;
#X obj -1309 -1098 r A1;
#X obj -1162 -590 +~;
#X obj -1224 -822 phasor~ 221;
#X obj -1317 -827 osc~ 220;
#X floatatom -1317 -897 5 0 0 0 - - -, f 5;
#X obj -832 -754 -~ 0.5;
#X obj -1317 -878 -;
#X obj -917 -856 -;
#X obj -1339 -1304 r Androidlat;
#X obj -1337 -1220 r Android long;
#X obj -1220 -1038 nbx 5 14 24 60 0 0 empty empty control_octave_(24_-_60)
0 -8 0 10 -204800 -1 -1 40 256;
#X obj -817 -1029 nbx 5 14 24 60 0 0 empty empty control_octave_(24_-_60)
0 -8 0 10 -204800 -1 -1 40 256;
#X obj -917 -832 +~;
#X obj -869 -863 osc~;
#X obj -869 -834 *~;
#X obj -1265 -899 osc~;
#X obj -1317 -856 +~;
#X floatatom -886 -1097 5 0 0 0 - - -, f 5;
#X floatatom -1293 -1076 5 0 0 0 - - -, f 5;
#X obj -917 -938 + 39;
#X obj -1317 -960 + 39;
#X msg -1220 -1099 24;
#X msg -817 -1085 24;
#X msg -781 -1085 36;
#X msg -694 -1085 48;
#X msg -658 -1085 60;
#X msg -1185 -1099 36;
#X msg -1111 -1099 48;
#X msg -1075 -1099 60;
#X obj -869 -918 nbx 5 14 0 30 0 0 empty empty modulator_freq1 0 -8
0 10 -204800 -1 -1 0.05 256;
#X obj -1265 -946 nbx 5 14 0 30 0 0 empty empty modulator_freq1 0 -8
0 10 -204800 -1 -1 0.05 256;
#X obj -833 -889 nbx 5 14 0 30 0 0 empty empty modulator_freq2 0 -8
0 10 -204800 -1 -1 0.05 256;
#X obj -1224 -924 nbx 5 14 0 30 0 0 empty empty modulator_freq2 0 -8
0 10 -204800 -1 -1 0.05 256;
#X obj -1224 -797 -~ 0.5;
#X obj -1265 -924 * 30;
#X obj -1224 -902 * 30;
#X obj -869 -892 * 30;
#X obj -833 -866 * 30;
#X msg -1149 -1120 40;
#X msg -737 -1109 40;
#X obj -1224 -847 +;
#X obj -832 -806 +;
#X obj -1265 -863 *~;
#X obj -832 -780 phasor~ 221;
#X msg -1258 -979 0.05;
#X msg -869 -947 0.05;
#X obj -1317 -805 -~ 0.5;
#X obj -916 -778 -~ 0.5;
#X obj -1312 -722 bp~ 440 0.5;
#X obj -916 -695 bp~ 440 0.5;
#X obj -1330 -474 cnv 15 140 140 empty empty ambient_noise_(I_still_have_to_finish_this)
20 12 0 10 -128992 -66577 0;
#X obj -1311 -446 cnv 15 100 100 empty empty modulator_lat 20 12 0
10 -233017 -66577 0;
#X obj -1293 -427 cnv 15 60 60 empty empty modulator_long 20 12 0 10
-191407 -66577 0;
#X obj -1273 -406 cnv 15 20 20 empty empty control_octave 20 12 0 10
-262130 -66577 0;
#X text -1330 -491 imagine these are circles;
#X obj -1162 -568 throw~ lineoutA;
#X obj -1320 -1124 r androidlats;
#X obj -920 -1144 r androidlongs;
#X text -1244 -1222 need to round to nearest 1 or 0.5;
#X text -1254 -1304 need to round to nearest 1 or 0.5;
#X obj -1175 149 line~;
#X obj -1175 71 expr pow($f1/127 \, 2);
#X obj -1211 -13 catch~ lineoutA;
#X obj -1175 46 r vol \$2;
#X obj -1210 195 *~;
#X msg -1175 97 \$1 20;
#X obj -1213 249 dac~ 1 2;
#X msg -1082 106 0;
#X msg -1082 131 0.2;
#X floatatom -1175 119 5 0 0 0 - - -, f 5;
#X obj -1031 -1453 hsl 128 15 0 127 0 0 empty empty main_volume 6 8
0 10 -4032 -1 -1 4000 1;
#X text -973 -1432 connect to Android;
#X obj -1034 -1428 s vol \$2;
#X obj -1034 -1501 r on \$1;
#X text -1002 -1474 change to adjust the maxvolume of the Android;
#X obj -1214 -1482 s on \$1;
#X text -1324 -1469 turn audio on;
#X obj -1214 -1502 tgl 15 0 empty empty empty 17 7 0 10 -262144 -1
-1 0 1;
#X msg -1034 -1476 40;
#X obj -737 -1133 r on \$1;
#X obj -1149 -1145 r on \$1;
#X obj -1260 -1004 r on \$1;
#X obj -869 -976 r on \$1;
#X text -1215 -1460 send initial values;
#X text -1120 -939 attach to circle 2;
#X text -727 -906 attach to circle 3;
#X text -921 -1162 values will be at centre of circle 1;
#X text -1108 -427 circle 1 -- control octave lets users shift the
pitch of their coordinate tone up or down. The grid is organized into
zones \, with: 24 = 0 to 12 on the grid 36 = 0 to 18 on the grid \,
etc \; default value = 40 \, circle should 'snap back' to this value/position
when it gets near the centre;
#X text -1101 -339 circles 2 and 3 are modulator frequencies \, and
the input values will work with our 0 to 30 grid. freq = distance between
the horizontal and vertical length of the oval \, default value = 0.5.
One circle will do the modulator frequency 1 and 2 for the latitude
\, one will do it for the longitude. if possible \, it might make sense
to have these circles a little closer to one another. Circles should
'snap back' to original values when they get near their original position.
;
#X msg -1321 -1503 \; pd dsp 1;
#X msg -1320 -1448 \; pd dsp 0;
#X text -1323 -1414 turn audio off;
#X connect 1 0 2 0;
#X connect 2 0 3 0;
#X connect 3 0 5 0;
#X connect 4 0 14 0;
#X connect 5 0 6 0;
#X connect 5 0 12 0;
#X connect 5 1 8 0;
#X connect 5 1 11 0;
#X connect 6 0 7 0;
#X connect 7 0 10 0;
#X connect 8 0 9 0;
#X connect 9 0 14 1;
#X connect 9 0 33 0;
#X connect 10 0 4 0;
#X connect 11 0 6 0;
#X connect 12 0 8 0;
#X connect 14 0 13 0;
#X connect 15 0 16 0;
#X connect 16 0 17 0;
#X connect 17 0 19 0;
#X connect 18 0 29 0;
#X connect 19 0 20 0;
#X connect 19 0 26 0;
#X connect 19 1 22 0;
#X connect 19 1 25 0;
#X connect 20 0 21 0;
#X connect 21 0 24 0;
#X connect 22 0 23 0;
#X connect 23 0 29 1;
#X connect 23 0 34 0;
#X connect 24 0 18 0;
#X connect 25 0 20 0;
#X connect 26 0 22 0;
#X connect 27 0 15 0;
#X connect 29 0 28 0;
#X connect 30 0 1 0;
#X connect 31 0 16 0;
#X connect 32 0 2 0;
#X connect 33 0 14 0;
#X connect 34 0 29 0;
#X connect 41 0 32 0;
#X connect 41 0 2 1;
#X connect 42 0 31 0;
#X connect 42 0 16 1;
#X connect 43 0 45 0;
#X connect 44 0 46 0;
#X connect 45 0 41 0;
#X connect 46 0 42 0;
#X connect 47 0 51 0;
#X connect 48 0 56 0;
#X connect 49 0 48 0;
#X connect 50 0 48 0;
#X connect 51 0 69 0;
#X connect 52 0 47 0;
#X connect 53 0 47 0;
#X connect 54 0 51 0;
#X connect 55 0 63 0;
#X connect 56 0 57 0;
#X connect 56 0 61 0;
#X connect 56 1 58 0;
#X connect 56 1 60 0;
#X connect 57 0 59 0;
#X connect 58 0 63 1;
#X connect 58 0 64 0;
#X connect 59 0 55 0;
#X connect 60 0 57 0;
#X connect 61 0 58 0;
#X connect 62 0 51 1;
#X connect 62 0 54 0;
#X connect 63 0 62 0;
#X connect 64 0 63 0;
#X connect 65 0 67 0;
#X connect 65 0 73 1;
#X connect 66 0 67 0;
#X connect 66 0 73 0;
#X connect 67 0 73 0;
#X connect 69 0 71 0;
#X connect 69 0 70 0;
#X connect 69 0 77 0;
#X connect 70 0 72 0;
#X connect 71 0 66 0;
#X connect 72 0 65 0;
#X connect 73 0 68 0;
#X connect 79 0 50 0;
#X connect 80 0 52 0;
#X connect 81 0 48 0;
#X connect 82 0 47 0;
#X connect 90 0 152 0;
#X connect 91 0 150 0;
#X connect 92 0 99 0;
#X connect 93 0 94 0;
#X connect 94 0 95 0;
#X connect 95 0 110 0;
#X connect 95 0 144 0;
#X connect 96 0 120 0;
#X connect 96 0 122 0;
#X connect 97 0 98 0;
#X connect 100 0 151 0;
#X connect 101 0 102 0;
#X connect 102 0 107 0;
#X connect 103 0 121 0;
#X connect 103 0 123 0;
#X connect 104 0 158 0;
#X connect 105 0 136 0;
#X connect 106 0 149 0;
#X connect 107 0 109 0;
#X connect 107 0 143 0;
#X connect 108 0 90 1;
#X connect 109 0 119 0;
#X connect 110 0 115 0;
#X connect 111 0 92 0;
#X connect 112 0 97 0;
#X connect 113 0 123 1;
#X connect 114 0 122 1;
#X connect 115 0 91 0;
#X connect 116 0 117 0;
#X connect 117 0 115 1;
#X connect 118 0 145 0;
#X connect 119 0 106 0;
#X connect 122 0 93 0;
#X connect 123 0 101 0;
#X connect 124 0 113 0;
#X connect 125 0 114 0;
#X connect 126 0 114 0;
#X connect 127 0 114 0;
#X connect 128 0 114 0;
#X connect 129 0 113 0;
#X connect 130 0 113 0;
#X connect 131 0 113 0;
#X connect 132 0 139 0;
#X connect 133 0 137 0;
#X connect 134 0 140 0;
#X connect 135 0 138 0;
#X connect 136 0 100 1;
#X connect 137 0 118 0;
#X connect 138 0 145 1;
#X connect 139 0 116 0;
#X connect 140 0 117 1;
#X connect 141 0 113 0;
#X connect 142 0 114 0;
#X connect 143 0 105 0;
#X connect 144 0 146 0;
#X connect 145 0 119 1;
#X connect 146 0 108 0;
#X connect 147 0 133 0;
#X connect 147 0 135 0;
#X connect 148 0 132 0;
#X connect 148 0 134 0;
#X connect 149 0 100 0;
#X connect 150 0 90 0;
#X connect 151 0 104 0;
#X connect 152 0 104 1;
#X connect 159 0 123 0;
#X connect 160 0 122 0;
#X connect 163 0 167 1;
#X connect 164 0 168 0;
#X connect 165 0 167 0;
#X connect 166 0 164 0;
#X connect 167 0 169 0;
#X connect 167 0 169 1;
#X connect 168 0 172 0;
#X connect 170 0 163 0;
#X connect 171 0 163 0;
#X connect 172 0 163 0;
#X connect 173 0 175 0;
#X connect 176 0 181 0;
#X connect 180 0 178 0;
#X connect 181 0 173 0;
#X connect 182 0 142 0;
#X connect 183 0 141 0;
#X connect 184 0 147 0;
#X connect 185 0 148 0;
