#N canvas 479 22 961 707 10;
#X obj 58 357 hradio 15 1 0 30 empty empty empty 0 -8 0 10 -262144
-1 -1 8;
#X obj 57 -131 vradio 15 1 0 30 empty empty empty 0 -8 0 10 -262144
-1 -1 12;
#X floatatom 185 -227 5 0 0 0 - - -, f 5;
#X floatatom 184 -185 5 0 0 0 - - -, f 5;
#X obj 184 -166 mtof;
#X floatatom 184 -144 5 0 0 0 - - -, f 5;
#X obj 183 -105 osc~;
#X obj 226 -145 osc~;
#X obj 226 -123 +~ 1;
#X obj 226 -101 *~ 0.5;
#X obj 183 -65 *~;
#X obj 184 -207 + 48;
#X floatatom 328 -229 5 0 0 0 - - -, f 5;
#X floatatom 327 -187 5 0 0 0 - - -, f 5;
#X obj 327 -168 mtof;
#X floatatom 327 -146 5 0 0 0 - - -, f 5;
#X obj 326 -107 osc~;
#X obj 371 -144 osc~;
#X obj 371 -122 +~ 1;
#X obj 371 -100 *~ 0.5;
#X obj 326 -67 *~;
#X obj 327 -209 + 48;
#X obj 226 -171 * 40;
#X obj 371 -172 * 40;
#X obj 226 -193 nbx 5 14 -30 30 0 0 empty empty empty 0 -8 0 10 -204800
-1 -1 8 256;
#X obj 372 -201 nbx 5 14 -30 30 0 0 empty empty empty 0 -8 0 10 -204800
-1 -1 12 256;
#X obj 185 -254 r androidlats;
#X obj 327 -254 r androidlongs;
#X obj 59 385 s testcircleh;
#X obj 57 330 s testcirclev;
#X obj 227 -216 r testcircleh;
#X obj 374 -223 r testcirclev;
#X obj 183 -24 +~;
#X obj 188 191 vcf~ 220 1;
#X obj 246 168 nbx 5 14 0 10 0 0 empty empty empty 0 -8 0 10 -262144
-1 -1 10 256;
#X obj 217 5 nbx 5 14 0 127 0 0 empty empty empty 0 -8 0 10 -262144
-1 -1 80 256;
#X obj 216 29 mtof~;
#X obj 217 151 +~;
#X obj 231 124 *~;
#X text 213 -12 center freq;
#X obj 231 77 osc~;
#X obj 232 55 nbx 5 14 -1e+37 1e+37 0 0 empty empty empty 0 -8 0 10
-262144 -1 -1 16 256;
#X obj 251 101 nbx 5 14 -1e+37 1e+37 0 0 empty empty empty 0 -8 0 10
-262144 -1 -1 50 256;
#X obj 188 304 dac~ 1 2;
#X obj 343 227 line~;
#X obj 343 176 expr pow($f1/127 \, 2);
#X obj 343 151 r vol \$2;
#X msg 343 202 \$1 20;
#X obj 188 260 *~;
#X obj -265 -16 hsl 128 15 0 127 0 0 empty empty main_volume 6 8 0
10 -4032 -1 -1 4000 1;
#X text -207 5 connect to Android;
#X obj -264 8 s vol \$2;
#X obj -268 -64 r on \$1;
#X text -236 -37 change to adjust the maxvolume of the Android;
#X msg -268 -39 40;
#X msg -235 -131 \; pd dsp \$1;
#X obj -210 -154 s on \$1;
#X text -255 -97 turn audio on;
#X obj -216 -201 r trigger;
#X obj -213 -174 tgl 15 0 empty empty empty 17 7 0 10 -262144 -1 -1
1 1;
#X connect 0 0 28 0;
#X connect 1 0 29 0;
#X connect 2 0 11 0;
#X connect 3 0 4 0;
#X connect 4 0 5 0;
#X connect 5 0 6 0;
#X connect 6 0 10 0;
#X connect 7 0 8 0;
#X connect 8 0 9 0;
#X connect 9 0 10 1;
#X connect 10 0 32 0;
#X connect 11 0 3 0;
#X connect 12 0 21 0;
#X connect 13 0 14 0;
#X connect 14 0 15 0;
#X connect 15 0 16 0;
#X connect 16 0 20 0;
#X connect 17 0 18 0;
#X connect 18 0 19 0;
#X connect 19 0 20 1;
#X connect 20 0 32 1;
#X connect 21 0 13 0;
#X connect 22 0 7 0;
#X connect 23 0 17 0;
#X connect 24 0 22 0;
#X connect 25 0 23 0;
#X connect 26 0 2 0;
#X connect 27 0 12 0;
#X connect 30 0 24 0;
#X connect 31 0 25 0;
#X connect 32 0 33 0;
#X connect 33 0 48 0;
#X connect 34 0 33 2;
#X connect 35 0 36 0;
#X connect 36 0 37 0;
#X connect 37 0 33 1;
#X connect 38 0 37 1;
#X connect 40 0 38 0;
#X connect 41 0 40 0;
#X connect 42 0 38 1;
#X connect 44 0 48 1;
#X connect 45 0 47 0;
#X connect 46 0 45 0;
#X connect 47 0 44 0;
#X connect 48 0 43 0;
#X connect 48 0 43 1;
#X connect 49 0 51 0;
#X connect 52 0 54 0;
#X connect 54 0 49 0;
#X connect 58 0 59 0;
#X connect 59 0 56 0;
