#N canvas 26 22 1096 754 10;
#X obj -1342 -1585 cnv 15 600 200 empty empty master_control 20 12
0 10 -262130 -66577 0;
#X obj -1341 -316 cnv 15 500 650 empty empty audio_out 20 12 0 10 -233017
-66577 0;
#X obj -1027 201 line~;
#X obj -1027 130 expr pow($f1/127 \, 2);
#X obj -1027 99 r vol \$2;
#X obj -1092 252 *~;
#X obj -1098 293 dac~ 1 2;
#X msg -934 175 0.2;
#X obj -1062 -1496 hsl 128 15 0 127 0 0 empty empty main_volume 6 8
0 10 -4032 -1 -1 6000 1;
#X text -1067 -1453 connect to Android;
#X obj -1065 -1471 s vol \$2;
#X text -1162 -1491 turn audio on;
#X msg -1159 -1525 \; pd dsp 1;
#X msg -1158 -1445 \; pd dsp 0;
#X text -1161 -1411 turn audio off;
#X obj -1318 -1552 bng 20 250 50 0 empty empty start 25 7 0 10 -204786
-128992 -1;
#X obj -1322 -195 +~;
#X msg -916 -1536 0;
#X obj -916 -1514 s init;
#X obj -1322 -137 +~;
#X obj -1322 -85 +~;
#X obj -1322 -33 +~;
#X obj -1322 49 +~;
#X obj -1341 -1365 cnv 15 950 300 empty empty data_inputs_from_Android
20 12 0 10 -233017 -66577 0;
#X obj -1296 -1295 hradio 15 1 0 60 empty empty empty 0 -8 0 10 -262144
-1 -1 29;
#X obj -1294 -1205 hradio 15 1 0 60 empty empty empty 0 -8 0 10 -262144
-1 -1 29;
#X obj -1287 -1269 s lat1;
#X obj -1294 -1183 s long1;
#X obj -1285 -1088 s bpm1;
#X obj -1342 -1038 cnv 15 750 120 empty empty circle_1_sets_the_range_of_notes
20 12 0 10 -158964 -66577 0;
#X obj -825 -902 cnv 15 500 200 empty empty circle_3_is_the_second_set_of_modulator_frequencies
20 12 0 10 -51623 -66577 0;
#X obj -1343 -902 cnv 15 500 200 empty empty circle_2_is_the_first_set_of_modulator_frequencies
20 12 0 10 -52468 -66577 0;
#X obj -1252 -974 nbx 5 14 -30 30 0 0 empty empty circle1_pt_1 0 -8
0 10 -204800 -1 -1 0 256;
#X obj -1167 -777 nbx 5 14 -30 30 0 0 empty empty circle2_pt_2 0 -8
0 10 -204800 -1 -1 0 256;
#X obj -1253 -777 nbx 5 14 -30 30 0 0 empty empty circle2_pt_1 0 -8
0 10 -204800 -1 -1 0 256;
#X obj -756 -780 nbx 5 14 -30 30 0 0 empty empty circle3_pt_1 0 -8
0 10 -204800 -1 -1 0 256;
#X obj -670 -779 nbx 5 14 -30 30 0 0 empty empty circle3_pt_2 0 -8
0 10 -204800 -1 -1 0 256;
#X obj -1167 -974 nbx 5 14 -30 30 0 0 empty empty circle1_pt_3 0 -8
0 10 -204800 -1 -1 0 256;
#X obj -670 -807 r init;
#X obj -1252 -1012 r init;
#X obj -1167 -1012 r init;
#X obj -1167 -807 r init;
#X obj -756 -808 r init;
#X obj -1253 -807 r init;
#X obj -788 -964 nbx 5 14 -30 30 0 0 empty empty circle1_pt_2 0 -8
0 10 -204800 -1 -1 0 256;
#X obj -992 -775 nbx 5 14 -30 30 0 0 empty empty circle2_pt_4 0 -8
0 10 -204800 -1 -1 0 256;
#X obj -1082 -776 nbx 5 14 -30 30 0 0 empty empty circle2_pt_3 0 -8
0 10 -204800 -1 -1 0 256;
#X obj -587 -779 nbx 5 14 -30 30 0 0 empty empty circle3_pt_3 0 -8
0 10 -204800 -1 -1 0 256;
#X obj -703 -964 nbx 5 14 -30 30 0 0 empty empty circle1_pt_4 0 -8
0 10 -204800 -1 -1 0 256;
#X obj -788 -1002 r init;
#X obj -703 -1001 r init;
#X obj -991 -805 r init;
#X obj -587 -807 r init;
#N canvas 764 200 864 494 circlesynthesizer 0;
#X obj -865 -523 +~;
#X obj -865 -591 osc~ 220;
#X floatatom -866 -707 5 0 0 0 - - -, f 5;
#X obj -866 -688 mtof;
#X floatatom -866 -666 5 0 0 0 - - -, f 5;
#X obj -781 -545 -~ 0.5;
#X obj -866 -647 -;
#X obj -866 -623 +~;
#X obj -781 -617 +;
#X obj -865 -569 -~ 0.5;
#X obj -865 -492 bp~ 440 0.5;
#X obj -781 -571 osc~ 221;
#X obj -563 -694 osc~;
#X obj -563 -749 nbx 5 14 0 30 0 0 empty empty modulator_freq 0 -8
0 10 -262144 -1 -1 0 256;
#X obj -563 -723 * 30;
#X obj -461 -736 * 30;
#X obj -781 -595 +~;
#N canvas 606 62 450 300 +int 0;
#X floatatom -131 -695 5 0 0 0 - - -, f 5;
#X obj -132 -834 moses 0;
#X obj -131 -765 float \$1;
#X floatatom -131 -739 9 0 0 0 - - -, f 9;
#X obj -64 -766 float \$1;
#X floatatom -64 -741 9 0 0 0 - - -, f 9;
#X obj -131 -718 * -1;
#X msg -121 -801 0, f 4;
#X msg -58 -801 0, f 4;
#X obj -131 -669 +;
#X msg -65 -718 bang;
#X obj -124 -865 inlet;
#X obj -131 -639 outlet;
#X connect 0 0 9 0;
#X connect 1 0 2 0;
#X connect 1 0 8 0;
#X connect 1 1 4 0;
#X connect 1 1 7 0;
#X connect 2 0 3 0;
#X connect 3 0 6 0;
#X connect 4 0 5 0;
#X connect 5 0 9 1;
#X connect 5 0 10 0;
#X connect 6 0 0 0;
#X connect 7 0 2 0;
#X connect 8 0 4 0;
#X connect 9 0 12 0;
#X connect 10 0 9 0;
#X connect 11 0 1 0;
#X restore -563 -786 pd +int;
#X obj -461 -760 nbx 5 14 0 30 0 0 empty empty modulator_freq 0 -8
0 10 -262144 -1 -1 0 256;
#X obj -746 -694 osc~;
#X obj -746 -749 nbx 5 14 0 30 0 0 empty empty modulator_freq 0 -8
0 10 -262144 -1 -1 0 256;
#X obj -746 -723 * 30;
#X obj -655 -726 * 30;
#N canvas 606 62 450 300 +int 0;
#X floatatom -131 -695 5 0 0 0 - - -, f 5;
#X obj -132 -834 moses 0;
#X obj -131 -765 float \$1;
#X floatatom -131 -739 9 0 0 0 - - -, f 9;
#X obj -64 -766 float \$1;
#X floatatom -64 -741 9 0 0 0 - - -, f 9;
#X obj -131 -718 * -1;
#X msg -121 -801 0, f 4;
#X msg -58 -801 0, f 4;
#X obj -131 -669 +;
#X msg -65 -718 bang;
#X obj -124 -865 inlet;
#X obj -131 -639 outlet;
#X connect 0 0 9 0;
#X connect 1 0 2 0;
#X connect 1 0 8 0;
#X connect 1 1 4 0;
#X connect 1 1 7 0;
#X connect 2 0 3 0;
#X connect 3 0 6 0;
#X connect 4 0 5 0;
#X connect 5 0 9 1;
#X connect 5 0 10 0;
#X connect 6 0 0 0;
#X connect 7 0 2 0;
#X connect 8 0 4 0;
#X connect 9 0 12 0;
#X connect 10 0 9 0;
#X connect 11 0 1 0;
#X restore -746 -786 pd +int;
#X obj -655 -751 nbx 5 14 0 30 0 0 empty empty modulator_freq 0 -8
0 10 -262144 -1 -1 0 256;
#N canvas 606 62 450 300 +int 0;
#X floatatom -131 -695 5 0 0 0 - - -, f 5;
#X obj -132 -834 moses 0;
#X obj -131 -765 float \$1;
#X floatatom -131 -739 9 0 0 0 - - -, f 9;
#X obj -64 -766 float \$1;
#X floatatom -64 -741 9 0 0 0 - - -, f 9;
#X obj -131 -718 * -1;
#X msg -121 -801 0, f 4;
#X msg -58 -801 0, f 4;
#X obj -131 -669 +;
#X msg -65 -718 bang;
#X obj -124 -865 inlet;
#X obj -131 -639 outlet;
#X connect 0 0 9 0;
#X connect 1 0 2 0;
#X connect 1 0 8 0;
#X connect 1 1 4 0;
#X connect 1 1 7 0;
#X connect 2 0 3 0;
#X connect 3 0 6 0;
#X connect 4 0 5 0;
#X connect 5 0 9 1;
#X connect 5 0 10 0;
#X connect 6 0 0 0;
#X connect 7 0 2 0;
#X connect 8 0 4 0;
#X connect 9 0 12 0;
#X connect 10 0 9 0;
#X connect 11 0 1 0;
#X restore -655 -786 pd +int;
#N canvas 606 62 450 300 +int 0;
#X floatatom -131 -695 5 0 0 0 - - -, f 5;
#X obj -132 -834 moses 0;
#X obj -131 -765 float \$1;
#X floatatom -131 -739 9 0 0 0 - - -, f 9;
#X obj -64 -766 float \$1;
#X floatatom -64 -741 9 0 0 0 - - -, f 9;
#X obj -131 -718 * -1;
#X msg -121 -801 0, f 4;
#X msg -58 -801 0, f 4;
#X obj -131 -669 +;
#X msg -65 -718 bang;
#X obj -124 -865 inlet;
#X obj -131 -639 outlet;
#X connect 0 0 9 0;
#X connect 1 0 2 0;
#X connect 1 0 8 0;
#X connect 1 1 4 0;
#X connect 1 1 7 0;
#X connect 2 0 3 0;
#X connect 3 0 6 0;
#X connect 4 0 5 0;
#X connect 5 0 9 1;
#X connect 5 0 10 0;
#X connect 6 0 0 0;
#X connect 7 0 2 0;
#X connect 8 0 4 0;
#X connect 9 0 12 0;
#X connect 10 0 9 0;
#X connect 11 0 1 0;
#X restore -461 -795 pd +int;
#X obj -866 -758 + 30;
#X obj -867 -733 + 30;
#X obj -847 -949 inlet;
#X obj -918 -911 inlet;
#X obj -655 -816 inlet;
#X obj -752 -949 inlet;
#X obj -463 -828 inlet;
#X obj -563 -816 inlet;
#X obj -746 -817 inlet;
#X text -927 -933 lat/long;
#X obj -845 -869 nbx 5 14 0 100 0 0 empty empty control_octave 0 -8
0 10 -262144 -1 -1 20 256;
#N canvas 606 62 450 300 +int 0;
#X floatatom -131 -695 5 0 0 0 - - -, f 5;
#X obj -132 -834 moses 0;
#X obj -131 -765 float \$1;
#X floatatom -131 -739 9 0 0 0 - - -, f 9;
#X obj -64 -766 float \$1;
#X floatatom -64 -741 9 0 0 0 - - -, f 9;
#X obj -131 -718 * -1;
#X msg -121 -801 0, f 4;
#X msg -58 -801 0, f 4;
#X obj -131 -669 +;
#X msg -65 -718 bang;
#X obj -124 -865 inlet;
#X obj -131 -639 outlet;
#X connect 0 0 9 0;
#X connect 1 0 2 0;
#X connect 1 0 8 0;
#X connect 1 1 4 0;
#X connect 1 1 7 0;
#X connect 2 0 3 0;
#X connect 3 0 6 0;
#X connect 4 0 5 0;
#X connect 5 0 9 1;
#X connect 5 0 10 0;
#X connect 6 0 0 0;
#X connect 7 0 2 0;
#X connect 8 0 4 0;
#X connect 9 0 12 0;
#X connect 10 0 9 0;
#X connect 11 0 1 0;
#X restore -847 -924 pd +int;
#X obj -749 -870 nbx 5 14 0 100 0 0 empty empty control_octave 0 -8
0 10 -262144 -1 -1 20 256;
#N canvas 606 62 450 300 +int 0;
#X floatatom -131 -695 5 0 0 0 - - -, f 5;
#X obj -132 -834 moses 0;
#X obj -131 -765 float \$1;
#X floatatom -131 -739 9 0 0 0 - - -, f 9;
#X obj -64 -766 float \$1;
#X floatatom -64 -741 9 0 0 0 - - -, f 9;
#X obj -131 -718 * -1;
#X msg -121 -801 0, f 4;
#X msg -58 -801 0, f 4;
#X obj -131 -669 +;
#X msg -65 -718 bang;
#X obj -124 -865 inlet;
#X obj -131 -639 outlet;
#X connect 0 0 9 0;
#X connect 1 0 2 0;
#X connect 1 0 8 0;
#X connect 1 1 4 0;
#X connect 1 1 7 0;
#X connect 2 0 3 0;
#X connect 3 0 6 0;
#X connect 4 0 5 0;
#X connect 5 0 9 1;
#X connect 5 0 10 0;
#X connect 6 0 0 0;
#X connect 7 0 2 0;
#X connect 8 0 4 0;
#X connect 9 0 12 0;
#X connect 10 0 9 0;
#X connect 11 0 1 0;
#X restore -751 -925 pd +int;
#X obj -847 -902 + 20;
#X obj -751 -901 + 20;
#X text -749 -838 circle pt 1;
#X text -568 -836 circle pt 2;
#X text -657 -837 circle pt 3;
#X text -468 -846 circle pt 4;
#X obj -865 -462 outlet~;
#X text -849 -967 control octave;
#X text -755 -965 control octave;
#X obj -746 -665 *~;
#X obj -563 -665 *~;
#X connect 0 0 10 0;
#X connect 1 0 9 0;
#X connect 2 0 3 0;
#X connect 3 0 4 0;
#X connect 4 0 6 0;
#X connect 4 0 8 0;
#X connect 5 0 0 1;
#X connect 6 0 7 0;
#X connect 7 0 1 0;
#X connect 8 0 16 0;
#X connect 9 0 0 0;
#X connect 10 0 47 0;
#X connect 11 0 5 0;
#X connect 12 0 51 0;
#X connect 13 0 14 0;
#X connect 14 0 12 0;
#X connect 15 0 51 1;
#X connect 16 0 11 0;
#X connect 17 0 13 0;
#X connect 18 0 15 0;
#X connect 19 0 50 0;
#X connect 20 0 21 0;
#X connect 21 0 19 0;
#X connect 22 0 50 1;
#X connect 23 0 20 0;
#X connect 24 0 22 0;
#X connect 25 0 24 0;
#X connect 26 0 18 0;
#X connect 27 0 28 0;
#X connect 28 0 2 0;
#X connect 29 0 38 0;
#X connect 30 0 27 0;
#X connect 31 0 25 0;
#X connect 32 0 40 0;
#X connect 33 0 26 0;
#X connect 34 0 17 0;
#X connect 35 0 23 0;
#X connect 37 0 27 1;
#X connect 38 0 41 0;
#X connect 39 0 28 1;
#X connect 40 0 42 0;
#X connect 41 0 37 0;
#X connect 42 0 39 0;
#X connect 50 0 7 1;
#X connect 51 0 16 1;
#X restore -807 -748 pd circlesynthesizer;
#X obj -1082 -806 r init;
#X obj -503 -778 nbx 5 14 -30 30 0 0 empty empty circle3_pt_4 0 -8
0 10 -204800 -1 -1 0 256;
#X obj -503 -806 r init;
#X obj -1342 -684 cnv 15 500 350 empty empty circle_4_modulates_the_rhythm_generated_from_the_step_counter
20 12 0 10 -105716 -66577 0;
#X obj -1205 -538 nbx 5 14 -30 30 0 0 empty empty circle_pt_1 0 -8
0 10 -204800 -1 -1 0 256;
#X obj -1055 -536 nbx 5 14 -30 30 0 0 empty empty circle_pt_3 0 -8
0 10 -204800 -1 -1 0 256;
#X obj -1130 -537 nbx 5 14 -30 30 0 0 empty empty circle_pt_2 0 -8
0 10 -204800 -1 -1 0 256;
#X obj -983 -536 nbx 5 14 -30 30 0 0 empty empty circle_pt_4 0 -8 0
10 -204800 -1 -1 0 256;
#X obj -1281 -606 r lat1;
#X obj -1232 -605 r long1;
#X obj -986 -565 r init;
#X obj -1130 -567 r init;
#X obj -1055 -568 r init;
#X obj -1205 -570 r init;
#X obj -1298 -634 r bpm1;
#X obj -824 -684 cnv 15 750 120 empty empty circle_1_sets_the_range_of_notes
20 12 0 10 -261338 -66577 0;
#X obj -307 -548 cnv 15 500 200 empty empty circle_3_is_the_second_set_of_modulator_frequencies
20 12 0 10 -261313 -66577 0;
#X obj -825 -548 cnv 15 500 200 empty empty circle_2_is_the_first_set_of_modulator_frequencies
20 12 0 10 -261325 -66577 0;
#X obj -774 -600 nbx 5 14 -30 30 0 0 empty empty circle1_pt_1 0 -8
0 10 -262130 -1 -1 0 256;
#X obj -643 -418 nbx 5 14 -30 30 0 0 empty empty circle2_pt_2 0 -8
0 10 -262130 -1 -1 0 256;
#X obj -729 -418 nbx 5 14 -30 30 0 0 empty empty circle2_pt_1 0 -8
0 10 -262130 -1 -1 0 256;
#X obj -221 -420 nbx 5 14 -30 30 0 0 empty empty circle3_pt_1 0 -8
0 10 -262130 -1 -1 0 256;
#X obj -135 -419 nbx 5 14 -30 30 0 0 empty empty circle3_pt_2 0 -8
0 10 -262130 -1 -1 0 256;
#X obj -689 -600 nbx 5 14 -30 30 0 0 empty empty circle1_pt_3 0 -8
0 10 -262130 -1 -1 0 256;
#X obj -135 -452 r init;
#X obj -643 -451 r init;
#X obj -221 -453 r init;
#X obj -729 -451 r init;
#X obj -270 -610 nbx 5 14 -30 30 0 0 empty empty circle1_pt_2 0 -8
0 10 -262130 -1 -1 0 256;
#X obj -472 -416 nbx 5 14 -30 30 0 0 empty empty circle2_pt_4 0 -8
0 10 -262130 -1 -1 0 256;
#X obj -558 -417 nbx 5 14 -30 30 0 0 empty empty circle2_pt_3 0 -8
0 10 -262130 -1 -1 0 256;
#X obj -51 -418 nbx 5 14 -30 30 0 0 empty empty circle3_pt_3 0 -8 0
10 -262130 -1 -1 0 256;
#X obj -185 -610 nbx 5 14 -30 30 0 0 empty empty circle1_pt_4 0 -8
0 10 -262130 -1 -1 0 256;
#X obj -471 -449 r init;
#X obj -51 -451 r init;
#X obj -558 -450 r init;
#X obj 33 -417 nbx 5 14 -30 30 0 0 empty empty circle3_pt_4 0 -8 0
10 -262130 -1 -1 0 256;
#X obj 33 -450 r init;
#X obj -793 -662 r lat2;
#X obj -289 -672 r long2;
#X obj -825 -333 cnv 15 500 350 empty empty circle_4_modulates_the_rhythm_generated_from_the_step_counter
20 12 0 10 -211329 -66577 0;
#X obj -690 -188 nbx 5 14 -30 30 0 0 empty empty circle_pt_1 0 -8 0
10 -262130 -1 -1 0 256;
#X obj -540 -186 nbx 5 14 -30 30 0 0 empty empty circle_pt_3 0 -8 0
10 -262130 -1 -1 0 256;
#X obj -615 -187 nbx 5 14 -30 30 0 0 empty empty circle_pt_2 0 -8 0
10 -262130 -1 -1 0 256;
#X obj -468 -186 nbx 5 14 -30 30 0 0 empty empty circle_pt_4 0 -8 0
10 -262130 -1 -1 0 256;
#N canvas 472 66 992 626 rhythmsynthesizer 0;
#X floatatom -1207 -363 5 0 0 0 - - -, f 5;
#X obj -964 -411 nbx 5 14 0 100 0 0 empty empty control_octave 0 -8
0 10 -262144 -1 -1 20 256;
#X obj -1233 -438 vradio 15 1 0 4 empty empty empty 0 -8 0 10 -262144
-1 -1 1;
#X obj -1206 -386 + 39;
#X obj -1233 -487 bng 15 250 50 0 empty empty empty 17 7 0 10 -262144
-1 -1;
#X floatatom -809 -330 5 0 0 0 - - -, f 5;
#X obj -808 -353 + 39;
#X obj -787 -413 nbx 5 14 0 100 0 0 empty empty control_octave 0 -8
0 10 -262144 -1 -1 20 256;
#X obj -787 -447 + 20;
#X obj -964 -453 + 20;
#N canvas 990 22 704 610 bpm 0;
#X obj 95 261 t b f;
#X msg 95 289 60000;
#X obj 95 335 int;
#X floatatom 95 357 5 0 0 0 - - -, f 5;
#X obj 94 231 int;
#X obj 64 211 bng 15 250 50 0 empty empty empty 17 7 0 10 -262144 -1
-1;
#X obj 162 404 *;
#X obj 162 404;
#X obj 229 170 t b f;
#X obj 229 201 sel 0 1 2 3;
#X obj 95 311 /;
#X obj 97 180 inlet;
#X obj 228 145 inlet;
#X obj 160 431 outlet;
#X msg 233 233 0.25;
#X msg 255 263 0.5;
#X msg 282 292 1;
#X msg 315 296 1.5;
#X connect 0 0 1 0;
#X connect 0 1 10 1;
#X connect 1 0 10 0;
#X connect 2 0 3 0;
#X connect 3 0 6 0;
#X connect 3 0 7 0;
#X connect 4 0 0 0;
#X connect 5 0 4 0;
#X connect 6 0 13 0;
#X connect 8 0 4 0;
#X connect 8 1 9 0;
#X connect 9 0 14 0;
#X connect 9 1 15 0;
#X connect 9 2 16 0;
#X connect 9 3 17 0;
#X connect 10 0 2 0;
#X connect 11 0 4 1;
#X connect 11 0 5 0;
#X connect 12 0 8 0;
#X connect 14 0 6 1;
#X connect 15 0 6 1;
#X connect 16 0 6 1;
#X connect 17 0 6 1;
#X restore -1267 -351 pd bpm;
#X obj -839 -406 vradio 15 1 0 4 empty empty empty 0 -8 0 10 -262144
-1 -1 2;
#X obj -839 -455 bng 15 250 50 0 empty empty empty 17 7 0 10 -262144
-1 -1;
#N canvas 743 56 704 610 bpm 0;
#X obj 95 261 t b f;
#X msg 95 289 60000;
#X obj 95 335 int;
#X floatatom 95 357 5 0 0 0 - - -, f 5;
#X obj 94 231 int;
#X obj 64 211 bng 15 250 50 0 empty empty empty 17 7 0 10 -262144 -1
-1;
#X obj 162 404 *;
#X obj 162 404;
#X obj 229 170 t b f;
#X obj 229 201 sel 0 1 2 3;
#X msg 233 233 0.25;
#X msg 255 263 0.5;
#X msg 282 292 1;
#X msg 315 296 1.5;
#X obj 95 311 /;
#X obj 97 180 inlet;
#X obj 228 145 inlet;
#X obj 160 431 outlet;
#X connect 0 0 1 0;
#X connect 0 1 14 1;
#X connect 1 0 14 0;
#X connect 2 0 3 0;
#X connect 3 0 6 0;
#X connect 3 0 7 0;
#X connect 4 0 0 0;
#X connect 5 0 4 0;
#X connect 6 0 17 0;
#X connect 8 0 4 0;
#X connect 8 1 9 0;
#X connect 9 0 10 0;
#X connect 9 1 11 0;
#X connect 9 2 12 0;
#X connect 9 3 13 0;
#X connect 10 0 6 1;
#X connect 11 0 6 1;
#X connect 12 0 6 1;
#X connect 13 0 6 1;
#X connect 14 0 2 0;
#X connect 15 0 4 1;
#X connect 15 0 5 0;
#X connect 16 0 8 0;
#X restore -872 -334 pd bpm;
#N canvas 606 62 450 300 +int 0;
#X floatatom -131 -695 5 0 0 0 - - -, f 5;
#X obj -132 -834 moses 0;
#X obj -131 -765 float \$1;
#X floatatom -131 -739 9 0 0 0 - - -, f 9;
#X obj -64 -766 float \$1;
#X floatatom -64 -741 9 0 0 0 - - -, f 9;
#X obj -131 -718 * -1;
#X msg -121 -801 0, f 4;
#X msg -58 -801 0, f 4;
#X obj -131 -669 +;
#X msg -65 -718 bang;
#X obj -124 -865 inlet;
#X obj -131 -639 outlet;
#X connect 0 0 9 0;
#X connect 1 0 2 0;
#X connect 1 0 8 0;
#X connect 1 1 4 0;
#X connect 1 1 7 0;
#X connect 2 0 3 0;
#X connect 3 0 6 0;
#X connect 4 0 5 0;
#X connect 5 0 9 1;
#X connect 5 0 10 0;
#X connect 6 0 0 0;
#X connect 7 0 2 0;
#X connect 8 0 4 0;
#X connect 9 0 12 0;
#X connect 10 0 9 0;
#X connect 11 0 1 0;
#X restore -964 -475 pd +int;
#N canvas 606 62 450 300 +int 0;
#X floatatom -131 -695 5 0 0 0 - - -, f 5;
#X obj -132 -834 moses 0;
#X obj -131 -765 float \$1;
#X floatatom -131 -739 9 0 0 0 - - -, f 9;
#X obj -64 -766 float \$1;
#X floatatom -64 -741 9 0 0 0 - - -, f 9;
#X obj -131 -718 * -1;
#X msg -121 -801 0, f 4;
#X msg -58 -801 0, f 4;
#X obj -131 -669 +;
#X msg -65 -718 bang;
#X obj -124 -865 inlet;
#X obj -131 -639 outlet;
#X connect 0 0 9 0;
#X connect 1 0 2 0;
#X connect 1 0 8 0;
#X connect 1 1 4 0;
#X connect 1 1 7 0;
#X connect 2 0 3 0;
#X connect 3 0 6 0;
#X connect 4 0 5 0;
#X connect 5 0 9 1;
#X connect 5 0 10 0;
#X connect 6 0 0 0;
#X connect 7 0 2 0;
#X connect 8 0 4 0;
#X connect 9 0 12 0;
#X connect 10 0 9 0;
#X connect 11 0 1 0;
#X restore -787 -469 pd +int;
#X floatatom -580 -330 5 0 0 0 - - -, f 5;
#X obj -558 -413 nbx 5 14 0 100 0 0 empty empty control_octave 0 -8
0 10 -262144 -1 -1 20 256;
#X obj -558 -447 + 20;
#X obj -610 -406 vradio 15 1 0 4 empty empty empty 0 -8 0 10 -262144
-1 -1 2;
#X obj -610 -455 bng 15 250 50 0 empty empty empty 17 7 0 10 -262144
-1 -1;
#N canvas 743 93 704 610 bpm 0;
#X obj 95 261 t b f;
#X msg 95 289 60000;
#X obj 95 335 int;
#X floatatom 95 357 5 0 0 0 - - -, f 5;
#X obj 94 231 int;
#X obj 64 211 bng 15 250 50 0 empty empty empty 17 7 0 10 -262144 -1
-1;
#X obj 162 404 *;
#X obj 162 404;
#X obj 229 170 t b f;
#X obj 229 201 sel 0 1 2 3;
#X msg 233 233 0.25;
#X msg 255 263 0.5;
#X msg 282 292 1;
#X obj 95 311 /;
#X obj 97 180 inlet;
#X obj 228 145 inlet;
#X obj 160 431 outlet;
#X msg 315 296 1.5;
#X connect 0 0 1 0;
#X connect 0 1 13 1;
#X connect 1 0 13 0;
#X connect 2 0 3 0;
#X connect 3 0 6 0;
#X connect 3 0 7 0;
#X connect 4 0 0 0;
#X connect 5 0 4 0;
#X connect 6 0 16 0;
#X connect 8 0 4 0;
#X connect 8 1 9 0;
#X connect 9 0 10 0;
#X connect 9 1 11 0;
#X connect 9 2 12 0;
#X connect 9 3 17 0;
#X connect 10 0 6 1;
#X connect 11 0 6 1;
#X connect 12 0 6 1;
#X connect 13 0 2 0;
#X connect 14 0 4 1;
#X connect 14 0 5 0;
#X connect 15 0 8 0;
#X connect 17 0 6 1;
#X restore -643 -334 pd bpm;
#N canvas 874 57 450 300 +int 0;
#X floatatom -131 -695 5 0 0 0 - - -, f 5;
#X obj -132 -834 moses 0;
#X obj -131 -765 float \$1;
#X floatatom -131 -739 9 0 0 0 - - -, f 9;
#X obj -64 -766 float \$1;
#X floatatom -64 -741 9 0 0 0 - - -, f 9;
#X obj -131 -718 * -1;
#X msg -121 -801 0, f 4;
#X msg -58 -801 0, f 4;
#X obj -131 -669 +;
#X msg -65 -718 bang;
#X obj -124 -865 inlet;
#X obj -131 -639 outlet;
#X connect 0 0 9 0;
#X connect 1 0 2 0;
#X connect 1 0 8 0;
#X connect 1 1 4 0;
#X connect 1 1 7 0;
#X connect 2 0 3 0;
#X connect 3 0 6 0;
#X connect 4 0 5 0;
#X connect 5 0 9 1;
#X connect 5 0 10 0;
#X connect 6 0 0 0;
#X connect 7 0 2 0;
#X connect 8 0 4 0;
#X connect 9 0 12 0;
#X connect 10 0 9 0;
#X connect 11 0 1 0;
#X restore -558 -469 pd +int;
#X floatatom -385 -328 5 0 0 0 - - -, f 5;
#X obj -363 -413 nbx 5 14 0 100 0 0 empty empty control_octave 0 -8
0 10 -262144 -1 -1 20 256;
#X obj -363 -447 + 20;
#X obj -415 -406 vradio 15 1 0 4 empty empty empty 0 -8 0 10 -262144
-1 -1 0;
#X obj -415 -455 bng 15 250 50 0 empty empty empty 17 7 0 10 -262144
-1 -1;
#N canvas 690 41 704 610 bpm 0;
#X obj 95 261 t b f;
#X msg 95 289 60000;
#X obj 95 335 int;
#X floatatom 95 357 5 0 0 0 - - -, f 5;
#X obj 94 231 int;
#X obj 64 211 bng 15 250 50 0 empty empty empty 17 7 0 10 -262144 -1
-1;
#X obj 162 404 *;
#X obj 162 404;
#X obj 229 170 t b f;
#X obj 229 201 sel 0 1 2 3;
#X msg 233 233 0.25;
#X msg 255 263 0.5;
#X msg 282 292 1;
#X msg 315 296 1.5;
#X obj 95 311 /;
#X obj 97 180 inlet;
#X obj 228 145 inlet;
#X obj 160 431 outlet;
#X connect 0 0 1 0;
#X connect 0 1 14 1;
#X connect 1 0 14 0;
#X connect 2 0 3 0;
#X connect 3 0 6 0;
#X connect 3 0 7 0;
#X connect 4 0 0 0;
#X connect 5 0 4 0;
#X connect 6 0 17 0;
#X connect 8 0 4 0;
#X connect 8 1 9 0;
#X connect 9 0 10 0;
#X connect 9 1 11 0;
#X connect 9 2 12 0;
#X connect 9 3 13 0;
#X connect 10 0 6 1;
#X connect 11 0 6 1;
#X connect 12 0 6 1;
#X connect 13 0 6 1;
#X connect 14 0 2 0;
#X connect 15 0 4 1;
#X connect 15 0 5 0;
#X connect 16 0 8 0;
#X restore -448 -334 pd bpm;
#N canvas 606 62 450 300 +int 0;
#X floatatom -131 -695 5 0 0 0 - - -, f 5;
#X obj -132 -834 moses 0;
#X obj -131 -765 float \$1;
#X floatatom -131 -739 9 0 0 0 - - -, f 9;
#X obj -64 -766 float \$1;
#X floatatom -64 -741 9 0 0 0 - - -, f 9;
#X obj -131 -718 * -1;
#X msg -121 -801 0, f 4;
#X msg -58 -801 0, f 4;
#X obj -131 -669 +;
#X msg -65 -718 bang;
#X obj -124 -865 inlet;
#X obj -131 -639 outlet;
#X connect 0 0 9 0;
#X connect 1 0 2 0;
#X connect 1 0 8 0;
#X connect 1 1 4 0;
#X connect 1 1 7 0;
#X connect 2 0 3 0;
#X connect 3 0 6 0;
#X connect 4 0 5 0;
#X connect 5 0 9 1;
#X connect 5 0 10 0;
#X connect 6 0 0 0;
#X connect 7 0 2 0;
#X connect 8 0 4 0;
#X connect 9 0 12 0;
#X connect 10 0 9 0;
#X connect 11 0 1 0;
#X restore -363 -469 pd +int;
#X obj -579 -353 + 39;
#X obj -384 -353 + 39;
#X msg -415 -431 0;
#X obj -964 -509 inlet;
#X obj -787 -498 inlet;
#X obj -558 -498 inlet;
#X obj -363 -496 inlet;
#X obj -1285 -642 inlet;
#X obj -1239 -641 inlet;
#X obj -1286 -285 outlet~;
#X obj -662 -256 outlet~;
#X obj -891 -259 outlet~;
#X obj -466 -258 outlet~;
#X obj -1182 -612 inlet;
#X obj -1122 -614 inlet;
#X text -1177 -633 lat;
#X text -1122 -631 long;
#X obj -1182 -590 s rlat;
#X obj -1122 -592 s rlong;
#X obj -1206 -413 r rlat;
#X obj -809 -387 r rlong;
#X obj -579 -380 r rlat;
#X obj -384 -379 r rlong;
#N canvas 922 96 714 586 bing 0;
#X obj -90 297 *~;
#X msg -90 88 1;
#X obj -46 149 bng 15 250 50 0 empty empty empty 17 7 0 10 -262144
-1 -1;
#X floatatom -46 179 5 0 0 0 - - -, f 5;
#X obj -46 236 *~ 2;
#X obj -90 39 metro 100;
#X obj -45 205 * 10;
#X obj 48 34 inlet;
#X obj -90 12 inlet;
#X text 45 16 incoming value (lat/long);
#X obj -39 11 inlet;
#X text -34 -9 bpm;
#X obj -90 383 outlet~;
#X obj -46 263 osc~;
#N canvas 321 359 1195 589 asdr~ 0;
#X obj 6 36 inlet trig;
#X obj 215 331 line~;
#X obj 215 365 outlet~;
#X obj 103 83 t b;
#X obj 6 66 sel 0;
#X obj 103 190 f \$1;
#X obj 146 273 pack 0 \$2;
#X obj 215 157 f \$4;
#X obj 284 273 pack 0 \$5;
#X obj 215 273 pack 0 \$3;
#X obj 215 247 * \$1;
#X obj 215 182 * 0.01;
#X msg 6 103 stop;
#X text 4 122 If 0 \, stop;
#X text 4 136 attack and;
#X text 4 150 trigger release;
#X obj 215 120 del \$2;
#X text 311 23 Sustain %;
#X text 272 179 as % of attack;
#X obj 150 37 inlet;
#X obj 197 39 inlet;
#X obj 257 41 inlet;
#X obj 385 48 inlet;
#X text 148 17 Level;
#X text 148 7 Attack;
#X text 196 21 Speed;
#X text 196 11 Attack;
#X text 256 23 Speed;
#X text 256 13 Decay;
#X text 384 30 Speed;
#X text 384 20 Release;
#X text 62 200 level;
#X text 62 190 attack;
#X text 62 180 Store;
#X text 6 11 0 to release;
#X text 6 1 Send 1 to start attack \,;
#X text 272 165 Derive sustain level;
#X obj 312 41 inlet;
#X floatatom 150 59 5 0 0 0 - - -, f 5;
#X floatatom 197 61 5 0 0 0 - - -, f 5;
#X floatatom 257 63 5 0 0 0 - - -, f 5;
#X connect 0 0 4 0;
#X connect 1 0 2 0;
#X connect 3 0 5 0;
#X connect 3 0 16 0;
#X connect 4 0 8 0;
#X connect 4 0 12 0;
#X connect 4 1 3 0;
#X connect 5 0 6 0;
#X connect 6 0 1 0;
#X connect 7 0 11 0;
#X connect 8 0 1 0;
#X connect 9 0 1 0;
#X connect 10 0 9 0;
#X connect 11 0 10 0;
#X connect 12 0 16 0;
#X connect 16 0 7 0;
#X connect 19 0 5 1;
#X connect 19 0 10 1;
#X connect 19 0 38 0;
#X connect 20 0 6 1;
#X connect 20 0 16 1;
#X connect 20 0 39 0;
#X connect 21 0 9 1;
#X connect 21 0 40 0;
#X connect 22 0 8 1;
#X connect 37 0 7 0;
#X restore -92 121 pd asdr~ 0.75 0 100 0 0;
#X msg -41 87 0.75;
#X msg 39 84 0;
#X msg -1 87 100;
#X connect 0 0 12 0;
#X connect 1 0 14 0;
#X connect 2 0 3 0;
#X connect 3 0 6 0;
#X connect 4 0 13 0;
#X connect 5 0 1 0;
#X connect 5 0 2 0;
#X connect 5 0 15 0;
#X connect 5 0 17 0;
#X connect 5 0 16 0;
#X connect 6 0 4 0;
#X connect 7 0 3 0;
#X connect 8 0 5 0;
#X connect 10 0 5 1;
#X connect 13 0 0 1;
#X connect 14 0 0 0;
#X connect 15 0 14 1;
#X connect 16 0 14 2;
#X connect 16 0 14 4;
#X connect 16 0 14 5;
#X connect 17 0 14 3;
#X restore -891 -292 pd bing;
#X msg -1285 -620 1;
#N canvas 278 40 714 586 bing 0;
#X obj -90 297 *~;
#X msg -90 88 1;
#X obj -46 149 bng 15 250 50 0 empty empty empty 17 7 0 10 -262144
-1 -1;
#X floatatom -46 179 5 0 0 0 - - -, f 5;
#X obj -46 236 *~ 2;
#X obj -90 39 metro 100;
#X obj -45 205 * 10;
#X obj 48 34 inlet;
#X obj -90 12 inlet;
#X text 45 16 incoming value (lat/long);
#X obj -39 11 inlet;
#X text -34 -9 bpm;
#X obj -90 383 outlet~;
#X obj -46 263 osc~;
#N canvas 321 359 1195 589 asdr~ 0;
#X obj 6 36 inlet trig;
#X obj 215 331 line~;
#X obj 215 365 outlet~;
#X obj 103 83 t b;
#X obj 6 66 sel 0;
#X obj 103 190 f \$1;
#X obj 146 273 pack 0 \$2;
#X obj 215 157 f \$4;
#X obj 284 273 pack 0 \$5;
#X obj 215 273 pack 0 \$3;
#X obj 215 247 * \$1;
#X obj 215 182 * 0.01;
#X msg 6 103 stop;
#X text 4 122 If 0 \, stop;
#X text 4 136 attack and;
#X text 4 150 trigger release;
#X obj 215 120 del \$2;
#X text 311 23 Sustain %;
#X text 272 179 as % of attack;
#X obj 150 37 inlet;
#X obj 197 39 inlet;
#X obj 257 41 inlet;
#X obj 385 48 inlet;
#X text 148 17 Level;
#X text 148 7 Attack;
#X text 196 21 Speed;
#X text 196 11 Attack;
#X text 256 23 Speed;
#X text 256 13 Decay;
#X text 384 30 Speed;
#X text 384 20 Release;
#X text 62 200 level;
#X text 62 190 attack;
#X text 62 180 Store;
#X text 6 11 0 to release;
#X text 6 1 Send 1 to start attack \,;
#X text 272 165 Derive sustain level;
#X obj 312 41 inlet;
#X floatatom 150 59 5 0 0 0 - - -, f 5;
#X floatatom 197 61 5 0 0 0 - - -, f 5;
#X floatatom 257 63 5 0 0 0 - - -, f 5;
#X connect 0 0 4 0;
#X connect 1 0 2 0;
#X connect 3 0 5 0;
#X connect 3 0 16 0;
#X connect 4 0 8 0;
#X connect 4 0 12 0;
#X connect 4 1 3 0;
#X connect 5 0 6 0;
#X connect 6 0 1 0;
#X connect 7 0 11 0;
#X connect 8 0 1 0;
#X connect 9 0 1 0;
#X connect 10 0 9 0;
#X connect 11 0 10 0;
#X connect 12 0 16 0;
#X connect 16 0 7 0;
#X connect 19 0 5 1;
#X connect 19 0 10 1;
#X connect 19 0 38 0;
#X connect 20 0 6 1;
#X connect 20 0 16 1;
#X connect 20 0 39 0;
#X connect 21 0 9 1;
#X connect 21 0 40 0;
#X connect 22 0 8 1;
#X connect 37 0 7 0;
#X restore -92 121 pd asdr~ 0.75 0 100 0 0;
#X msg -41 87 0.75;
#X msg 39 84 0;
#X msg -1 87 100;
#X connect 0 0 12 0;
#X connect 1 0 14 0;
#X connect 2 0 3 0;
#X connect 3 0 6 0;
#X connect 4 0 13 0;
#X connect 5 0 1 0;
#X connect 5 0 2 0;
#X connect 5 0 15 0;
#X connect 5 0 17 0;
#X connect 5 0 16 0;
#X connect 6 0 4 0;
#X connect 7 0 3 0;
#X connect 8 0 5 0;
#X connect 10 0 5 1;
#X connect 13 0 0 1;
#X connect 14 0 0 0;
#X connect 15 0 14 1;
#X connect 16 0 14 2;
#X connect 16 0 14 4;
#X connect 16 0 14 5;
#X connect 17 0 14 3;
#X restore -1286 -313 pd bing;
#N canvas 278 40 714 586 bing 0;
#X obj -90 297 *~;
#X msg -90 88 1;
#X obj -46 149 bng 15 250 50 0 empty empty empty 17 7 0 10 -262144
-1 -1;
#X floatatom -46 179 5 0 0 0 - - -, f 5;
#X obj -46 236 *~ 2;
#X obj -90 39 metro 100;
#X obj -45 205 * 10;
#X obj 48 34 inlet;
#X obj -90 12 inlet;
#X text 45 16 incoming value (lat/long);
#X obj -39 11 inlet;
#X text -34 -9 bpm;
#X obj -90 383 outlet~;
#X obj -46 263 osc~;
#N canvas 321 359 1195 589 asdr~ 0;
#X obj 6 36 inlet trig;
#X obj 215 331 line~;
#X obj 215 365 outlet~;
#X obj 103 83 t b;
#X obj 6 66 sel 0;
#X obj 103 190 f \$1;
#X obj 146 273 pack 0 \$2;
#X obj 215 157 f \$4;
#X obj 284 273 pack 0 \$5;
#X obj 215 273 pack 0 \$3;
#X obj 215 247 * \$1;
#X obj 215 182 * 0.01;
#X msg 6 103 stop;
#X text 4 122 If 0 \, stop;
#X text 4 136 attack and;
#X text 4 150 trigger release;
#X obj 215 120 del \$2;
#X text 311 23 Sustain %;
#X text 272 179 as % of attack;
#X obj 150 37 inlet;
#X obj 197 39 inlet;
#X obj 257 41 inlet;
#X obj 385 48 inlet;
#X text 148 17 Level;
#X text 148 7 Attack;
#X text 196 21 Speed;
#X text 196 11 Attack;
#X text 256 23 Speed;
#X text 256 13 Decay;
#X text 384 30 Speed;
#X text 384 20 Release;
#X text 62 200 level;
#X text 62 190 attack;
#X text 62 180 Store;
#X text 6 11 0 to release;
#X text 6 1 Send 1 to start attack \,;
#X text 272 165 Derive sustain level;
#X obj 312 41 inlet;
#X floatatom 150 59 5 0 0 0 - - -, f 5;
#X floatatom 197 61 5 0 0 0 - - -, f 5;
#X floatatom 257 63 5 0 0 0 - - -, f 5;
#X connect 0 0 4 0;
#X connect 1 0 2 0;
#X connect 3 0 5 0;
#X connect 3 0 16 0;
#X connect 4 0 8 0;
#X connect 4 0 12 0;
#X connect 4 1 3 0;
#X connect 5 0 6 0;
#X connect 6 0 1 0;
#X connect 7 0 11 0;
#X connect 8 0 1 0;
#X connect 9 0 1 0;
#X connect 10 0 9 0;
#X connect 11 0 10 0;
#X connect 12 0 16 0;
#X connect 16 0 7 0;
#X connect 19 0 5 1;
#X connect 19 0 10 1;
#X connect 19 0 38 0;
#X connect 20 0 6 1;
#X connect 20 0 16 1;
#X connect 20 0 39 0;
#X connect 21 0 9 1;
#X connect 21 0 40 0;
#X connect 22 0 8 1;
#X connect 37 0 7 0;
#X restore -92 121 pd asdr~ 0.75 0 100 0 0;
#X msg -41 87 0.75;
#X msg 39 84 0;
#X msg -1 87 100;
#X connect 0 0 12 0;
#X connect 1 0 14 0;
#X connect 2 0 3 0;
#X connect 3 0 6 0;
#X connect 4 0 13 0;
#X connect 5 0 1 0;
#X connect 5 0 2 0;
#X connect 5 0 15 0;
#X connect 5 0 17 0;
#X connect 5 0 16 0;
#X connect 6 0 4 0;
#X connect 7 0 3 0;
#X connect 8 0 5 0;
#X connect 10 0 5 1;
#X connect 13 0 0 1;
#X connect 14 0 0 0;
#X connect 15 0 14 1;
#X connect 16 0 14 2;
#X connect 16 0 14 4;
#X connect 16 0 14 5;
#X connect 17 0 14 3;
#X restore -662 -283 pd bing;
#N canvas 278 40 714 586 bing 0;
#X obj -90 297 *~;
#X msg -90 88 1;
#X obj -46 149 bng 15 250 50 0 empty empty empty 17 7 0 10 -262144
-1 -1;
#X floatatom -46 179 5 0 0 0 - - -, f 5;
#X obj -46 236 *~ 2;
#X obj -90 39 metro 100;
#X obj -45 205 * 10;
#X obj 48 34 inlet;
#X obj -90 12 inlet;
#X text 45 16 incoming value (lat/long);
#X obj -39 11 inlet;
#X text -34 -9 bpm;
#X obj -90 383 outlet~;
#X obj -46 263 osc~;
#N canvas 321 359 1195 589 asdr~ 0;
#X obj 6 36 inlet trig;
#X obj 215 331 line~;
#X obj 215 365 outlet~;
#X obj 103 83 t b;
#X obj 6 66 sel 0;
#X obj 103 190 f \$1;
#X obj 146 273 pack 0 \$2;
#X obj 215 157 f \$4;
#X obj 284 273 pack 0 \$5;
#X obj 215 273 pack 0 \$3;
#X obj 215 247 * \$1;
#X obj 215 182 * 0.01;
#X msg 6 103 stop;
#X text 4 122 If 0 \, stop;
#X text 4 136 attack and;
#X text 4 150 trigger release;
#X obj 215 120 del \$2;
#X text 311 23 Sustain %;
#X text 272 179 as % of attack;
#X obj 150 37 inlet;
#X obj 197 39 inlet;
#X obj 257 41 inlet;
#X obj 385 48 inlet;
#X text 148 17 Level;
#X text 148 7 Attack;
#X text 196 21 Speed;
#X text 196 11 Attack;
#X text 256 23 Speed;
#X text 256 13 Decay;
#X text 384 30 Speed;
#X text 384 20 Release;
#X text 62 200 level;
#X text 62 190 attack;
#X text 62 180 Store;
#X text 6 11 0 to release;
#X text 6 1 Send 1 to start attack \,;
#X text 272 165 Derive sustain level;
#X obj 312 41 inlet;
#X floatatom 150 59 5 0 0 0 - - -, f 5;
#X floatatom 197 61 5 0 0 0 - - -, f 5;
#X floatatom 257 63 5 0 0 0 - - -, f 5;
#X connect 0 0 4 0;
#X connect 1 0 2 0;
#X connect 3 0 5 0;
#X connect 3 0 16 0;
#X connect 4 0 8 0;
#X connect 4 0 12 0;
#X connect 4 1 3 0;
#X connect 5 0 6 0;
#X connect 6 0 1 0;
#X connect 7 0 11 0;
#X connect 8 0 1 0;
#X connect 9 0 1 0;
#X connect 10 0 9 0;
#X connect 11 0 10 0;
#X connect 12 0 16 0;
#X connect 16 0 7 0;
#X connect 19 0 5 1;
#X connect 19 0 10 1;
#X connect 19 0 38 0;
#X connect 20 0 6 1;
#X connect 20 0 16 1;
#X connect 20 0 39 0;
#X connect 21 0 9 1;
#X connect 21 0 40 0;
#X connect 22 0 8 1;
#X connect 37 0 7 0;
#X restore -92 121 pd asdr~ 0.75 0 100 0 0;
#X msg -41 87 0.75;
#X msg 39 84 0;
#X msg -1 87 100;
#X connect 0 0 12 0;
#X connect 1 0 14 0;
#X connect 2 0 3 0;
#X connect 3 0 6 0;
#X connect 4 0 13 0;
#X connect 5 0 1 0;
#X connect 5 0 2 0;
#X connect 5 0 15 0;
#X connect 5 0 17 0;
#X connect 5 0 16 0;
#X connect 6 0 4 0;
#X connect 7 0 3 0;
#X connect 8 0 5 0;
#X connect 10 0 5 1;
#X connect 13 0 0 1;
#X connect 14 0 0 0;
#X connect 15 0 14 1;
#X connect 16 0 14 2;
#X connect 16 0 14 4;
#X connect 16 0 14 5;
#X connect 17 0 14 3;
#X restore -466 -284 pd bing;
#X msg -1227 -463 1;
#X msg -610 -433 2;
#X msg -839 -431 2;
#X obj -1253 -598 s beats;
#X obj -1266 -517 r beats;
#X obj -872 -485 r beats;
#X obj -643 -485 r beats;
#X obj -448 -485 r beats;
#X connect 0 0 55 2;
#X connect 1 0 3 1;
#X connect 2 0 10 1;
#X connect 3 0 0 0;
#X connect 4 0 58 0;
#X connect 5 0 53 2;
#X connect 6 0 5 0;
#X connect 7 0 6 1;
#X connect 8 0 7 0;
#X connect 9 0 1 0;
#X connect 10 0 55 1;
#X connect 11 0 13 1;
#X connect 12 0 60 0;
#X connect 13 0 53 1;
#X connect 14 0 9 0;
#X connect 15 0 8 0;
#X connect 16 0 56 2;
#X connect 17 0 30 1;
#X connect 18 0 17 0;
#X connect 19 0 21 1;
#X connect 20 0 59 0;
#X connect 21 0 56 1;
#X connect 22 0 18 0;
#X connect 23 0 57 2;
#X connect 24 0 31 1;
#X connect 25 0 24 0;
#X connect 26 0 28 1;
#X connect 27 0 32 0;
#X connect 28 0 57 1;
#X connect 29 0 25 0;
#X connect 30 0 16 0;
#X connect 31 0 23 0;
#X connect 32 0 26 0;
#X connect 33 0 14 0;
#X connect 34 0 15 0;
#X connect 35 0 22 0;
#X connect 36 0 29 0;
#X connect 37 0 54 0;
#X connect 38 0 61 0;
#X connect 43 0 47 0;
#X connect 44 0 48 0;
#X connect 49 0 3 0;
#X connect 50 0 6 0;
#X connect 51 0 30 0;
#X connect 52 0 31 0;
#X connect 53 0 41 0;
#X connect 54 0 53 0;
#X connect 54 0 57 0;
#X connect 54 0 55 0;
#X connect 54 0 56 0;
#X connect 55 0 39 0;
#X connect 56 0 40 0;
#X connect 57 0 42 0;
#X connect 58 0 2 0;
#X connect 59 0 19 0;
#X connect 60 0 11 0;
#X connect 62 0 4 0;
#X connect 62 0 10 0;
#X connect 63 0 12 0;
#X connect 63 0 13 0;
#X connect 64 0 20 0;
#X connect 64 0 21 0;
#X connect 65 0 27 0;
#X connect 65 0 28 0;
#X restore -797 -127 pd rhythmsynthesizer;
#X obj -468 -218 r init;
#X obj -615 -219 r init;
#X obj -540 -220 r init;
#X obj -690 -222 r init;
#X obj -952 -1175 cnv 15 550 100 empty empty incoming_from_user_2 20
12 0 10 -262144 -66577 0;
#X obj -888 -1100 s lat2;
#X obj -788 -1099 s long2;
#X obj -687 -1099 s bpm2;
#X obj -764 -255 r lat2;
#X obj -715 -254 r long2;
#X obj -781 -283 r bpm2;
#X obj -1314 -452 throw~ lineoutr1.1;
#X obj -1271 -424 throw~ lineoutr2.2;
#X obj -1311 -724 throw~ lineoutlat.1;
#X obj -1322 -294 catch~ lineoutlat.1;
#X obj -1307 -246 catch~ lineoutlong.1;
#X obj -1289 -190 catch~ lineoutr1.1;
#X obj -1274 -139 catch~ lineoutr2.1;
#X obj -1259 -89 catch~ lineoutr3.1;
#X obj -1248 -38 catch~ lineoutr4.1;
#X obj -793 -371 throw~ lineoutlat.2;
#X obj -797 -98 throw~ lineoutr1.2;
#X obj -758 -70 throw~ lineoutr2.2;
#X obj -719 -43 throw~ lineoutr3.2;
#X obj -680 -16 throw~ lineoutr4.2;
#X obj -289 -371 throw~ lineoutlong.2;
#X obj -807 -725 throw~ lineoutlong.1;
#X obj -270 -648 r init;
#X obj -185 -647 r init;
#X obj -944 -820 r android1c2.4;
#X obj -944 -845 r android1c2.3;
#X obj -944 -868 r android1c2.2;
#X obj -944 -892 r android1c2.1;
#X obj -423 -892 r android1c3.1;
#X obj -423 -868 r android1c3.2;
#X obj -423 -845 r android1c3.3;
#X obj -423 -820 r android1c3.4;
#X obj -1273 -1133 r android1stepcounter;
#X obj -1294 -1228 r android1long;
#X obj -1296 -1317 r android1lat;
#X obj -888 -1150 r android2lat;
#X obj -788 -1150 r android2long;
#X obj -687 -1150 r android2stepcounter;
#N canvas 335 31 864 494 circlesynthesizer.2 0;
#X obj -865 -523 +~;
#X obj -865 -591 osc~ 220;
#X floatatom -866 -707 5 0 0 0 - - -, f 5;
#X obj -866 -688 mtof;
#X floatatom -866 -666 5 0 0 0 - - -, f 5;
#X obj -866 -647 -;
#X obj -866 -623 +~;
#X obj -781 -617 +;
#X obj -865 -569 -~ 0.5;
#X obj -865 -492 bp~ 440 0.5;
#X obj -781 -571 osc~ 221;
#X obj -563 -694 osc~;
#X obj -563 -749 nbx 5 14 0 30 0 0 empty empty modulator_freq 0 -8
0 10 -262144 -1 -1 0 256;
#X obj -563 -723 * 30;
#X obj -461 -736 * 30;
#X obj -781 -595 +~;
#N canvas 606 62 450 300 +int 0;
#X floatatom -131 -695 5 0 0 0 - - -, f 5;
#X obj -132 -834 moses 0;
#X obj -131 -765 float \$1;
#X floatatom -131 -739 9 0 0 0 - - -, f 9;
#X obj -64 -766 float \$1;
#X floatatom -64 -741 9 0 0 0 - - -, f 9;
#X obj -131 -718 * -1;
#X msg -121 -801 0, f 4;
#X msg -58 -801 0, f 4;
#X obj -131 -669 +;
#X msg -65 -718 bang;
#X obj -124 -865 inlet;
#X obj -131 -639 outlet;
#X connect 0 0 9 0;
#X connect 1 0 2 0;
#X connect 1 0 8 0;
#X connect 1 1 4 0;
#X connect 1 1 7 0;
#X connect 2 0 3 0;
#X connect 3 0 6 0;
#X connect 4 0 5 0;
#X connect 5 0 9 1;
#X connect 5 0 10 0;
#X connect 6 0 0 0;
#X connect 7 0 2 0;
#X connect 8 0 4 0;
#X connect 9 0 12 0;
#X connect 10 0 9 0;
#X connect 11 0 1 0;
#X restore -563 -786 pd +int;
#X obj -461 -760 nbx 5 14 0 30 0 0 empty empty modulator_freq 0 -8
0 10 -262144 -1 -1 0 256;
#X obj -746 -694 osc~;
#X obj -746 -749 nbx 5 14 0 30 0 0 empty empty modulator_freq 0 -8
0 10 -262144 -1 -1 0 256;
#X obj -746 -723 * 30;
#X obj -655 -726 * 30;
#N canvas 606 62 450 300 +int 0;
#X floatatom -131 -695 5 0 0 0 - - -, f 5;
#X obj -132 -834 moses 0;
#X obj -131 -765 float \$1;
#X floatatom -131 -739 9 0 0 0 - - -, f 9;
#X obj -64 -766 float \$1;
#X floatatom -64 -741 9 0 0 0 - - -, f 9;
#X obj -131 -718 * -1;
#X msg -121 -801 0, f 4;
#X msg -58 -801 0, f 4;
#X obj -131 -669 +;
#X msg -65 -718 bang;
#X obj -124 -865 inlet;
#X obj -131 -639 outlet;
#X connect 0 0 9 0;
#X connect 1 0 2 0;
#X connect 1 0 8 0;
#X connect 1 1 4 0;
#X connect 1 1 7 0;
#X connect 2 0 3 0;
#X connect 3 0 6 0;
#X connect 4 0 5 0;
#X connect 5 0 9 1;
#X connect 5 0 10 0;
#X connect 6 0 0 0;
#X connect 7 0 2 0;
#X connect 8 0 4 0;
#X connect 9 0 12 0;
#X connect 10 0 9 0;
#X connect 11 0 1 0;
#X restore -746 -786 pd +int;
#X obj -655 -751 nbx 5 14 0 30 0 0 empty empty modulator_freq 0 -8
0 10 -262144 -1 -1 0 256;
#N canvas 606 62 450 300 +int 0;
#X floatatom -131 -695 5 0 0 0 - - -, f 5;
#X obj -132 -834 moses 0;
#X obj -131 -765 float \$1;
#X floatatom -131 -739 9 0 0 0 - - -, f 9;
#X obj -64 -766 float \$1;
#X floatatom -64 -741 9 0 0 0 - - -, f 9;
#X obj -131 -718 * -1;
#X msg -121 -801 0, f 4;
#X msg -58 -801 0, f 4;
#X obj -131 -669 +;
#X msg -65 -718 bang;
#X obj -124 -865 inlet;
#X obj -131 -639 outlet;
#X connect 0 0 9 0;
#X connect 1 0 2 0;
#X connect 1 0 8 0;
#X connect 1 1 4 0;
#X connect 1 1 7 0;
#X connect 2 0 3 0;
#X connect 3 0 6 0;
#X connect 4 0 5 0;
#X connect 5 0 9 1;
#X connect 5 0 10 0;
#X connect 6 0 0 0;
#X connect 7 0 2 0;
#X connect 8 0 4 0;
#X connect 9 0 12 0;
#X connect 10 0 9 0;
#X connect 11 0 1 0;
#X restore -655 -786 pd +int;
#N canvas 606 62 450 300 +int 0;
#X floatatom -131 -695 5 0 0 0 - - -, f 5;
#X obj -132 -834 moses 0;
#X obj -131 -765 float \$1;
#X floatatom -131 -739 9 0 0 0 - - -, f 9;
#X obj -64 -766 float \$1;
#X floatatom -64 -741 9 0 0 0 - - -, f 9;
#X obj -131 -718 * -1;
#X msg -121 -801 0, f 4;
#X msg -58 -801 0, f 4;
#X obj -131 -669 +;
#X msg -65 -718 bang;
#X obj -124 -865 inlet;
#X obj -131 -639 outlet;
#X connect 0 0 9 0;
#X connect 1 0 2 0;
#X connect 1 0 8 0;
#X connect 1 1 4 0;
#X connect 1 1 7 0;
#X connect 2 0 3 0;
#X connect 3 0 6 0;
#X connect 4 0 5 0;
#X connect 5 0 9 1;
#X connect 5 0 10 0;
#X connect 6 0 0 0;
#X connect 7 0 2 0;
#X connect 8 0 4 0;
#X connect 9 0 12 0;
#X connect 10 0 9 0;
#X connect 11 0 1 0;
#X restore -461 -795 pd +int;
#X obj -866 -758 + 30;
#X obj -867 -733 + 30;
#X obj -847 -949 inlet;
#X obj -918 -911 inlet;
#X obj -655 -816 inlet;
#X obj -752 -949 inlet;
#X obj -463 -818 inlet;
#X obj -563 -816 inlet;
#X obj -746 -817 inlet;
#X text -927 -933 lat/long;
#X obj -845 -869 nbx 5 14 0 100 0 0 empty empty control_octave 0 -8
0 10 -262144 -1 -1 12 256;
#N canvas 606 62 450 300 +int 0;
#X floatatom -131 -695 5 0 0 0 - - -, f 5;
#X obj -132 -834 moses 0;
#X obj -131 -765 float \$1;
#X floatatom -131 -739 9 0 0 0 - - -, f 9;
#X obj -64 -766 float \$1;
#X floatatom -64 -741 9 0 0 0 - - -, f 9;
#X obj -131 -718 * -1;
#X msg -121 -801 0, f 4;
#X msg -58 -801 0, f 4;
#X obj -131 -669 +;
#X msg -65 -718 bang;
#X obj -124 -865 inlet;
#X obj -131 -639 outlet;
#X connect 0 0 9 0;
#X connect 1 0 2 0;
#X connect 1 0 8 0;
#X connect 1 1 4 0;
#X connect 1 1 7 0;
#X connect 2 0 3 0;
#X connect 3 0 6 0;
#X connect 4 0 5 0;
#X connect 5 0 9 1;
#X connect 5 0 10 0;
#X connect 6 0 0 0;
#X connect 7 0 2 0;
#X connect 8 0 4 0;
#X connect 9 0 12 0;
#X connect 10 0 9 0;
#X connect 11 0 1 0;
#X restore -847 -924 pd +int;
#X obj -749 -870 nbx 5 14 0 100 0 0 empty empty control_octave 0 -8
0 10 -262144 -1 -1 12 256;
#N canvas 606 62 450 300 +int 0;
#X floatatom -131 -695 5 0 0 0 - - -, f 5;
#X obj -132 -834 moses 0;
#X obj -131 -765 float \$1;
#X floatatom -131 -739 9 0 0 0 - - -, f 9;
#X obj -64 -766 float \$1;
#X floatatom -64 -741 9 0 0 0 - - -, f 9;
#X obj -131 -718 * -1;
#X msg -121 -801 0, f 4;
#X msg -58 -801 0, f 4;
#X obj -131 -669 +;
#X msg -65 -718 bang;
#X obj -124 -865 inlet;
#X obj -131 -639 outlet;
#X connect 0 0 9 0;
#X connect 1 0 2 0;
#X connect 1 0 8 0;
#X connect 1 1 4 0;
#X connect 1 1 7 0;
#X connect 2 0 3 0;
#X connect 3 0 6 0;
#X connect 4 0 5 0;
#X connect 5 0 9 1;
#X connect 5 0 10 0;
#X connect 6 0 0 0;
#X connect 7 0 2 0;
#X connect 8 0 4 0;
#X connect 9 0 12 0;
#X connect 10 0 9 0;
#X connect 11 0 1 0;
#X restore -751 -925 pd +int;
#X text -749 -838 circle pt 1;
#X text -568 -836 circle pt 2;
#X text -657 -837 circle pt 3;
#X text -468 -836 circle pt 4;
#X obj -865 -462 outlet~;
#X text -849 -967 control octave;
#X text -755 -965 control octave;
#X obj -746 -665 *~;
#X obj -563 -665 *~;
#X obj -781 -545 -~ 0.5;
#X obj -847 -902 + 12;
#X obj -751 -901 + 12;
#X connect 0 0 9 0;
#X connect 1 0 8 0;
#X connect 2 0 3 0;
#X connect 3 0 4 0;
#X connect 4 0 5 0;
#X connect 4 0 7 0;
#X connect 5 0 6 0;
#X connect 6 0 1 0;
#X connect 7 0 15 0;
#X connect 8 0 0 0;
#X connect 9 0 44 0;
#X connect 10 0 49 0;
#X connect 11 0 48 0;
#X connect 12 0 13 0;
#X connect 13 0 11 0;
#X connect 14 0 48 1;
#X connect 15 0 10 0;
#X connect 16 0 12 0;
#X connect 17 0 14 0;
#X connect 18 0 47 0;
#X connect 19 0 20 0;
#X connect 20 0 18 0;
#X connect 21 0 47 1;
#X connect 22 0 19 0;
#X connect 23 0 21 0;
#X connect 24 0 23 0;
#X connect 25 0 17 0;
#X connect 26 0 27 0;
#X connect 27 0 2 0;
#X connect 28 0 37 0;
#X connect 29 0 26 0;
#X connect 30 0 24 0;
#X connect 31 0 39 0;
#X connect 32 0 25 0;
#X connect 33 0 16 0;
#X connect 34 0 22 0;
#X connect 36 0 26 1;
#X connect 37 0 50 0;
#X connect 38 0 27 1;
#X connect 39 0 51 0;
#X connect 47 0 6 1;
#X connect 48 0 15 1;
#X connect 49 0 0 1;
#X connect 50 0 36 0;
#X connect 51 0 38 0;
#X restore -793 -393 pd circlesynthesizer.2;
#N canvas 322 31 992 626 rhythmsynthesizer.1 0;
#X floatatom -1207 -363 5 0 0 0 - - -, f 5;
#X obj -964 -411 nbx 5 14 0 100 0 0 empty empty control_octave 0 -8
0 10 -262144 -1 -1 0 256;
#X obj -1233 -438 vradio 15 1 0 4 empty empty empty 0 -8 0 10 -262144
-1 -1 0;
#X obj -1206 -386 + 39;
#X obj -1233 -487 bng 15 250 50 0 empty empty empty 17 7 0 10 -262144
-1 -1;
#X floatatom -809 -330 5 0 0 0 - - -, f 5;
#X obj -808 -353 + 39;
#X obj -787 -413 nbx 5 14 0 100 0 0 empty empty control_octave 0 -8
0 10 -262144 -1 -1 0 256;
#N canvas 358 22 704 610 bpm 0;
#X obj 95 261 t b f;
#X msg 95 289 60000;
#X obj 95 335 int;
#X floatatom 95 357 5 0 0 0 - - -, f 5;
#X obj 94 231 int;
#X obj 64 211 bng 15 250 50 0 empty empty empty 17 7 0 10 -262144 -1
-1;
#X obj 162 404 *;
#X obj 162 404;
#X obj 229 170 t b f;
#X obj 229 201 sel 0 1 2 3;
#X obj 95 311 /;
#X obj 97 180 inlet;
#X obj 228 145 inlet;
#X obj 160 451 outlet;
#X msg 229 229 1;
#X msg 255 263 2;
#X msg 282 292 4;
#X msg 315 296 8;
#X connect 0 0 1 0;
#X connect 0 1 10 1;
#X connect 1 0 10 0;
#X connect 2 0 3 0;
#X connect 3 0 6 0;
#X connect 3 0 7 0;
#X connect 4 0 0 0;
#X connect 5 0 4 0;
#X connect 6 0 13 0;
#X connect 8 0 4 0;
#X connect 8 1 9 0;
#X connect 9 0 14 0;
#X connect 9 1 15 0;
#X connect 9 2 16 0;
#X connect 9 3 17 0;
#X connect 10 0 2 0;
#X connect 11 0 4 1;
#X connect 11 0 5 0;
#X connect 12 0 8 0;
#X connect 14 0 6 1;
#X connect 15 0 6 1;
#X connect 16 0 6 1;
#X connect 17 0 6 1;
#X restore -1267 -351 pd bpm;
#X obj -839 -406 vradio 15 1 0 4 empty empty empty 0 -8 0 10 -262144
-1 -1 2;
#X obj -839 -455 bng 15 250 50 0 empty empty empty 17 7 0 10 -262144
-1 -1;
#N canvas 743 56 704 610 bpm 0;
#X obj 95 261 t b f;
#X msg 95 289 60000;
#X obj 95 335 int;
#X floatatom 95 357 5 0 0 0 - - -, f 5;
#X obj 94 231 int;
#X obj 64 211 bng 15 250 50 0 empty empty empty 17 7 0 10 -262144 -1
-1;
#X obj 162 404 *;
#X obj 162 404;
#X obj 229 170 t b f;
#X obj 229 201 sel 0 1 2 3;
#X obj 95 311 /;
#X obj 97 180 inlet;
#X obj 228 145 inlet;
#X obj 160 431 outlet;
#X msg 233 233 1;
#X msg 255 263 2;
#X msg 282 292 4;
#X msg 315 296 8;
#X connect 0 0 1 0;
#X connect 0 1 10 1;
#X connect 1 0 10 0;
#X connect 2 0 3 0;
#X connect 3 0 6 0;
#X connect 3 0 7 0;
#X connect 4 0 0 0;
#X connect 5 0 4 0;
#X connect 6 0 13 0;
#X connect 8 0 4 0;
#X connect 8 1 9 0;
#X connect 9 0 14 0;
#X connect 9 1 15 0;
#X connect 9 2 16 0;
#X connect 9 3 17 0;
#X connect 10 0 2 0;
#X connect 11 0 4 1;
#X connect 11 0 5 0;
#X connect 12 0 8 0;
#X connect 14 0 6 1;
#X connect 15 0 6 1;
#X connect 16 0 6 1;
#X connect 17 0 6 1;
#X restore -872 -334 pd bpm;
#N canvas 606 62 450 300 +int 0;
#X floatatom -131 -695 5 0 0 0 - - -, f 5;
#X obj -132 -834 moses 0;
#X obj -131 -765 float \$1;
#X floatatom -131 -739 9 0 0 0 - - -, f 9;
#X obj -64 -766 float \$1;
#X floatatom -64 -741 9 0 0 0 - - -, f 9;
#X obj -131 -718 * -1;
#X msg -121 -801 0, f 4;
#X msg -58 -801 0, f 4;
#X obj -131 -669 +;
#X msg -65 -718 bang;
#X obj -124 -865 inlet;
#X obj -131 -639 outlet;
#X connect 0 0 9 0;
#X connect 1 0 2 0;
#X connect 1 0 8 0;
#X connect 1 1 4 0;
#X connect 1 1 7 0;
#X connect 2 0 3 0;
#X connect 3 0 6 0;
#X connect 4 0 5 0;
#X connect 5 0 9 1;
#X connect 5 0 10 0;
#X connect 6 0 0 0;
#X connect 7 0 2 0;
#X connect 8 0 4 0;
#X connect 9 0 12 0;
#X connect 10 0 9 0;
#X connect 11 0 1 0;
#X restore -964 -475 pd +int;
#N canvas 606 62 450 300 +int 0;
#X floatatom -131 -695 5 0 0 0 - - -, f 5;
#X obj -132 -834 moses 0;
#X obj -131 -765 float \$1;
#X floatatom -131 -739 9 0 0 0 - - -, f 9;
#X obj -64 -766 float \$1;
#X floatatom -64 -741 9 0 0 0 - - -, f 9;
#X obj -131 -718 * -1;
#X msg -121 -801 0, f 4;
#X msg -58 -801 0, f 4;
#X obj -131 -669 +;
#X msg -65 -718 bang;
#X obj -124 -865 inlet;
#X obj -131 -639 outlet;
#X connect 0 0 9 0;
#X connect 1 0 2 0;
#X connect 1 0 8 0;
#X connect 1 1 4 0;
#X connect 1 1 7 0;
#X connect 2 0 3 0;
#X connect 3 0 6 0;
#X connect 4 0 5 0;
#X connect 5 0 9 1;
#X connect 5 0 10 0;
#X connect 6 0 0 0;
#X connect 7 0 2 0;
#X connect 8 0 4 0;
#X connect 9 0 12 0;
#X connect 10 0 9 0;
#X connect 11 0 1 0;
#X restore -787 -469 pd +int;
#X floatatom -580 -330 5 0 0 0 - - -, f 5;
#X obj -558 -413 nbx 5 14 0 100 0 0 empty empty control_octave 0 -8
0 10 -262144 -1 -1 0 256;
#X obj -610 -406 vradio 15 1 0 4 empty empty empty 0 -8 0 10 -262144
-1 -1 2;
#X obj -610 -455 bng 15 250 50 0 empty empty empty 17 7 0 10 -262144
-1 -1;
#N canvas 743 93 704 610 bpm 0;
#X obj 95 261 t b f;
#X msg 95 289 60000;
#X obj 95 335 int;
#X floatatom 95 357 5 0 0 0 - - -, f 5;
#X obj 94 231 int;
#X obj 64 211 bng 15 250 50 0 empty empty empty 17 7 0 10 -262144 -1
-1;
#X obj 162 404 *;
#X obj 162 404;
#X obj 229 170 t b f;
#X obj 229 201 sel 0 1 2 3;
#X obj 95 311 /;
#X obj 97 180 inlet;
#X obj 228 145 inlet;
#X obj 160 431 outlet;
#X msg 233 233 1;
#X msg 255 263 2;
#X msg 282 292 4;
#X msg 315 296 8;
#X connect 0 0 1 0;
#X connect 0 1 10 1;
#X connect 1 0 10 0;
#X connect 2 0 3 0;
#X connect 3 0 6 0;
#X connect 3 0 7 0;
#X connect 4 0 0 0;
#X connect 5 0 4 0;
#X connect 6 0 13 0;
#X connect 8 0 4 0;
#X connect 8 1 9 0;
#X connect 9 0 14 0;
#X connect 9 1 15 0;
#X connect 9 2 16 0;
#X connect 9 3 17 0;
#X connect 10 0 2 0;
#X connect 11 0 4 1;
#X connect 11 0 5 0;
#X connect 12 0 8 0;
#X connect 14 0 6 1;
#X connect 15 0 6 1;
#X connect 16 0 6 1;
#X connect 17 0 6 1;
#X restore -643 -334 pd bpm;
#N canvas 874 57 450 300 +int 0;
#X floatatom -131 -695 5 0 0 0 - - -, f 5;
#X obj -132 -834 moses 0;
#X obj -131 -765 float \$1;
#X floatatom -131 -739 9 0 0 0 - - -, f 9;
#X obj -64 -766 float \$1;
#X floatatom -64 -741 9 0 0 0 - - -, f 9;
#X obj -131 -718 * -1;
#X msg -121 -801 0, f 4;
#X msg -58 -801 0, f 4;
#X obj -131 -669 +;
#X msg -65 -718 bang;
#X obj -124 -865 inlet;
#X obj -131 -639 outlet;
#X connect 0 0 9 0;
#X connect 1 0 2 0;
#X connect 1 0 8 0;
#X connect 1 1 4 0;
#X connect 1 1 7 0;
#X connect 2 0 3 0;
#X connect 3 0 6 0;
#X connect 4 0 5 0;
#X connect 5 0 9 1;
#X connect 5 0 10 0;
#X connect 6 0 0 0;
#X connect 7 0 2 0;
#X connect 8 0 4 0;
#X connect 9 0 12 0;
#X connect 10 0 9 0;
#X connect 11 0 1 0;
#X restore -558 -469 pd +int;
#X floatatom -385 -328 5 0 0 0 - - -, f 5;
#X obj -363 -413 nbx 5 14 0 100 0 0 empty empty control_octave 0 -8
0 10 -262144 -1 -1 0 256;
#X obj -415 -406 vradio 15 1 0 4 empty empty empty 0 -8 0 10 -262144
-1 -1 2;
#X obj -415 -455 bng 15 250 50 0 empty empty empty 17 7 0 10 -262144
-1 -1;
#N canvas 690 41 704 610 bpm 0;
#X obj 95 261 t b f;
#X msg 95 289 60000;
#X obj 95 335 int;
#X floatatom 95 357 5 0 0 0 - - -, f 5;
#X obj 94 231 int;
#X obj 64 211 bng 15 250 50 0 empty empty empty 17 7 0 10 -262144 -1
-1;
#X obj 162 404 *;
#X obj 162 404;
#X obj 229 170 t b f;
#X obj 229 201 sel 0 1 2 3;
#X obj 95 311 /;
#X obj 97 180 inlet;
#X obj 228 145 inlet;
#X obj 160 431 outlet;
#X msg 233 233 1;
#X msg 255 263 2;
#X msg 282 292 4;
#X msg 315 296 8;
#X connect 0 0 1 0;
#X connect 0 1 10 1;
#X connect 1 0 10 0;
#X connect 2 0 3 0;
#X connect 3 0 6 0;
#X connect 3 0 7 0;
#X connect 4 0 0 0;
#X connect 5 0 4 0;
#X connect 6 0 13 0;
#X connect 8 0 4 0;
#X connect 8 1 9 0;
#X connect 9 0 14 0;
#X connect 9 1 15 0;
#X connect 9 2 16 0;
#X connect 9 3 17 0;
#X connect 10 0 2 0;
#X connect 11 0 4 1;
#X connect 11 0 5 0;
#X connect 12 0 8 0;
#X connect 14 0 6 1;
#X connect 15 0 6 1;
#X connect 16 0 6 1;
#X connect 17 0 6 1;
#X restore -448 -334 pd bpm;
#N canvas 606 62 450 300 +int 0;
#X floatatom -131 -695 5 0 0 0 - - -, f 5;
#X obj -132 -834 moses 0;
#X obj -131 -765 float \$1;
#X floatatom -131 -739 9 0 0 0 - - -, f 9;
#X obj -64 -766 float \$1;
#X floatatom -64 -741 9 0 0 0 - - -, f 9;
#X obj -131 -718 * -1;
#X msg -121 -801 0, f 4;
#X msg -58 -801 0, f 4;
#X obj -131 -669 +;
#X msg -65 -718 bang;
#X obj -124 -865 inlet;
#X obj -131 -639 outlet;
#X connect 0 0 9 0;
#X connect 1 0 2 0;
#X connect 1 0 8 0;
#X connect 1 1 4 0;
#X connect 1 1 7 0;
#X connect 2 0 3 0;
#X connect 3 0 6 0;
#X connect 4 0 5 0;
#X connect 5 0 9 1;
#X connect 5 0 10 0;
#X connect 6 0 0 0;
#X connect 7 0 2 0;
#X connect 8 0 4 0;
#X connect 9 0 12 0;
#X connect 10 0 9 0;
#X connect 11 0 1 0;
#X restore -363 -469 pd +int;
#X obj -579 -353 + 39;
#X obj -384 -353 + 39;
#X msg -1227 -463 0;
#X obj -964 -509 inlet;
#X obj -787 -498 inlet;
#X obj -558 -498 inlet;
#X obj -363 -496 inlet;
#X obj -1285 -642 inlet;
#X obj -1239 -641 inlet;
#X obj -1286 -280 outlet~;
#X obj -1182 -612 inlet;
#X obj -1122 -614 inlet;
#X text -1177 -633 lat;
#X text -1122 -631 long;
#X obj -1182 -590 s rlat;
#X obj -1122 -592 s rlong;
#X obj -1206 -413 r rlat;
#X obj -809 -387 r rlong;
#X obj -579 -380 r rlat;
#X obj -384 -379 r rlong;
#N canvas 960 173 714 586 bing 0;
#X obj -90 297 *~;
#X msg -90 88 1;
#X obj -46 149 bng 15 250 50 0 empty empty empty 17 7 0 10 -262144
-1 -1;
#X floatatom -46 179 5 0 0 0 - - -, f 5;
#X obj -46 236 *~ 2;
#X obj -90 39 metro 100;
#X obj -45 205 * 10;
#X obj 48 34 inlet;
#X obj -90 12 inlet;
#X text 45 16 incoming value (lat/long);
#X obj -39 11 inlet;
#X text -34 -9 bpm;
#X obj -90 383 outlet~;
#X obj -46 263 osc~;
#N canvas 321 359 1195 589 asdr~ 0;
#X obj 6 36 inlet trig;
#X obj 215 331 line~;
#X obj 215 365 outlet~;
#X obj 103 83 t b;
#X obj 6 66 sel 0;
#X obj 103 190 f \$1;
#X obj 146 273 pack 0 \$2;
#X obj 215 157 f \$4;
#X obj 284 273 pack 0 \$5;
#X obj 215 273 pack 0 \$3;
#X obj 215 247 * \$1;
#X obj 215 182 * 0.01;
#X msg 6 103 stop;
#X text 4 122 If 0 \, stop;
#X text 4 136 attack and;
#X text 4 150 trigger release;
#X obj 215 120 del \$2;
#X text 311 23 Sustain %;
#X text 272 179 as % of attack;
#X obj 150 37 inlet;
#X obj 197 39 inlet;
#X obj 257 41 inlet;
#X obj 385 48 inlet;
#X text 148 17 Level;
#X text 148 7 Attack;
#X text 196 21 Speed;
#X text 196 11 Attack;
#X text 256 23 Speed;
#X text 256 13 Decay;
#X text 384 30 Speed;
#X text 384 20 Release;
#X text 62 200 level;
#X text 62 190 attack;
#X text 62 180 Store;
#X text 6 11 0 to release;
#X text 6 1 Send 1 to start attack \,;
#X text 272 165 Derive sustain level;
#X obj 312 41 inlet;
#X floatatom 150 59 5 0 0 0 - - -, f 5;
#X floatatom 197 61 5 0 0 0 - - -, f 5;
#X floatatom 257 63 5 0 0 0 - - -, f 5;
#X connect 0 0 4 0;
#X connect 1 0 2 0;
#X connect 3 0 5 0;
#X connect 3 0 16 0;
#X connect 4 0 8 0;
#X connect 4 0 12 0;
#X connect 4 1 3 0;
#X connect 5 0 6 0;
#X connect 6 0 1 0;
#X connect 7 0 11 0;
#X connect 8 0 1 0;
#X connect 9 0 1 0;
#X connect 10 0 9 0;
#X connect 11 0 10 0;
#X connect 12 0 16 0;
#X connect 16 0 7 0;
#X connect 19 0 5 1;
#X connect 19 0 10 1;
#X connect 19 0 38 0;
#X connect 20 0 6 1;
#X connect 20 0 16 1;
#X connect 20 0 39 0;
#X connect 21 0 9 1;
#X connect 21 0 40 0;
#X connect 22 0 8 1;
#X connect 37 0 7 0;
#X restore -92 121 pd asdr~ 0.75 0 100 0 0;
#X msg -41 87 0.75;
#X msg 39 84 0;
#X msg -1 87 100;
#X connect 0 0 12 0;
#X connect 1 0 14 0;
#X connect 2 0 3 0;
#X connect 3 0 6 0;
#X connect 4 0 13 0;
#X connect 5 0 1 0;
#X connect 5 0 2 0;
#X connect 5 0 15 0;
#X connect 5 0 17 0;
#X connect 5 0 16 0;
#X connect 6 0 4 0;
#X connect 7 0 3 0;
#X connect 8 0 5 0;
#X connect 10 0 5 1;
#X connect 13 0 0 1;
#X connect 14 0 0 0;
#X connect 15 0 14 1;
#X connect 16 0 14 2;
#X connect 16 0 14 4;
#X connect 16 0 14 5;
#X connect 17 0 14 3;
#X restore -891 -292 pd bing;
#X msg -1285 -620 1;
#N canvas 412 39 714 586 bing 0;
#X obj -90 297 *~;
#X msg -90 88 1;
#X obj -46 149 bng 15 250 50 0 empty empty empty 17 7 0 10 -262144
-1 -1;
#X floatatom -46 179 5 0 0 0 - - -, f 5;
#X obj -46 236 *~ 2;
#X obj -90 39 metro 100;
#X obj -45 205 * 10;
#X obj 48 34 inlet;
#X obj -90 12 inlet;
#X text 45 16 incoming value (lat/long);
#X obj -39 11 inlet;
#X text -34 -9 bpm;
#X obj -90 383 outlet~;
#X obj -46 263 osc~;
#N canvas 321 359 1195 589 asdr~ 0;
#X obj 6 36 inlet trig;
#X obj 215 331 line~;
#X obj 215 365 outlet~;
#X obj 103 83 t b;
#X obj 6 66 sel 0;
#X obj 103 190 f \$1;
#X obj 146 273 pack 0 \$2;
#X obj 215 157 f \$4;
#X obj 284 273 pack 0 \$5;
#X obj 215 273 pack 0 \$3;
#X obj 215 247 * \$1;
#X obj 215 182 * 0.01;
#X msg 6 103 stop;
#X text 4 122 If 0 \, stop;
#X text 4 136 attack and;
#X text 4 150 trigger release;
#X obj 215 120 del \$2;
#X text 311 23 Sustain %;
#X text 272 179 as % of attack;
#X obj 150 37 inlet;
#X obj 197 39 inlet;
#X obj 257 41 inlet;
#X obj 385 48 inlet;
#X text 148 17 Level;
#X text 148 7 Attack;
#X text 196 21 Speed;
#X text 196 11 Attack;
#X text 256 23 Speed;
#X text 256 13 Decay;
#X text 384 30 Speed;
#X text 384 20 Release;
#X text 62 200 level;
#X text 62 190 attack;
#X text 62 180 Store;
#X text 6 11 0 to release;
#X text 6 1 Send 1 to start attack \,;
#X text 272 165 Derive sustain level;
#X obj 312 41 inlet;
#X floatatom 150 59 5 0 0 0 - - -, f 5;
#X floatatom 197 61 5 0 0 0 - - -, f 5;
#X floatatom 257 63 5 0 0 0 - - -, f 5;
#X connect 0 0 4 0;
#X connect 1 0 2 0;
#X connect 3 0 5 0;
#X connect 3 0 16 0;
#X connect 4 0 8 0;
#X connect 4 0 12 0;
#X connect 4 1 3 0;
#X connect 5 0 6 0;
#X connect 6 0 1 0;
#X connect 7 0 11 0;
#X connect 8 0 1 0;
#X connect 9 0 1 0;
#X connect 10 0 9 0;
#X connect 11 0 10 0;
#X connect 12 0 16 0;
#X connect 16 0 7 0;
#X connect 19 0 5 1;
#X connect 19 0 10 1;
#X connect 19 0 38 0;
#X connect 20 0 6 1;
#X connect 20 0 16 1;
#X connect 20 0 39 0;
#X connect 21 0 9 1;
#X connect 21 0 40 0;
#X connect 22 0 8 1;
#X connect 37 0 7 0;
#X restore -92 121 pd asdr~ 0.75 0 100 0 0;
#X msg -41 87 0.75;
#X msg 39 84 0;
#X msg -1 87 100;
#X connect 0 0 12 0;
#X connect 1 0 14 0;
#X connect 2 0 3 0;
#X connect 3 0 6 0;
#X connect 4 0 13 0;
#X connect 5 0 1 0;
#X connect 5 0 2 0;
#X connect 5 0 15 0;
#X connect 5 0 17 0;
#X connect 5 0 16 0;
#X connect 6 0 4 0;
#X connect 7 0 3 0;
#X connect 8 0 5 0;
#X connect 10 0 5 1;
#X connect 13 0 0 1;
#X connect 14 0 0 0;
#X connect 15 0 14 1;
#X connect 16 0 14 2;
#X connect 16 0 14 4;
#X connect 16 0 14 5;
#X connect 17 0 14 3;
#X restore -1286 -313 pd bing;
#N canvas 278 40 714 586 bing 0;
#X obj -90 297 *~;
#X msg -90 88 1;
#X obj -46 149 bng 15 250 50 0 empty empty empty 17 7 0 10 -262144
-1 -1;
#X floatatom -46 179 5 0 0 0 - - -, f 5;
#X obj -46 236 *~ 2;
#X obj -90 39 metro 100;
#X obj -45 205 * 10;
#X obj 48 34 inlet;
#X obj -90 12 inlet;
#X text 45 16 incoming value (lat/long);
#X obj -39 11 inlet;
#X text -34 -9 bpm;
#X obj -90 383 outlet~;
#X obj -46 263 osc~;
#N canvas 321 359 1195 589 asdr~ 0;
#X obj 6 36 inlet trig;
#X obj 215 331 line~;
#X obj 215 365 outlet~;
#X obj 103 83 t b;
#X obj 6 66 sel 0;
#X obj 103 190 f \$1;
#X obj 146 273 pack 0 \$2;
#X obj 215 157 f \$4;
#X obj 284 273 pack 0 \$5;
#X obj 215 273 pack 0 \$3;
#X obj 215 247 * \$1;
#X obj 215 182 * 0.01;
#X msg 6 103 stop;
#X text 4 122 If 0 \, stop;
#X text 4 136 attack and;
#X text 4 150 trigger release;
#X obj 215 120 del \$2;
#X text 311 23 Sustain %;
#X text 272 179 as % of attack;
#X obj 150 37 inlet;
#X obj 197 39 inlet;
#X obj 257 41 inlet;
#X obj 385 48 inlet;
#X text 148 17 Level;
#X text 148 7 Attack;
#X text 196 21 Speed;
#X text 196 11 Attack;
#X text 256 23 Speed;
#X text 256 13 Decay;
#X text 384 30 Speed;
#X text 384 20 Release;
#X text 62 200 level;
#X text 62 190 attack;
#X text 62 180 Store;
#X text 6 11 0 to release;
#X text 6 1 Send 1 to start attack \,;
#X text 272 165 Derive sustain level;
#X obj 312 41 inlet;
#X floatatom 150 59 5 0 0 0 - - -, f 5;
#X floatatom 197 61 5 0 0 0 - - -, f 5;
#X floatatom 257 63 5 0 0 0 - - -, f 5;
#X connect 0 0 4 0;
#X connect 1 0 2 0;
#X connect 3 0 5 0;
#X connect 3 0 16 0;
#X connect 4 0 8 0;
#X connect 4 0 12 0;
#X connect 4 1 3 0;
#X connect 5 0 6 0;
#X connect 6 0 1 0;
#X connect 7 0 11 0;
#X connect 8 0 1 0;
#X connect 9 0 1 0;
#X connect 10 0 9 0;
#X connect 11 0 10 0;
#X connect 12 0 16 0;
#X connect 16 0 7 0;
#X connect 19 0 5 1;
#X connect 19 0 10 1;
#X connect 19 0 38 0;
#X connect 20 0 6 1;
#X connect 20 0 16 1;
#X connect 20 0 39 0;
#X connect 21 0 9 1;
#X connect 21 0 40 0;
#X connect 22 0 8 1;
#X connect 37 0 7 0;
#X restore -92 121 pd asdr~ 0.75 0 100 0 0;
#X msg -41 87 0.75;
#X msg 39 84 0;
#X msg -1 87 100;
#X connect 0 0 12 0;
#X connect 1 0 14 0;
#X connect 2 0 3 0;
#X connect 3 0 6 0;
#X connect 4 0 13 0;
#X connect 5 0 1 0;
#X connect 5 0 2 0;
#X connect 5 0 15 0;
#X connect 5 0 17 0;
#X connect 5 0 16 0;
#X connect 6 0 4 0;
#X connect 7 0 3 0;
#X connect 8 0 5 0;
#X connect 10 0 5 1;
#X connect 13 0 0 1;
#X connect 14 0 0 0;
#X connect 15 0 14 1;
#X connect 16 0 14 2;
#X connect 16 0 14 4;
#X connect 16 0 14 5;
#X connect 17 0 14 3;
#X restore -661 -274 pd bing;
#N canvas 601 56 714 586 bing 0;
#X obj -90 297 *~;
#X msg -90 88 1;
#X obj -46 149 bng 15 250 50 0 empty empty empty 17 7 0 10 -262144
-1 -1;
#X floatatom -46 179 5 0 0 0 - - -, f 5;
#X obj -46 236 *~ 2;
#X obj -90 39 metro 100;
#X obj -45 205 * 10;
#X obj 48 34 inlet;
#X obj -90 12 inlet;
#X text 45 16 incoming value (lat/long);
#X obj -39 11 inlet;
#X text -34 -9 bpm;
#X obj -90 383 outlet~;
#X obj -46 263 osc~;
#N canvas 321 359 1195 589 asdr~ 0;
#X obj 6 36 inlet trig;
#X obj 215 331 line~;
#X obj 215 365 outlet~;
#X obj 103 83 t b;
#X obj 6 66 sel 0;
#X obj 103 190 f \$1;
#X obj 146 273 pack 0 \$2;
#X obj 215 157 f \$4;
#X obj 284 273 pack 0 \$5;
#X obj 215 273 pack 0 \$3;
#X obj 215 247 * \$1;
#X obj 215 182 * 0.01;
#X msg 6 103 stop;
#X text 4 122 If 0 \, stop;
#X text 4 136 attack and;
#X text 4 150 trigger release;
#X obj 215 120 del \$2;
#X text 311 23 Sustain %;
#X text 272 179 as % of attack;
#X obj 150 37 inlet;
#X obj 197 39 inlet;
#X obj 257 41 inlet;
#X obj 385 48 inlet;
#X text 148 17 Level;
#X text 148 7 Attack;
#X text 196 21 Speed;
#X text 196 11 Attack;
#X text 256 23 Speed;
#X text 256 13 Decay;
#X text 384 30 Speed;
#X text 384 20 Release;
#X text 62 200 level;
#X text 62 190 attack;
#X text 62 180 Store;
#X text 6 11 0 to release;
#X text 6 1 Send 1 to start attack \,;
#X text 272 165 Derive sustain level;
#X obj 312 41 inlet;
#X floatatom 150 59 5 0 0 0 - - -, f 5;
#X floatatom 197 61 5 0 0 0 - - -, f 5;
#X floatatom 257 63 5 0 0 0 - - -, f 5;
#X connect 0 0 4 0;
#X connect 1 0 2 0;
#X connect 3 0 5 0;
#X connect 3 0 16 0;
#X connect 4 0 8 0;
#X connect 4 0 12 0;
#X connect 4 1 3 0;
#X connect 5 0 6 0;
#X connect 6 0 1 0;
#X connect 7 0 11 0;
#X connect 8 0 1 0;
#X connect 9 0 1 0;
#X connect 10 0 9 0;
#X connect 11 0 10 0;
#X connect 12 0 16 0;
#X connect 16 0 7 0;
#X connect 19 0 5 1;
#X connect 19 0 10 1;
#X connect 19 0 38 0;
#X connect 20 0 6 1;
#X connect 20 0 16 1;
#X connect 20 0 39 0;
#X connect 21 0 9 1;
#X connect 21 0 40 0;
#X connect 22 0 8 1;
#X connect 37 0 7 0;
#X restore -92 121 pd asdr~ 0.75 0 100 0 0;
#X msg -41 87 0.75;
#X msg 39 84 0;
#X msg -1 87 100;
#X connect 0 0 12 0;
#X connect 1 0 14 0;
#X connect 2 0 3 0;
#X connect 3 0 6 0;
#X connect 4 0 13 0;
#X connect 5 0 1 0;
#X connect 5 0 2 0;
#X connect 5 0 15 0;
#X connect 5 0 17 0;
#X connect 5 0 16 0;
#X connect 6 0 4 0;
#X connect 7 0 3 0;
#X connect 8 0 5 0;
#X connect 10 0 5 1;
#X connect 13 0 0 1;
#X connect 14 0 0 0;
#X connect 15 0 14 1;
#X connect 16 0 14 2;
#X connect 16 0 14 4;
#X connect 16 0 14 5;
#X connect 17 0 14 3;
#X restore -466 -284 pd bing;
#X obj -891 -220 outlet~;
#X obj -662 -212 outlet~;
#X obj -466 -218 outlet~;
#X obj -1239 -610 s beats;
#X obj -1266 -517 r beats;
#X obj -872 -485 r beats;
#X obj -643 -485 r beats;
#X obj -448 -485 r beats;
#X text -817 -429;
#X msg -611 -433 2;
#X floatatom -872 -312 5 0 0 0 - - -, f 5;
#X floatatom -1267 -329 5 0 0 0 - - -, f 5;
#X floatatom -643 -312 5 0 0 0 - - -, f 5;
#X floatatom -448 -312 5 0 0 0 - - -, f 5;
#X obj -964 -453 * 2;
#X obj -788 -445 * 2;
#X obj -558 -447 * 2;
#X obj -363 -447 * 2;
#X msg -415 -431 2;
#X msg -839 -431 2;
#X connect 0 0 48 2;
#X connect 1 0 3 1;
#X connect 2 0 8 1;
#X connect 3 0 0 0;
#X connect 4 0 28 0;
#X connect 5 0 46 2;
#X connect 6 0 5 0;
#X connect 7 0 6 1;
#X connect 8 0 48 1;
#X connect 8 0 62 0;
#X connect 9 0 11 1;
#X connect 10 0 70 0;
#X connect 11 0 46 1;
#X connect 11 0 61 0;
#X connect 12 0 65 0;
#X connect 13 0 66 0;
#X connect 14 0 49 2;
#X connect 15 0 26 1;
#X connect 16 0 18 1;
#X connect 17 0 60 0;
#X connect 18 0 49 1;
#X connect 18 0 63 0;
#X connect 19 0 67 0;
#X connect 20 0 50 2;
#X connect 21 0 27 1;
#X connect 22 0 24 1;
#X connect 23 0 69 0;
#X connect 24 0 50 1;
#X connect 24 0 64 0;
#X connect 25 0 68 0;
#X connect 26 0 14 0;
#X connect 27 0 20 0;
#X connect 28 0 2 0;
#X connect 29 0 12 0;
#X connect 30 0 13 0;
#X connect 31 0 19 0;
#X connect 32 0 25 0;
#X connect 33 0 47 0;
#X connect 34 0 54 0;
#X connect 36 0 40 0;
#X connect 37 0 41 0;
#X connect 42 0 3 0;
#X connect 43 0 6 0;
#X connect 44 0 26 0;
#X connect 45 0 27 0;
#X connect 46 0 51 0;
#X connect 47 0 46 0;
#X connect 47 0 50 0;
#X connect 47 0 48 0;
#X connect 47 0 49 0;
#X connect 48 0 35 0;
#X connect 49 0 52 0;
#X connect 50 0 53 0;
#X connect 55 0 4 0;
#X connect 55 0 8 0;
#X connect 56 0 10 0;
#X connect 56 0 11 0;
#X connect 57 0 17 0;
#X connect 57 0 18 0;
#X connect 58 0 23 0;
#X connect 58 0 24 0;
#X connect 60 0 16 0;
#X connect 65 0 1 0;
#X connect 66 0 7 0;
#X connect 67 0 15 0;
#X connect 68 0 21 0;
#X connect 69 0 22 0;
#X connect 70 0 9 0;
#X restore -1314 -478 pd rhythmsynthesizer.1;
#N canvas 792 53 864 494 circlesynthesizer.1 0;
#X obj -865 -523 +~;
#X obj -865 -591 osc~ 220;
#X floatatom -866 -707 5 0 0 0 - - -, f 5;
#X obj -866 -688 mtof;
#X floatatom -866 -666 5 0 0 0 - - -, f 5;
#X obj -866 -647 -;
#X obj -866 -623 +~;
#X obj -781 -617 +;
#X obj -865 -569 -~ 0.5;
#X obj -865 -492 bp~ 440 0.5;
#X obj -781 -571 osc~ 221;
#X obj -563 -694 osc~;
#X obj -563 -749 nbx 5 14 0 30 0 0 empty empty modulator_freq 0 -8
0 10 -262144 -1 -1 0 256;
#X obj -563 -723 * 30;
#X obj -461 -736 * 30;
#X obj -781 -595 +~;
#N canvas 606 62 450 300 +int 0;
#X floatatom -131 -695 5 0 0 0 - - -, f 5;
#X obj -132 -834 moses 0;
#X obj -131 -765 float \$1;
#X floatatom -131 -739 9 0 0 0 - - -, f 9;
#X obj -64 -766 float \$1;
#X floatatom -64 -741 9 0 0 0 - - -, f 9;
#X obj -131 -718 * -1;
#X msg -121 -801 0, f 4;
#X msg -58 -801 0, f 4;
#X obj -131 -669 +;
#X msg -65 -718 bang;
#X obj -124 -865 inlet;
#X obj -131 -639 outlet;
#X connect 0 0 9 0;
#X connect 1 0 2 0;
#X connect 1 0 8 0;
#X connect 1 1 4 0;
#X connect 1 1 7 0;
#X connect 2 0 3 0;
#X connect 3 0 6 0;
#X connect 4 0 5 0;
#X connect 5 0 9 1;
#X connect 5 0 10 0;
#X connect 6 0 0 0;
#X connect 7 0 2 0;
#X connect 8 0 4 0;
#X connect 9 0 12 0;
#X connect 10 0 9 0;
#X connect 11 0 1 0;
#X restore -563 -786 pd +int;
#X obj -461 -760 nbx 5 14 0 30 0 0 empty empty modulator_freq 0 -8
0 10 -262144 -1 -1 0 256;
#X obj -746 -694 osc~;
#X obj -746 -749 nbx 5 14 0 30 0 0 empty empty modulator_freq 0 -8
0 10 -262144 -1 -1 0 256;
#X obj -746 -723 * 30;
#X obj -655 -726 * 30;
#N canvas 606 62 450 300 +int 0;
#X floatatom -131 -695 5 0 0 0 - - -, f 5;
#X obj -132 -834 moses 0;
#X obj -131 -765 float \$1;
#X floatatom -131 -739 9 0 0 0 - - -, f 9;
#X obj -64 -766 float \$1;
#X floatatom -64 -741 9 0 0 0 - - -, f 9;
#X obj -131 -718 * -1;
#X msg -121 -801 0, f 4;
#X msg -58 -801 0, f 4;
#X obj -131 -669 +;
#X msg -65 -718 bang;
#X obj -124 -865 inlet;
#X obj -131 -639 outlet;
#X connect 0 0 9 0;
#X connect 1 0 2 0;
#X connect 1 0 8 0;
#X connect 1 1 4 0;
#X connect 1 1 7 0;
#X connect 2 0 3 0;
#X connect 3 0 6 0;
#X connect 4 0 5 0;
#X connect 5 0 9 1;
#X connect 5 0 10 0;
#X connect 6 0 0 0;
#X connect 7 0 2 0;
#X connect 8 0 4 0;
#X connect 9 0 12 0;
#X connect 10 0 9 0;
#X connect 11 0 1 0;
#X restore -746 -786 pd +int;
#X obj -655 -751 nbx 5 14 0 30 0 0 empty empty modulator_freq 0 -8
0 10 -262144 -1 -1 0 256;
#N canvas 606 62 450 300 +int 0;
#X floatatom -131 -695 5 0 0 0 - - -, f 5;
#X obj -132 -834 moses 0;
#X obj -131 -765 float \$1;
#X floatatom -131 -739 9 0 0 0 - - -, f 9;
#X obj -64 -766 float \$1;
#X floatatom -64 -741 9 0 0 0 - - -, f 9;
#X obj -131 -718 * -1;
#X msg -121 -801 0, f 4;
#X msg -58 -801 0, f 4;
#X obj -131 -669 +;
#X msg -65 -718 bang;
#X obj -124 -865 inlet;
#X obj -131 -639 outlet;
#X connect 0 0 9 0;
#X connect 1 0 2 0;
#X connect 1 0 8 0;
#X connect 1 1 4 0;
#X connect 1 1 7 0;
#X connect 2 0 3 0;
#X connect 3 0 6 0;
#X connect 4 0 5 0;
#X connect 5 0 9 1;
#X connect 5 0 10 0;
#X connect 6 0 0 0;
#X connect 7 0 2 0;
#X connect 8 0 4 0;
#X connect 9 0 12 0;
#X connect 10 0 9 0;
#X connect 11 0 1 0;
#X restore -655 -786 pd +int;
#N canvas 606 62 450 300 +int 0;
#X floatatom -131 -695 5 0 0 0 - - -, f 5;
#X obj -132 -834 moses 0;
#X obj -131 -765 float \$1;
#X floatatom -131 -739 9 0 0 0 - - -, f 9;
#X obj -64 -766 float \$1;
#X floatatom -64 -741 9 0 0 0 - - -, f 9;
#X obj -131 -718 * -1;
#X msg -121 -801 0, f 4;
#X msg -58 -801 0, f 4;
#X obj -131 -669 +;
#X msg -65 -718 bang;
#X obj -124 -865 inlet;
#X obj -131 -639 outlet;
#X connect 0 0 9 0;
#X connect 1 0 2 0;
#X connect 1 0 8 0;
#X connect 1 1 4 0;
#X connect 1 1 7 0;
#X connect 2 0 3 0;
#X connect 3 0 6 0;
#X connect 4 0 5 0;
#X connect 5 0 9 1;
#X connect 5 0 10 0;
#X connect 6 0 0 0;
#X connect 7 0 2 0;
#X connect 8 0 4 0;
#X connect 9 0 12 0;
#X connect 10 0 9 0;
#X connect 11 0 1 0;
#X restore -461 -795 pd +int;
#X obj -866 -758 + 30;
#X obj -867 -733 + 30;
#X obj -847 -949 inlet;
#X obj -918 -911 inlet;
#X obj -655 -816 inlet;
#X obj -752 -949 inlet;
#X obj -463 -818 inlet;
#X obj -563 -816 inlet;
#X obj -746 -817 inlet;
#X text -927 -933 lat/long;
#X obj -845 -869 nbx 5 14 0 100 0 0 empty empty control_octave 0 -8
0 10 -262144 -1 -1 20 256;
#N canvas 606 62 450 300 +int 0;
#X floatatom -131 -695 5 0 0 0 - - -, f 5;
#X obj -132 -834 moses 0;
#X obj -131 -765 float \$1;
#X floatatom -131 -739 9 0 0 0 - - -, f 9;
#X obj -64 -766 float \$1;
#X floatatom -64 -741 9 0 0 0 - - -, f 9;
#X obj -131 -718 * -1;
#X msg -121 -801 0, f 4;
#X msg -58 -801 0, f 4;
#X obj -131 -669 +;
#X msg -65 -718 bang;
#X obj -124 -865 inlet;
#X obj -131 -639 outlet;
#X connect 0 0 9 0;
#X connect 1 0 2 0;
#X connect 1 0 8 0;
#X connect 1 1 4 0;
#X connect 1 1 7 0;
#X connect 2 0 3 0;
#X connect 3 0 6 0;
#X connect 4 0 5 0;
#X connect 5 0 9 1;
#X connect 5 0 10 0;
#X connect 6 0 0 0;
#X connect 7 0 2 0;
#X connect 8 0 4 0;
#X connect 9 0 12 0;
#X connect 10 0 9 0;
#X connect 11 0 1 0;
#X restore -847 -924 pd +int;
#X obj -749 -870 nbx 5 14 0 100 0 0 empty empty control_octave 0 -8
0 10 -262144 -1 -1 20 256;
#N canvas 606 62 450 300 +int 0;
#X floatatom -131 -695 5 0 0 0 - - -, f 5;
#X obj -132 -834 moses 0;
#X obj -131 -765 float \$1;
#X floatatom -131 -739 9 0 0 0 - - -, f 9;
#X obj -64 -766 float \$1;
#X floatatom -64 -741 9 0 0 0 - - -, f 9;
#X obj -131 -718 * -1;
#X msg -121 -801 0, f 4;
#X msg -58 -801 0, f 4;
#X obj -131 -669 +;
#X msg -65 -718 bang;
#X obj -124 -865 inlet;
#X obj -131 -639 outlet;
#X connect 0 0 9 0;
#X connect 1 0 2 0;
#X connect 1 0 8 0;
#X connect 1 1 4 0;
#X connect 1 1 7 0;
#X connect 2 0 3 0;
#X connect 3 0 6 0;
#X connect 4 0 5 0;
#X connect 5 0 9 1;
#X connect 5 0 10 0;
#X connect 6 0 0 0;
#X connect 7 0 2 0;
#X connect 8 0 4 0;
#X connect 9 0 12 0;
#X connect 10 0 9 0;
#X connect 11 0 1 0;
#X restore -751 -925 pd +int;
#X obj -847 -902 + 20;
#X obj -751 -901 + 20;
#X text -749 -838 circle pt 1;
#X text -568 -836 circle pt 2;
#X text -657 -837 circle pt 3;
#X text -468 -836 circle pt 4;
#X obj -865 -462 outlet~;
#X text -849 -967 control octave;
#X text -755 -965 control octave;
#X obj -746 -665 *~;
#X obj -563 -665 *~;
#X obj -781 -545 -~ 0.5;
#X connect 0 0 9 0;
#X connect 1 0 8 0;
#X connect 2 0 3 0;
#X connect 3 0 4 0;
#X connect 4 0 5 0;
#X connect 4 0 7 0;
#X connect 5 0 6 0;
#X connect 6 0 1 0;
#X connect 7 0 15 0;
#X connect 8 0 0 0;
#X connect 9 0 46 0;
#X connect 10 0 51 0;
#X connect 11 0 50 0;
#X connect 12 0 13 0;
#X connect 13 0 11 0;
#X connect 14 0 50 1;
#X connect 15 0 10 0;
#X connect 16 0 12 0;
#X connect 17 0 14 0;
#X connect 18 0 49 0;
#X connect 19 0 20 0;
#X connect 20 0 18 0;
#X connect 21 0 49 1;
#X connect 22 0 19 0;
#X connect 23 0 21 0;
#X connect 24 0 23 0;
#X connect 25 0 17 0;
#X connect 26 0 27 0;
#X connect 27 0 2 0;
#X connect 28 0 37 0;
#X connect 29 0 26 0;
#X connect 30 0 24 0;
#X connect 31 0 39 0;
#X connect 32 0 25 0;
#X connect 33 0 16 0;
#X connect 34 0 22 0;
#X connect 36 0 26 1;
#X connect 37 0 40 0;
#X connect 38 0 27 1;
#X connect 39 0 41 0;
#X connect 40 0 36 0;
#X connect 41 0 38 0;
#X connect 49 0 6 1;
#X connect 50 0 15 1;
#X connect 51 0 0 1;
#X restore -1311 -747 pd circlesynthesizer.1;
#N canvas 214 149 864 494 circlesynthesizer.2 0;
#X obj -865 -523 +~;
#X obj -865 -591 osc~ 220;
#X floatatom -866 -707 5 0 0 0 - - -, f 5;
#X obj -866 -688 mtof;
#X floatatom -866 -666 5 0 0 0 - - -, f 5;
#X obj -781 -545 -~ 0.5;
#X obj -866 -647 -;
#X obj -866 -623 +~;
#X obj -781 -617 +;
#X obj -865 -569 -~ 0.5;
#X obj -865 -492 bp~ 440 0.5;
#X obj -781 -571 osc~ 221;
#X obj -563 -694 osc~;
#X obj -563 -749 nbx 5 14 0 30 0 0 empty empty modulator_freq 0 -8
0 10 -262144 -1 -1 0 256;
#X obj -563 -723 * 30;
#X obj -461 -736 * 30;
#X obj -781 -595 +~;
#N canvas 606 62 450 300 +int 0;
#X floatatom -131 -695 5 0 0 0 - - -, f 5;
#X obj -132 -834 moses 0;
#X obj -131 -765 float \$1;
#X floatatom -131 -739 9 0 0 0 - - -, f 9;
#X obj -64 -766 float \$1;
#X floatatom -64 -741 9 0 0 0 - - -, f 9;
#X obj -131 -718 * -1;
#X msg -121 -801 0, f 4;
#X msg -58 -801 0, f 4;
#X obj -131 -669 +;
#X msg -65 -718 bang;
#X obj -124 -865 inlet;
#X obj -131 -639 outlet;
#X connect 0 0 9 0;
#X connect 1 0 2 0;
#X connect 1 0 8 0;
#X connect 1 1 4 0;
#X connect 1 1 7 0;
#X connect 2 0 3 0;
#X connect 3 0 6 0;
#X connect 4 0 5 0;
#X connect 5 0 9 1;
#X connect 5 0 10 0;
#X connect 6 0 0 0;
#X connect 7 0 2 0;
#X connect 8 0 4 0;
#X connect 9 0 12 0;
#X connect 10 0 9 0;
#X connect 11 0 1 0;
#X restore -563 -786 pd +int;
#X obj -461 -760 nbx 5 14 0 30 0 0 empty empty modulator_freq 0 -8
0 10 -262144 -1 -1 0 256;
#X obj -746 -694 osc~;
#X obj -746 -749 nbx 5 14 0 30 0 0 empty empty modulator_freq 0 -8
0 10 -262144 -1 -1 0 256;
#X obj -746 -723 * 30;
#X obj -655 -726 * 30;
#N canvas 606 62 450 300 +int 0;
#X floatatom -131 -695 5 0 0 0 - - -, f 5;
#X obj -132 -834 moses 0;
#X obj -131 -765 float \$1;
#X floatatom -131 -739 9 0 0 0 - - -, f 9;
#X obj -64 -766 float \$1;
#X floatatom -64 -741 9 0 0 0 - - -, f 9;
#X obj -131 -718 * -1;
#X msg -121 -801 0, f 4;
#X msg -58 -801 0, f 4;
#X obj -131 -669 +;
#X msg -65 -718 bang;
#X obj -124 -865 inlet;
#X obj -131 -639 outlet;
#X connect 0 0 9 0;
#X connect 1 0 2 0;
#X connect 1 0 8 0;
#X connect 1 1 4 0;
#X connect 1 1 7 0;
#X connect 2 0 3 0;
#X connect 3 0 6 0;
#X connect 4 0 5 0;
#X connect 5 0 9 1;
#X connect 5 0 10 0;
#X connect 6 0 0 0;
#X connect 7 0 2 0;
#X connect 8 0 4 0;
#X connect 9 0 12 0;
#X connect 10 0 9 0;
#X connect 11 0 1 0;
#X restore -746 -786 pd +int;
#X obj -655 -751 nbx 5 14 0 30 0 0 empty empty modulator_freq 0 -8
0 10 -262144 -1 -1 0 256;
#N canvas 606 62 450 300 +int 0;
#X floatatom -131 -695 5 0 0 0 - - -, f 5;
#X obj -132 -834 moses 0;
#X obj -131 -765 float \$1;
#X floatatom -131 -739 9 0 0 0 - - -, f 9;
#X obj -64 -766 float \$1;
#X floatatom -64 -741 9 0 0 0 - - -, f 9;
#X obj -131 -718 * -1;
#X msg -121 -801 0, f 4;
#X msg -58 -801 0, f 4;
#X obj -131 -669 +;
#X msg -65 -718 bang;
#X obj -124 -865 inlet;
#X obj -131 -639 outlet;
#X connect 0 0 9 0;
#X connect 1 0 2 0;
#X connect 1 0 8 0;
#X connect 1 1 4 0;
#X connect 1 1 7 0;
#X connect 2 0 3 0;
#X connect 3 0 6 0;
#X connect 4 0 5 0;
#X connect 5 0 9 1;
#X connect 5 0 10 0;
#X connect 6 0 0 0;
#X connect 7 0 2 0;
#X connect 8 0 4 0;
#X connect 9 0 12 0;
#X connect 10 0 9 0;
#X connect 11 0 1 0;
#X restore -655 -786 pd +int;
#N canvas 606 62 450 300 +int 0;
#X floatatom -131 -695 5 0 0 0 - - -, f 5;
#X obj -132 -834 moses 0;
#X obj -131 -765 float \$1;
#X floatatom -131 -739 9 0 0 0 - - -, f 9;
#X obj -64 -766 float \$1;
#X floatatom -64 -741 9 0 0 0 - - -, f 9;
#X obj -131 -718 * -1;
#X msg -121 -801 0, f 4;
#X msg -58 -801 0, f 4;
#X obj -131 -669 +;
#X msg -65 -718 bang;
#X obj -124 -865 inlet;
#X obj -131 -639 outlet;
#X connect 0 0 9 0;
#X connect 1 0 2 0;
#X connect 1 0 8 0;
#X connect 1 1 4 0;
#X connect 1 1 7 0;
#X connect 2 0 3 0;
#X connect 3 0 6 0;
#X connect 4 0 5 0;
#X connect 5 0 9 1;
#X connect 5 0 10 0;
#X connect 6 0 0 0;
#X connect 7 0 2 0;
#X connect 8 0 4 0;
#X connect 9 0 12 0;
#X connect 10 0 9 0;
#X connect 11 0 1 0;
#X restore -461 -795 pd +int;
#X obj -866 -758 + 30;
#X obj -867 -733 + 30;
#X obj -847 -949 inlet;
#X obj -918 -911 inlet;
#X obj -655 -816 inlet;
#X obj -752 -949 inlet;
#X obj -463 -818 inlet;
#X obj -563 -816 inlet;
#X obj -746 -817 inlet;
#X text -927 -933 lat/long;
#X obj -845 -869 nbx 5 14 0 100 0 0 empty empty control_octave 0 -8
0 10 -262144 -1 -1 12 256;
#N canvas 606 62 450 300 +int 0;
#X floatatom -131 -695 5 0 0 0 - - -, f 5;
#X obj -132 -834 moses 0;
#X obj -131 -765 float \$1;
#X floatatom -131 -739 9 0 0 0 - - -, f 9;
#X obj -64 -766 float \$1;
#X floatatom -64 -741 9 0 0 0 - - -, f 9;
#X obj -131 -718 * -1;
#X msg -121 -801 0, f 4;
#X msg -58 -801 0, f 4;
#X obj -131 -669 +;
#X msg -65 -718 bang;
#X obj -124 -865 inlet;
#X obj -131 -639 outlet;
#X connect 0 0 9 0;
#X connect 1 0 2 0;
#X connect 1 0 8 0;
#X connect 1 1 4 0;
#X connect 1 1 7 0;
#X connect 2 0 3 0;
#X connect 3 0 6 0;
#X connect 4 0 5 0;
#X connect 5 0 9 1;
#X connect 5 0 10 0;
#X connect 6 0 0 0;
#X connect 7 0 2 0;
#X connect 8 0 4 0;
#X connect 9 0 12 0;
#X connect 10 0 9 0;
#X connect 11 0 1 0;
#X restore -847 -924 pd +int;
#X obj -749 -870 nbx 5 14 0 100 0 0 empty empty control_octave 0 -8
0 10 -262144 -1 -1 12 256;
#N canvas 606 62 450 300 +int 0;
#X floatatom -131 -695 5 0 0 0 - - -, f 5;
#X obj -132 -834 moses 0;
#X obj -131 -765 float \$1;
#X floatatom -131 -739 9 0 0 0 - - -, f 9;
#X obj -64 -766 float \$1;
#X floatatom -64 -741 9 0 0 0 - - -, f 9;
#X obj -131 -718 * -1;
#X msg -121 -801 0, f 4;
#X msg -58 -801 0, f 4;
#X obj -131 -669 +;
#X msg -65 -718 bang;
#X obj -124 -865 inlet;
#X obj -131 -639 outlet;
#X connect 0 0 9 0;
#X connect 1 0 2 0;
#X connect 1 0 8 0;
#X connect 1 1 4 0;
#X connect 1 1 7 0;
#X connect 2 0 3 0;
#X connect 3 0 6 0;
#X connect 4 0 5 0;
#X connect 5 0 9 1;
#X connect 5 0 10 0;
#X connect 6 0 0 0;
#X connect 7 0 2 0;
#X connect 8 0 4 0;
#X connect 9 0 12 0;
#X connect 10 0 9 0;
#X connect 11 0 1 0;
#X restore -751 -925 pd +int;
#X text -749 -838 circle pt 1;
#X text -568 -836 circle pt 2;
#X text -657 -837 circle pt 3;
#X text -468 -836 circle pt 4;
#X obj -865 -462 outlet~;
#X text -849 -967 control octave;
#X text -755 -965 control octave;
#X obj -746 -665 *~;
#X obj -563 -665 *~;
#X obj -847 -902 + 12;
#X obj -751 -901 + 12;
#X connect 0 0 10 0;
#X connect 1 0 9 0;
#X connect 2 0 3 0;
#X connect 3 0 4 0;
#X connect 4 0 6 0;
#X connect 4 0 8 0;
#X connect 5 0 0 1;
#X connect 6 0 7 0;
#X connect 7 0 1 0;
#X connect 8 0 16 0;
#X connect 9 0 0 0;
#X connect 10 0 45 0;
#X connect 11 0 5 0;
#X connect 12 0 49 0;
#X connect 13 0 14 0;
#X connect 14 0 12 0;
#X connect 15 0 49 1;
#X connect 16 0 11 0;
#X connect 17 0 13 0;
#X connect 18 0 15 0;
#X connect 19 0 48 0;
#X connect 20 0 21 0;
#X connect 21 0 19 0;
#X connect 22 0 48 1;
#X connect 23 0 20 0;
#X connect 24 0 22 0;
#X connect 25 0 24 0;
#X connect 26 0 18 0;
#X connect 27 0 28 0;
#X connect 28 0 2 0;
#X connect 29 0 38 0;
#X connect 30 0 27 0;
#X connect 31 0 25 0;
#X connect 32 0 40 0;
#X connect 33 0 26 0;
#X connect 34 0 17 0;
#X connect 35 0 23 0;
#X connect 37 0 27 1;
#X connect 38 0 50 0;
#X connect 39 0 28 1;
#X connect 40 0 51 0;
#X connect 48 0 7 1;
#X connect 49 0 16 1;
#X connect 50 0 37 0;
#X connect 51 0 39 0;
#X restore -289 -394 pd circlesynthesizer.2;
#X obj -888 -1124 nbx 5 14 0 60 0 0 empty empty empty 0 -8 0 10 -162280
-1 -1 22 256;
#X obj -788 -1125 nbx 5 14 0 60 0 0 empty empty empty 0 -8 0 10 -162280
-1 -1 20 256;
#X obj -774 -638 r init;
#X obj -689 -637 r init;
#X obj 95 -535 r android2c3.1;
#X obj 95 -512 r android2c3.2;
#X obj 95 -489 r android2c3.3;
#X obj 95 -466 r android2c3.4;
#X obj -1228 -397 throw~ lineoutr3.1;
#X obj -1185 -370 throw~ lineoutr4.1;
#X obj -1157 -1471 r stop;
#X text -1229 -1158 assume walking pace is 90-100 bpm;
#X obj -367 -1361 cnv 15 350 400 empty empty proximity_(bluetooth)
20 12 0 10 -158081 -66577 0;
#X obj -256 -1210 nbx 5 14 0 10 0 0 empty empty empty 0 -8 0 10 -162280
-1 -1 0 256;
#X obj -314 -1286 nbx 5 14 -3.14 3.14 0 0 empty empty empty 0 -8 0
10 -162280 -1 -1 0 256;
#X msg -333 -1182 bang;
#N canvas 606 62 450 300 +int 0;
#X floatatom -131 -695 5 0 0 0 - - -, f 5;
#X obj -132 -834 moses 0;
#X obj -131 -765 float \$1;
#X floatatom -131 -739 9 0 0 0 - - -, f 9;
#X obj -64 -766 float \$1;
#X floatatom -64 -741 9 0 0 0 - - -, f 9;
#X obj -131 -718 * -1;
#X msg -121 -801 0, f 4;
#X msg -58 -801 0, f 4;
#X obj -131 -669 +;
#X msg -65 -718 bang;
#X obj -124 -865 inlet;
#X obj -131 -639 outlet;
#X connect 0 0 9 0;
#X connect 1 0 2 0;
#X connect 1 0 8 0;
#X connect 1 1 4 0;
#X connect 1 1 7 0;
#X connect 2 0 3 0;
#X connect 3 0 6 0;
#X connect 4 0 5 0;
#X connect 5 0 9 1;
#X connect 5 0 10 0;
#X connect 6 0 0 0;
#X connect 7 0 2 0;
#X connect 8 0 4 0;
#X connect 9 0 12 0;
#X connect 10 0 9 0;
#X connect 11 0 1 0;
#X restore -314 -1263 pd +int;
#X floatatom -314 -1213 5 0 0 0 - - -, f 5;
#X obj -1285 -1107 nbx 5 14 -1e+37 1e+37 0 0 empty empty empty 0 -8
0 10 -162280 -1 -1 60 256;
#X obj -687 -1125 nbx 5 14 -1e+37 1e+37 0 0 empty empty empty 0 -8
0 10 -162280 -1 -1 60 256;
#X obj -720 -1535 cnv 15 300 150 empty empty Colour_key_for_the_inputs
20 12 0 10 -261234 -66577 0;
#X obj -710 -1486 nbx 5 14 -1e+37 1e+37 0 0 empty empty inputs_from_user_1_location_or_interface
0 -8 0 10 -204800 -1 -1 0 256;
#X obj -710 -1486 nbx 5 14 -1e+37 1e+37 0 0 empty empty empty 0 -8
0 10 -204800 -1 -1 0 256;
#X obj -710 -1416 nbx 5 14 -1e+37 1e+37 0 0 empty empty inputs_from_u1/2_that_should_update_automatically
0 -8 0 10 -162280 -1 -1 0 256;
#X obj -710 -1451 nbx 5 14 -1e+37 1e+37 0 0 empty empty inputs_from_user_2_location_or_interface
0 -8 0 10 -262130 -1 -1 0 256;
#X obj -975 48 line~;
#X obj -1336 -1257 bng 15 250 50 0 empty empty empty 17 7 0 10 -262144
-1 -1;
#X obj -1246 -946 s new;
#X obj -1160 -945 s new;
#X obj -1336 -1280 r new;
#X obj -682 -581 s new2;
#X obj -760 -582 s new2;
#X obj -177 -592 s new2;
#X obj -262 -592 s new2;
#X obj -690 -942 s new;
#X obj -773 -945 s new;
#X obj -939 -1122 bng 15 250 50 0 empty empty empty 17 7 0 10 -262144
-1 -1;
#X obj -939 -1150 r new2;
#X obj -983 -514 s new;
#X obj -1205 -519 s new;
#X obj -1130 -518 s new;
#X obj -1055 -517 s new;
#X text -1156 -477 's new' sends a bang so octave changes can be heard
;
#X obj -615 -168 s new2;
#X obj -690 -169 s new2;
#X obj -540 -167 s new2;
#X obj -468 -167 s new2;
#X obj -314 -1035 s proxvolume;
#X obj -975 -1 r proxvolume;
#X floatatom -314 -1066 5 0 0 0 - - -, f 5;
#X floatatom -256 -1163 5 0 0 0 - - -, f 5;
#X text -349 -1334 This should only work if users are in range of one
another;
#X obj -916 -1411 s initlatlong;
#X obj -812 -1412 s initbpm;
#X obj -1293 -1155 r initbpm;
#X obj -1335 -1344 r initlatlong;
#X msg -916 -1433 29;
#X text -875 -1544 set initial values until new values arrive;
#X obj -1281 177 bng 15 250 50 0 empty empty empty 17 7 0 10 -262144
-1 -1;
#X obj -1282 204 t b b;
#X msg -1282 228 start;
#X msg -1367 265 stop;
#X obj -1318 -1469 bng 20 250 50 0 empty empty stop 25 7 0 10 -261234
-128992 -1;
#X obj -1318 -1436 s stop;
#X obj -1322 310 writesf~ 2;
#X msg -934 150 0;
#X obj -1233 91 line~;
#X obj -1233 40 expr pow($f1/127 \, 2);
#X obj -1233 15 r vol \$2;
#X obj -1092 216 +~;
#X obj -1322 108 *~;
#X obj -241 -64 until;
#X obj -132 -98 line~;
#X obj -314 -1134 *;
#X obj -314 -1089 / 30;
#X obj -314 -1240 expr -1*($f1-3.2);
#X obj -257 -1188 expr -1*($f1-10.1);
#X text -1173 16 rec volume;
#X text -969 101 master volume;
#X obj -264 -1077 expr pow($f1/127 \, 2);
#X obj -264 -1098 nbx 5 14 0 127 0 0 empty empty empty 0 -8 0 10 -162280
-1 -1 35 256;
#X obj -808 -1171 r init;
#X obj -747 -1171 r init;
#X obj -668 -1171 r init;
#X obj -1289 -167 *~ 0.25;
#X obj -1274 -116 *~ 0.25;
#X obj -1259 -65 *~ 0.25;
#X obj -1249 -14 *~ 0.25;
#X obj -1325 -1507 s start;
#X obj -1159 -1548 r start;
#X obj -1065 -1544 r start;
#X obj -916 -1561 r start;
#X obj -916 -1480 r start;
#X obj -812 -1481 r start;
#X obj -1314 -660 r start;
#X obj -797 -309 r start;
#X msg -1233 66 \$1 20;
#X msg -975 24 \$1 20;
#X msg -1027 156 \$1 20;
#X obj -812 -1459 delay 100;
#X obj -916 -1458 delay 100;
#X obj -1077 90 *~;
#X obj -359 -1112 r init;
#X floatatom -919 32 5 0 0 0 - - -, f 5;
#X obj -1322 -271 *~ 0.125;
#X obj -1307 -222 *~ 0.125;
#X msg -1065 -1519 60;
#X text -1188 -1336 need to round to nearest 1 or 0.5?;
#X obj -1076 -209 +~;
#X obj -1076 -151 +~;
#X obj -1076 -99 +~;
#X obj -1076 -47 +~;
#X obj -1076 35 +~;
#X obj -1043 -181 *~ 0.25;
#X obj -1028 -130 *~ 0.25;
#X obj -1013 -79 *~ 0.25;
#X obj -1003 -28 *~ 0.25;
#X obj -1076 -285 *~ 0.125;
#X obj -1061 -236 *~ 0.125;
#X obj -1076 -308 catch~ lineoutlat.2;
#X obj -1061 -260 catch~ lineoutlong.2;
#X obj -1043 -204 catch~ lineoutr1.2;
#X obj -1028 -153 catch~ lineoutr2.2;
#X obj -1013 -103 catch~ lineoutr3.2;
#X obj -1002 -52 catch~ lineoutr4.2;
#X msg -1270 254 open ~bytes 2 track1.wav;
#X obj -225 -1311 cnv 15 120 50 empty empty empty 20 12 0 14 -262144
-66577 0;
#X obj -211 -1305 r androidbearing;
#X obj -222 -1281 r androidproximity;
#X obj -270 -1123 cnv 15 120 20 empty empty empty 20 12 0 14 -262144
-66577 0;
#X obj -264 -1121 r android2volume;
#X obj -1318 -1527 s android1startplaying;
#X obj -1287 144 cnv 15 120 20 empty empty empty 20 12 0 14 -262144
-66577 0;
#X obj -1281 146 r android1startrecording;
#X obj -1367 243 r stop;
#X msg -812 -1435 60;
#X obj -424 -537 r android2c2.1;
#X obj -424 -513 r android2c2.2;
#X obj -424 -490 r android2c2.3;
#X obj -424 -465 r android2c2.4;
#X text -373 -1573 Changes to this version -- recalibrated rhythmsynth
to match bpm recalibrated control octave in synth to get better range
fixed inputs for u2 circles;
#X obj -808 -1026 r long1;
#X obj -1311 -1014 r lat1;
#X obj -1015 -1028 r android1c4.1;
#X obj -1015 -1004 r android1c4.2;
#X obj -1015 -981 r android1c4.3;
#X obj -1015 -956 r android1c4.4;
#X obj -939 -669 r android1c1.1;
#X obj -939 -621 r android1c1.3;
#X obj -939 -645 r android1c1.2;
#X obj -939 -597 r android1c1.4;
#X text -1325 -1046 changed to c 4 (outermost circle);
#X text -1323 -698 changed to c 1 (innermost circle);
#X obj -424 -323 r android2c1.1;
#X obj -424 -299 r android2c1.2;
#X obj -424 -275 r android2c1.3;
#X obj -424 -251 r android2c1.4;
#X obj -516 -673 r android2c4.1;
#X obj -515 -649 r android2c4.2;
#X obj -515 -626 r android2c4.3;
#X obj -515 -601 r android2c4.4;
#X connect 2 0 5 1;
#X connect 3 0 245 0;
#X connect 4 0 3 0;
#X connect 5 0 6 1;
#X connect 5 0 6 0;
#X connect 7 0 2 0;
#X connect 8 0 10 0;
#X connect 15 0 235 0;
#X connect 15 0 278 0;
#X connect 16 0 19 0;
#X connect 17 0 18 0;
#X connect 19 0 20 0;
#X connect 20 0 21 0;
#X connect 21 0 22 0;
#X connect 22 0 217 0;
#X connect 24 0 26 0;
#X connect 25 0 27 0;
#X connect 32 0 145 1;
#X connect 32 0 174 0;
#X connect 33 0 145 4;
#X connect 34 0 145 3;
#X connect 35 0 53 3;
#X connect 36 0 53 4;
#X connect 37 0 145 2;
#X connect 37 0 175 0;
#X connect 38 0 36 0;
#X connect 39 0 32 0;
#X connect 40 0 37 0;
#X connect 41 0 33 0;
#X connect 42 0 35 0;
#X connect 43 0 34 0;
#X connect 44 0 53 1;
#X connect 44 0 182 0;
#X connect 45 0 145 6;
#X connect 46 0 145 5;
#X connect 47 0 53 5;
#X connect 48 0 53 2;
#X connect 48 0 181 0;
#X connect 49 0 44 0;
#X connect 50 0 48 0;
#X connect 51 0 45 0;
#X connect 52 0 47 0;
#X connect 53 0 126 0;
#X connect 54 0 46 0;
#X connect 55 0 53 6;
#X connect 56 0 55 0;
#X connect 58 0 144 4;
#X connect 58 0 186 0;
#X connect 59 0 144 5;
#X connect 59 0 188 0;
#X connect 60 0 144 6;
#X connect 60 0 187 0;
#X connect 61 0 144 7;
#X connect 61 0 185 0;
#X connect 62 0 144 2;
#X connect 63 0 144 3;
#X connect 64 0 61 0;
#X connect 65 0 60 0;
#X connect 66 0 59 0;
#X connect 67 0 58 0;
#X connect 68 0 144 1;
#X connect 72 0 143 1;
#X connect 72 0 178 0;
#X connect 73 0 143 4;
#X connect 74 0 143 3;
#X connect 75 0 146 3;
#X connect 76 0 146 4;
#X connect 77 0 143 2;
#X connect 77 0 177 0;
#X connect 78 0 76 0;
#X connect 79 0 73 0;
#X connect 80 0 75 0;
#X connect 81 0 74 0;
#X connect 82 0 146 1;
#X connect 82 0 180 0;
#X connect 83 0 143 6;
#X connect 84 0 143 5;
#X connect 85 0 146 5;
#X connect 86 0 146 2;
#X connect 86 0 179 0;
#X connect 87 0 83 0;
#X connect 88 0 85 0;
#X connect 89 0 84 0;
#X connect 90 0 146 6;
#X connect 91 0 90 0;
#X connect 92 0 143 0;
#X connect 93 0 146 0;
#X connect 95 0 99 4;
#X connect 95 0 191 0;
#X connect 96 0 99 5;
#X connect 96 0 192 0;
#X connect 97 0 99 6;
#X connect 97 0 190 0;
#X connect 98 0 99 7;
#X connect 98 0 193 0;
#X connect 99 0 121 0;
#X connect 99 1 122 0;
#X connect 99 2 123 0;
#X connect 99 3 124 0;
#X connect 100 0 98 0;
#X connect 101 0 97 0;
#X connect 102 0 96 0;
#X connect 103 0 95 0;
#X connect 108 0 99 2;
#X connect 109 0 99 3;
#X connect 110 0 99 1;
#X connect 114 0 251 0;
#X connect 115 0 252 0;
#X connect 116 0 231 0;
#X connect 117 0 232 0;
#X connect 118 0 233 0;
#X connect 119 0 234 0;
#X connect 127 0 82 0;
#X connect 128 0 86 0;
#X connect 129 0 45 0;
#X connect 130 0 46 0;
#X connect 131 0 33 0;
#X connect 132 0 34 0;
#X connect 133 0 35 0;
#X connect 134 0 36 0;
#X connect 135 0 47 0;
#X connect 136 0 55 0;
#X connect 137 0 165 0;
#X connect 138 0 25 0;
#X connect 139 0 24 0;
#X connect 140 0 147 0;
#X connect 141 0 148 0;
#X connect 142 0 166 0;
#X connect 143 0 120 0;
#X connect 144 0 111 0;
#X connect 144 1 112 0;
#X connect 144 2 155 0;
#X connect 144 3 156 0;
#X connect 145 0 113 0;
#X connect 146 0 125 0;
#X connect 147 0 105 0;
#X connect 148 0 106 0;
#X connect 149 0 72 0;
#X connect 150 0 77 0;
#X connect 151 0 75 0;
#X connect 152 0 76 0;
#X connect 153 0 85 0;
#X connect 154 0 90 0;
#X connect 157 0 13 0;
#X connect 160 0 223 0;
#X connect 161 0 163 0;
#X connect 162 0 220 0;
#X connect 163 0 222 0;
#X connect 164 0 162 0;
#X connect 164 0 220 0;
#X connect 165 0 28 0;
#X connect 166 0 107 0;
#X connect 172 0 248 1;
#X connect 173 0 26 0;
#X connect 173 0 27 0;
#X connect 176 0 173 0;
#X connect 183 0 105 0;
#X connect 183 0 106 0;
#X connect 184 0 183 0;
#X connect 195 0 244 0;
#X connect 195 0 250 0;
#X connect 196 0 194 0;
#X connect 197 0 162 0;
#X connect 197 0 220 1;
#X connect 201 0 165 0;
#X connect 202 0 24 0;
#X connect 202 0 25 0;
#X connect 203 0 199 0;
#X connect 205 0 206 0;
#X connect 206 0 207 0;
#X connect 206 1 272 0;
#X connect 207 0 211 0;
#X connect 208 0 211 0;
#X connect 209 0 210 0;
#X connect 212 0 2 0;
#X connect 213 0 217 1;
#X connect 214 0 243 0;
#X connect 215 0 214 0;
#X connect 216 0 5 0;
#X connect 217 0 211 0;
#X connect 217 0 216 0;
#X connect 220 0 221 0;
#X connect 221 0 196 0;
#X connect 222 0 164 0;
#X connect 223 0 197 0;
#X connect 226 0 194 0;
#X connect 227 0 226 0;
#X connect 228 0 147 0;
#X connect 229 0 148 0;
#X connect 230 0 166 0;
#X connect 231 0 19 1;
#X connect 232 0 20 1;
#X connect 233 0 21 1;
#X connect 234 0 22 1;
#X connect 236 0 12 0;
#X connect 237 0 253 0;
#X connect 238 0 17 0;
#X connect 239 0 247 0;
#X connect 240 0 246 0;
#X connect 241 0 144 0;
#X connect 242 0 99 0;
#X connect 243 0 213 0;
#X connect 244 0 172 0;
#X connect 245 0 2 0;
#X connect 246 0 282 0;
#X connect 247 0 203 0;
#X connect 248 0 216 1;
#X connect 249 0 196 0;
#X connect 251 0 16 0;
#X connect 252 0 16 1;
#X connect 253 0 8 0;
#X connect 255 0 256 0;
#X connect 256 0 257 0;
#X connect 257 0 258 0;
#X connect 258 0 259 0;
#X connect 259 0 248 0;
#X connect 260 0 256 1;
#X connect 261 0 257 1;
#X connect 262 0 258 1;
#X connect 263 0 259 1;
#X connect 264 0 255 0;
#X connect 265 0 255 1;
#X connect 266 0 264 0;
#X connect 267 0 265 0;
#X connect 268 0 260 0;
#X connect 269 0 261 0;
#X connect 270 0 262 0;
#X connect 271 0 263 0;
#X connect 272 0 211 0;
#X connect 274 0 161 0;
#X connect 275 0 160 0;
#X connect 277 0 227 0;
#X connect 280 0 205 0;
#X connect 281 0 208 0;
#X connect 282 0 200 0;
#X connect 283 0 74 0;
#X connect 284 0 73 0;
#X connect 285 0 84 0;
#X connect 286 0 83 0;
#X connect 288 0 53 0;
#X connect 289 0 145 0;
#X connect 290 0 32 0;
#X connect 291 0 44 0;
#X connect 292 0 37 0;
#X connect 293 0 48 0;
#X connect 294 0 58 0;
#X connect 295 0 59 0;
#X connect 296 0 60 0;
#X connect 297 0 61 0;
#X connect 300 0 95 0;
#X connect 301 0 97 0;
#X connect 302 0 96 0;
#X connect 303 0 98 0;
#X connect 304 0 72 0;
#X connect 305 0 82 0;
#X connect 306 0 77 0;
#X connect 307 0 86 0;
