#N canvas 387 22 1060 792 10;
#X obj -1342 -1585 cnv 15 600 200 empty empty master_control 20 12
0 10 -262130 -66577 0;
#X obj -1341 -316 cnv 15 500 500 empty empty audio_out 20 12 0 10 -233017
-66577 0;
#X obj -1015 26 line~;
#X obj -1015 -45 expr pow($f1/127 \, 2);
#X obj -1015 -70 r vol \$2;
#X obj -1235 100 *~;
#X msg -1015 -19 \$1 20;
#X obj -1238 154 dac~ 1 2;
#X msg -944 -18 0;
#X msg -944 7 0.2;
#X floatatom -1015 3 5 0 0 0 - - -, f 5;
#X obj -1092 -1472 hsl 128 15 0 127 0 0 empty empty main_volume 6 8
0 10 -4032 -1 -1 4000 1;
#X text -1036 -1450 connect to Android;
#X obj -1095 -1447 s vol \$2;
#X obj -1095 -1520 r on \$1;
#X text -1063 -1493 change to adjust the maxvolume of the Android;
#X text -1212 -1491 turn audio on;
#X msg -1095 -1495 40;
#X text -890 -1515 send initial values;
#X msg -1209 -1525 \; pd dsp 1;
#X msg -1208 -1445 \; pd dsp 0;
#X text -1211 -1411 turn audio off;
#X obj -1319 -1522 s trigger;
#X obj -1318 -1552 bng 20 250 50 0 empty empty start 17 7 0 10 -204786
-128992 -1;
#X obj -1321 -1450 s on \$1;
#X obj -1320 -1496 r trigger;
#X obj -1320 -1473 tgl 15 0 empty empty empty 17 7 0 10 -262144 -1
-1 1 1;
#X obj -1209 -1548 r on \$1;
#X obj -1322 -227 +~;
#X obj -936 -1561 r on \$1;
#X msg -936 -1536 0;
#X obj -936 -1514 s init;
#X obj -1322 -187 +~;
#X text -924 274 add -- incoming data from user 2 record function;
#X obj -1322 -145 +~;
#X obj -1322 -103 +~;
#X obj -1322 -61 +~;
#X obj -1341 -1365 cnv 15 950 300 empty empty data_inputs_from_Android
20 12 0 10 -233017 -66577 0;
#X obj -1326 -1295 hradio 15 1 0 60 empty empty empty 0 -8 0 10 -262144
-1 -1 22;
#X obj -1324 -1215 hradio 15 1 0 60 empty empty empty 0 -8 0 10 -262144
-1 -1 16;
#X text -1216 -1241 need to round to nearest 1 or 0.5;
#X text -1218 -1326 need to round to nearest 1 or 0.5;
#X obj -1326 -1274 s lat1;
#X obj -1324 -1193 s long1;
#X obj -1325 -1102 s bpm1;
#X floatatom -1325 -1122 5 0 0 0 - - -, f 5;
#X obj -1342 -1038 cnv 15 750 120 empty empty circle_1_sets_the_range_of_notes
20 12 0 10 -158964 -66577 0;
#X obj -825 -902 cnv 15 500 200 empty empty circle_3_is_the_second_set_of_modulator_frequencies
20 12 0 10 -51623 -66577 0;
#X obj -1343 -902 cnv 15 500 200 empty empty circle_2_is_the_first_set_of_modulator_frequencies
20 12 0 10 -52468 -66577 0;
#X obj -1292 -944 nbx 5 14 -30 30 0 0 empty empty circle1_pt_1 0 -8
0 10 -204800 -1 -1 0 256;
#X obj -1167 -767 nbx 5 14 -30 30 0 0 empty empty circle2_pt_2 0 -8
0 10 -204800 -1 -1 0 256;
#X obj -1253 -767 nbx 5 14 -30 30 0 0 empty empty circle2_pt_1 0 -8
0 10 -204800 -1 -1 0 256;
#X obj -756 -770 nbx 5 14 -30 30 0 0 empty empty circle3_pt_1 0 -8
0 10 -204800 -1 -1 0 256;
#X obj -670 -769 nbx 5 14 -30 30 0 0 empty empty circle3_pt_2 0 -8
0 10 -204800 -1 -1 0 256;
#X obj -1311 -1006 r lat1;
#X obj -1207 -944 nbx 5 14 -30 30 0 0 empty empty circle1_pt_3 0 -8
0 10 -204800 -1 -1 0 256;
#X obj -670 -797 r init;
#X obj -1292 -982 r init;
#X obj -1207 -981 r init;
#X obj -1167 -797 r init;
#X obj -756 -798 r init;
#X obj -1253 -797 r init;
#X obj -788 -944 nbx 5 14 -30 30 0 0 empty empty circle1_pt_2 0 -8
0 10 -204800 -1 -1 0 256;
#X obj -992 -765 nbx 5 14 -30 30 0 0 empty empty circle2_pt_4 0 -8
0 10 -204800 -1 -1 0 256;
#X obj -1082 -766 nbx 5 14 -30 30 0 0 empty empty circle2_pt_3 0 -8
0 10 -204800 -1 -1 0 256;
#X obj -587 -769 nbx 5 14 -30 30 0 0 empty empty circle3_pt_3 0 -8
0 10 -204800 -1 -1 0 256;
#X obj -703 -944 nbx 5 14 -30 30 0 0 empty empty circle1_pt_4 0 -8
0 10 -204800 -1 -1 0 256;
#X obj -788 -982 r init;
#X obj -703 -981 r init;
#X obj -991 -795 r init;
#X obj -587 -797 r init;
#N canvas 214 149 864 494 circlesynthesizer 0;
#X obj -865 -523 +~;
#X obj -865 -591 osc~ 220;
#X floatatom -866 -707 5 0 0 0 - - -, f 5;
#X obj -866 -688 mtof;
#X floatatom -866 -666 5 0 0 0 - - -, f 5;
#X obj -781 -545 -~ 0.5;
#X obj -866 -647 -;
#X obj -866 -623 +~;
#X obj -781 -617 +;
#X obj -865 -569 -~ 0.5;
#X obj -865 -492 bp~ 440 0.5;
#X obj -781 -571 osc~ 221;
#X obj -563 -694 osc~;
#X obj -563 -749 nbx 5 14 0 30 0 0 empty empty modulator_freq 0 -8
0 10 -262144 -1 -1 0 256;
#X obj -563 -723 * 30;
#X obj -461 -736 * 30;
#X obj -781 -595 +~;
#N canvas 606 62 450 300 +int 0;
#X floatatom -131 -695 5 0 0 0 - - -, f 5;
#X obj -132 -834 moses 0;
#X obj -131 -765 float \$1;
#X floatatom -131 -739 9 0 0 0 - - -, f 9;
#X obj -64 -766 float \$1;
#X floatatom -64 -741 9 0 0 0 - - -, f 9;
#X obj -131 -718 * -1;
#X msg -121 -801 0, f 4;
#X msg -58 -801 0, f 4;
#X obj -131 -669 +;
#X msg -65 -718 bang;
#X obj -124 -865 inlet;
#X obj -131 -639 outlet;
#X connect 0 0 9 0;
#X connect 1 0 2 0;
#X connect 1 0 8 0;
#X connect 1 1 4 0;
#X connect 1 1 7 0;
#X connect 2 0 3 0;
#X connect 3 0 6 0;
#X connect 4 0 5 0;
#X connect 5 0 9 1;
#X connect 5 0 10 0;
#X connect 6 0 0 0;
#X connect 7 0 2 0;
#X connect 8 0 4 0;
#X connect 9 0 12 0;
#X connect 10 0 9 0;
#X connect 11 0 1 0;
#X restore -563 -786 pd +int;
#X obj -461 -760 nbx 5 14 0 30 0 0 empty empty modulator_freq 0 -8
0 10 -262144 -1 -1 0 256;
#X obj -746 -694 osc~;
#X obj -746 -749 nbx 5 14 0 30 0 0 empty empty modulator_freq 0 -8
0 10 -262144 -1 -1 0 256;
#X obj -746 -723 * 30;
#X obj -655 -726 * 30;
#N canvas 606 62 450 300 +int 0;
#X floatatom -131 -695 5 0 0 0 - - -, f 5;
#X obj -132 -834 moses 0;
#X obj -131 -765 float \$1;
#X floatatom -131 -739 9 0 0 0 - - -, f 9;
#X obj -64 -766 float \$1;
#X floatatom -64 -741 9 0 0 0 - - -, f 9;
#X obj -131 -718 * -1;
#X msg -121 -801 0, f 4;
#X msg -58 -801 0, f 4;
#X obj -131 -669 +;
#X msg -65 -718 bang;
#X obj -124 -865 inlet;
#X obj -131 -639 outlet;
#X connect 0 0 9 0;
#X connect 1 0 2 0;
#X connect 1 0 8 0;
#X connect 1 1 4 0;
#X connect 1 1 7 0;
#X connect 2 0 3 0;
#X connect 3 0 6 0;
#X connect 4 0 5 0;
#X connect 5 0 9 1;
#X connect 5 0 10 0;
#X connect 6 0 0 0;
#X connect 7 0 2 0;
#X connect 8 0 4 0;
#X connect 9 0 12 0;
#X connect 10 0 9 0;
#X connect 11 0 1 0;
#X restore -746 -786 pd +int;
#X obj -655 -751 nbx 5 14 0 30 0 0 empty empty modulator_freq 0 -8
0 10 -262144 -1 -1 0 256;
#N canvas 606 62 450 300 +int 0;
#X floatatom -131 -695 5 0 0 0 - - -, f 5;
#X obj -132 -834 moses 0;
#X obj -131 -765 float \$1;
#X floatatom -131 -739 9 0 0 0 - - -, f 9;
#X obj -64 -766 float \$1;
#X floatatom -64 -741 9 0 0 0 - - -, f 9;
#X obj -131 -718 * -1;
#X msg -121 -801 0, f 4;
#X msg -58 -801 0, f 4;
#X obj -131 -669 +;
#X msg -65 -718 bang;
#X obj -124 -865 inlet;
#X obj -131 -639 outlet;
#X connect 0 0 9 0;
#X connect 1 0 2 0;
#X connect 1 0 8 0;
#X connect 1 1 4 0;
#X connect 1 1 7 0;
#X connect 2 0 3 0;
#X connect 3 0 6 0;
#X connect 4 0 5 0;
#X connect 5 0 9 1;
#X connect 5 0 10 0;
#X connect 6 0 0 0;
#X connect 7 0 2 0;
#X connect 8 0 4 0;
#X connect 9 0 12 0;
#X connect 10 0 9 0;
#X connect 11 0 1 0;
#X restore -655 -786 pd +int;
#N canvas 606 62 450 300 +int 0;
#X floatatom -131 -695 5 0 0 0 - - -, f 5;
#X obj -132 -834 moses 0;
#X obj -131 -765 float \$1;
#X floatatom -131 -739 9 0 0 0 - - -, f 9;
#X obj -64 -766 float \$1;
#X floatatom -64 -741 9 0 0 0 - - -, f 9;
#X obj -131 -718 * -1;
#X msg -121 -801 0, f 4;
#X msg -58 -801 0, f 4;
#X obj -131 -669 +;
#X msg -65 -718 bang;
#X obj -124 -865 inlet;
#X obj -131 -639 outlet;
#X connect 0 0 9 0;
#X connect 1 0 2 0;
#X connect 1 0 8 0;
#X connect 1 1 4 0;
#X connect 1 1 7 0;
#X connect 2 0 3 0;
#X connect 3 0 6 0;
#X connect 4 0 5 0;
#X connect 5 0 9 1;
#X connect 5 0 10 0;
#X connect 6 0 0 0;
#X connect 7 0 2 0;
#X connect 8 0 4 0;
#X connect 9 0 12 0;
#X connect 10 0 9 0;
#X connect 11 0 1 0;
#X restore -461 -795 pd +int;
#X obj -866 -758 + 30;
#X obj -867 -733 + 30;
#X obj -847 -949 inlet;
#X obj -918 -911 inlet;
#X obj -655 -816 inlet;
#X obj -752 -949 inlet;
#X obj -463 -818 inlet;
#X obj -563 -816 inlet;
#X obj -746 -817 inlet;
#X text -927 -933 lat/long;
#X obj -845 -869 nbx 5 14 0 100 0 0 empty empty control_octave 0 -8
0 10 -262144 -1 -1 20 256;
#N canvas 606 62 450 300 +int 0;
#X floatatom -131 -695 5 0 0 0 - - -, f 5;
#X obj -132 -834 moses 0;
#X obj -131 -765 float \$1;
#X floatatom -131 -739 9 0 0 0 - - -, f 9;
#X obj -64 -766 float \$1;
#X floatatom -64 -741 9 0 0 0 - - -, f 9;
#X obj -131 -718 * -1;
#X msg -121 -801 0, f 4;
#X msg -58 -801 0, f 4;
#X obj -131 -669 +;
#X msg -65 -718 bang;
#X obj -124 -865 inlet;
#X obj -131 -639 outlet;
#X connect 0 0 9 0;
#X connect 1 0 2 0;
#X connect 1 0 8 0;
#X connect 1 1 4 0;
#X connect 1 1 7 0;
#X connect 2 0 3 0;
#X connect 3 0 6 0;
#X connect 4 0 5 0;
#X connect 5 0 9 1;
#X connect 5 0 10 0;
#X connect 6 0 0 0;
#X connect 7 0 2 0;
#X connect 8 0 4 0;
#X connect 9 0 12 0;
#X connect 10 0 9 0;
#X connect 11 0 1 0;
#X restore -847 -924 pd +int;
#X obj -749 -870 nbx 5 14 0 100 0 0 empty empty control_octave 0 -8
0 10 -262144 -1 -1 20 256;
#N canvas 606 62 450 300 +int 0;
#X floatatom -131 -695 5 0 0 0 - - -, f 5;
#X obj -132 -834 moses 0;
#X obj -131 -765 float \$1;
#X floatatom -131 -739 9 0 0 0 - - -, f 9;
#X obj -64 -766 float \$1;
#X floatatom -64 -741 9 0 0 0 - - -, f 9;
#X obj -131 -718 * -1;
#X msg -121 -801 0, f 4;
#X msg -58 -801 0, f 4;
#X obj -131 -669 +;
#X msg -65 -718 bang;
#X obj -124 -865 inlet;
#X obj -131 -639 outlet;
#X connect 0 0 9 0;
#X connect 1 0 2 0;
#X connect 1 0 8 0;
#X connect 1 1 4 0;
#X connect 1 1 7 0;
#X connect 2 0 3 0;
#X connect 3 0 6 0;
#X connect 4 0 5 0;
#X connect 5 0 9 1;
#X connect 5 0 10 0;
#X connect 6 0 0 0;
#X connect 7 0 2 0;
#X connect 8 0 4 0;
#X connect 9 0 12 0;
#X connect 10 0 9 0;
#X connect 11 0 1 0;
#X restore -751 -925 pd +int;
#X obj -847 -902 + 20;
#X obj -751 -901 + 20;
#X text -749 -838 circle pt 1;
#X text -568 -836 circle pt 2;
#X text -657 -837 circle pt 3;
#X text -468 -836 circle pt 4;
#X obj -865 -462 outlet~;
#X text -849 -967 control octave;
#X text -755 -965 control octave;
#X obj -746 -665 *~;
#X obj -563 -665 *~;
#X connect 0 0 10 0;
#X connect 1 0 9 0;
#X connect 2 0 3 0;
#X connect 3 0 4 0;
#X connect 4 0 6 0;
#X connect 4 0 8 0;
#X connect 5 0 0 1;
#X connect 6 0 7 0;
#X connect 7 0 1 0;
#X connect 8 0 16 0;
#X connect 9 0 0 0;
#X connect 10 0 47 0;
#X connect 11 0 5 0;
#X connect 12 0 51 0;
#X connect 13 0 14 0;
#X connect 14 0 12 0;
#X connect 15 0 51 1;
#X connect 16 0 11 0;
#X connect 17 0 13 0;
#X connect 18 0 15 0;
#X connect 19 0 50 0;
#X connect 20 0 21 0;
#X connect 21 0 19 0;
#X connect 22 0 50 1;
#X connect 23 0 20 0;
#X connect 24 0 22 0;
#X connect 25 0 24 0;
#X connect 26 0 18 0;
#X connect 27 0 28 0;
#X connect 28 0 2 0;
#X connect 29 0 38 0;
#X connect 30 0 27 0;
#X connect 31 0 25 0;
#X connect 32 0 40 0;
#X connect 33 0 26 0;
#X connect 34 0 17 0;
#X connect 35 0 23 0;
#X connect 37 0 27 1;
#X connect 38 0 41 0;
#X connect 39 0 28 1;
#X connect 40 0 42 0;
#X connect 41 0 37 0;
#X connect 42 0 39 0;
#X connect 50 0 7 1;
#X connect 51 0 16 1;
#X restore -807 -748 pd circlesynthesizer;
#X obj -1082 -796 r init;
#X obj -807 -1006 r long1;
#X obj -503 -768 nbx 5 14 -30 30 0 0 empty empty circle3_pt_4 0 -8
0 10 -204800 -1 -1 0 256;
#X obj -503 -796 r init;
#X obj -1342 -684 cnv 15 500 350 empty empty circle_4_modulates_the_rhythm_generated_from_the_step_counter
20 12 0 10 -105716 -66577 0;
#X obj -1207 -519 nbx 5 14 -30 30 0 0 empty empty circle_pt_1 0 -8
0 10 -204800 -1 -1 0 256;
#X obj -1057 -517 nbx 5 14 -30 30 0 0 empty empty circle_pt_3 0 -8
0 10 -204800 -1 -1 0 256;
#X obj -1132 -518 nbx 5 14 -30 30 0 0 empty empty circle_pt_2 0 -8
0 10 -204800 -1 -1 0 256;
#X obj -985 -517 nbx 5 14 -30 30 0 0 empty empty circle_pt_4 0 -8 0
10 -204800 -1 -1 0 256;
#X obj -1314 -660 r on \$1;
#X obj -1281 -606 r lat1;
#X obj -1232 -605 r long1;
#X obj -988 -546 r init;
#X obj -1132 -548 r init;
#X obj -1057 -549 r init;
#X obj -1207 -551 r init;
#X obj -1298 -634 r bpm1;
#X text -970 -1342 need a steady stream of data values \, even if lat/long
is not changing;
#X obj -824 -684 cnv 15 750 120 empty empty circle_1_sets_the_range_of_notes
20 12 0 10 -261338 -66577 0;
#X obj -307 -548 cnv 15 500 200 empty empty circle_3_is_the_second_set_of_modulator_frequencies
20 12 0 10 -261313 -66577 0;
#X obj -825 -548 cnv 15 500 200 empty empty circle_2_is_the_first_set_of_modulator_frequencies
20 12 0 10 -261325 -66577 0;
#X obj -774 -590 nbx 5 14 -30 30 0 0 empty empty circle1_pt_1 0 -8
0 10 -262130 -1 -1 0 256;
#X obj -643 -418 nbx 5 14 -30 30 0 0 empty empty circle2_pt_2 0 -8
0 10 -262130 -1 -1 0 256;
#X obj -729 -418 nbx 5 14 -30 30 0 0 empty empty circle2_pt_1 0 -8
0 10 -262130 -1 -1 0 256;
#X obj -221 -420 nbx 5 14 -30 30 0 0 empty empty circle3_pt_1 0 -8
0 10 -262130 -1 -1 0 256;
#X obj -135 -419 nbx 5 14 -30 30 0 0 empty empty circle3_pt_2 0 -8
0 10 -262130 -1 -1 0 256;
#X obj -689 -590 nbx 5 14 -30 30 0 0 empty empty circle1_pt_3 0 -8
0 10 -262130 -1 -1 0 256;
#X obj -135 -452 r init;
#X obj -643 -451 r init;
#X obj -221 -453 r init;
#X obj -729 -451 r init;
#X obj -270 -590 nbx 5 14 -30 30 0 0 empty empty circle1_pt_2 0 -8
0 10 -262130 -1 -1 0 256;
#X obj -472 -416 nbx 5 14 -30 30 0 0 empty empty circle2_pt_4 0 -8
0 10 -262130 -1 -1 0 256;
#X obj -558 -417 nbx 5 14 -30 30 0 0 empty empty circle2_pt_3 0 -8
0 10 -262130 -1 -1 0 256;
#X obj -51 -418 nbx 5 14 -30 30 0 0 empty empty circle3_pt_3 0 -8 0
10 -262130 -1 -1 0 256;
#X obj -185 -590 nbx 5 14 -30 30 0 0 empty empty circle1_pt_4 0 -8
0 10 -262130 -1 -1 0 256;
#X obj -471 -449 r init;
#X obj -51 -451 r init;
#X obj -558 -450 r init;
#X obj 33 -417 nbx 5 14 -30 30 0 0 empty empty circle3_pt_4 0 -8 0
10 -262130 -1 -1 0 256;
#X obj 33 -450 r init;
#X obj -793 -652 r lat2;
#X obj -289 -652 r long2;
#X obj -825 -333 cnv 15 500 350 empty empty circle_4_modulates_the_rhythm_generated_from_the_step_counter
20 12 0 10 -211329 -66577 0;
#X obj -690 -188 nbx 5 14 -30 30 0 0 empty empty circle_pt_1 0 -8 0
10 -262130 -1 -1 0 256;
#X obj -540 -186 nbx 5 14 -30 30 0 0 empty empty circle_pt_3 0 -8 0
10 -262130 -1 -1 0 256;
#X obj -615 -187 nbx 5 14 -30 30 0 0 empty empty circle_pt_2 0 -8 0
10 -262130 -1 -1 0 256;
#X obj -468 -186 nbx 5 14 -30 30 0 0 empty empty circle_pt_4 0 -8 0
10 -262130 -1 -1 0 256;
#N canvas 389 64 992 626 rhythmsynthesizer 0;
#X floatatom -1207 -363 5 0 0 0 - - -, f 5;
#X obj -964 -411 nbx 5 14 0 100 0 0 empty empty control_octave 0 -8
0 10 -262144 -1 -1 20 256;
#X obj -1233 -438 vradio 15 1 0 4 empty empty empty 0 -8 0 10 -262144
-1 -1 1;
#X obj -1206 -386 + 39;
#X obj -1266 -517 r bpm;
#X obj -1233 -487 bng 15 250 50 0 empty empty empty 17 7 0 10 -262144
-1 -1;
#X floatatom -809 -330 5 0 0 0 - - -, f 5;
#X obj -808 -353 + 39;
#X obj -787 -413 nbx 5 14 0 100 0 0 empty empty control_octave 0 -8
0 10 -262144 -1 -1 20 256;
#X obj -787 -447 + 20;
#X obj -964 -453 + 20;
#N canvas 990 22 704 610 bpm 0;
#X obj 95 261 t b f;
#X msg 95 289 60000;
#X obj 95 335 int;
#X floatatom 95 357 5 0 0 0 - - -, f 5;
#X obj 94 231 int;
#X obj 64 211 bng 15 250 50 0 empty empty empty 17 7 0 10 -262144 -1
-1;
#X obj 162 404 *;
#X obj 162 404;
#X obj 229 170 t b f;
#X obj 229 201 sel 0 1 2 3;
#X obj 95 311 /;
#X obj 97 180 inlet;
#X obj 228 145 inlet;
#X obj 160 431 outlet;
#X msg 233 233 0.25;
#X msg 255 263 0.5;
#X msg 282 292 1;
#X msg 315 296 1.5;
#X connect 0 0 1 0;
#X connect 0 1 10 1;
#X connect 1 0 10 0;
#X connect 2 0 3 0;
#X connect 3 0 6 0;
#X connect 3 0 7 0;
#X connect 4 0 0 0;
#X connect 5 0 4 0;
#X connect 6 0 13 0;
#X connect 8 0 4 0;
#X connect 8 1 9 0;
#X connect 9 0 14 0;
#X connect 9 1 15 0;
#X connect 9 2 16 0;
#X connect 9 3 17 0;
#X connect 10 0 2 0;
#X connect 11 0 4 1;
#X connect 11 0 5 0;
#X connect 12 0 8 0;
#X connect 14 0 6 1;
#X connect 15 0 6 1;
#X connect 16 0 6 1;
#X connect 17 0 6 1;
#X restore -1267 -351 pd bpm;
#X obj -839 -406 vradio 15 1 0 4 empty empty empty 0 -8 0 10 -262144
-1 -1 2;
#X obj -872 -485 r bpm;
#X obj -839 -455 bng 15 250 50 0 empty empty empty 17 7 0 10 -262144
-1 -1;
#N canvas 743 56 704 610 bpm 0;
#X obj 95 261 t b f;
#X msg 95 289 60000;
#X obj 95 335 int;
#X floatatom 95 357 5 0 0 0 - - -, f 5;
#X obj 94 231 int;
#X obj 64 211 bng 15 250 50 0 empty empty empty 17 7 0 10 -262144 -1
-1;
#X obj 162 404 *;
#X obj 162 404;
#X obj 229 170 t b f;
#X obj 229 201 sel 0 1 2 3;
#X msg 233 233 0.25;
#X msg 255 263 0.5;
#X msg 282 292 1;
#X msg 315 296 1.5;
#X obj 95 311 /;
#X obj 97 180 inlet;
#X obj 228 145 inlet;
#X obj 160 431 outlet;
#X connect 0 0 1 0;
#X connect 0 1 14 1;
#X connect 1 0 14 0;
#X connect 2 0 3 0;
#X connect 3 0 6 0;
#X connect 3 0 7 0;
#X connect 4 0 0 0;
#X connect 5 0 4 0;
#X connect 6 0 17 0;
#X connect 8 0 4 0;
#X connect 8 1 9 0;
#X connect 9 0 10 0;
#X connect 9 1 11 0;
#X connect 9 2 12 0;
#X connect 9 3 13 0;
#X connect 10 0 6 1;
#X connect 11 0 6 1;
#X connect 12 0 6 1;
#X connect 13 0 6 1;
#X connect 14 0 2 0;
#X connect 15 0 4 1;
#X connect 15 0 5 0;
#X connect 16 0 8 0;
#X restore -872 -334 pd bpm;
#N canvas 606 62 450 300 +int 0;
#X floatatom -131 -695 5 0 0 0 - - -, f 5;
#X obj -132 -834 moses 0;
#X obj -131 -765 float \$1;
#X floatatom -131 -739 9 0 0 0 - - -, f 9;
#X obj -64 -766 float \$1;
#X floatatom -64 -741 9 0 0 0 - - -, f 9;
#X obj -131 -718 * -1;
#X msg -121 -801 0, f 4;
#X msg -58 -801 0, f 4;
#X obj -131 -669 +;
#X msg -65 -718 bang;
#X obj -124 -865 inlet;
#X obj -131 -639 outlet;
#X connect 0 0 9 0;
#X connect 1 0 2 0;
#X connect 1 0 8 0;
#X connect 1 1 4 0;
#X connect 1 1 7 0;
#X connect 2 0 3 0;
#X connect 3 0 6 0;
#X connect 4 0 5 0;
#X connect 5 0 9 1;
#X connect 5 0 10 0;
#X connect 6 0 0 0;
#X connect 7 0 2 0;
#X connect 8 0 4 0;
#X connect 9 0 12 0;
#X connect 10 0 9 0;
#X connect 11 0 1 0;
#X restore -964 -475 pd +int;
#N canvas 606 62 450 300 +int 0;
#X floatatom -131 -695 5 0 0 0 - - -, f 5;
#X obj -132 -834 moses 0;
#X obj -131 -765 float \$1;
#X floatatom -131 -739 9 0 0 0 - - -, f 9;
#X obj -64 -766 float \$1;
#X floatatom -64 -741 9 0 0 0 - - -, f 9;
#X obj -131 -718 * -1;
#X msg -121 -801 0, f 4;
#X msg -58 -801 0, f 4;
#X obj -131 -669 +;
#X msg -65 -718 bang;
#X obj -124 -865 inlet;
#X obj -131 -639 outlet;
#X connect 0 0 9 0;
#X connect 1 0 2 0;
#X connect 1 0 8 0;
#X connect 1 1 4 0;
#X connect 1 1 7 0;
#X connect 2 0 3 0;
#X connect 3 0 6 0;
#X connect 4 0 5 0;
#X connect 5 0 9 1;
#X connect 5 0 10 0;
#X connect 6 0 0 0;
#X connect 7 0 2 0;
#X connect 8 0 4 0;
#X connect 9 0 12 0;
#X connect 10 0 9 0;
#X connect 11 0 1 0;
#X restore -787 -469 pd +int;
#X floatatom -580 -330 5 0 0 0 - - -, f 5;
#X obj -558 -413 nbx 5 14 0 100 0 0 empty empty control_octave 0 -8
0 10 -262144 -1 -1 20 256;
#X obj -558 -447 + 20;
#X obj -610 -406 vradio 15 1 0 4 empty empty empty 0 -8 0 10 -262144
-1 -1 2;
#X obj -643 -485 r bpm;
#X obj -610 -455 bng 15 250 50 0 empty empty empty 17 7 0 10 -262144
-1 -1;
#N canvas 743 93 704 610 bpm 0;
#X obj 95 261 t b f;
#X msg 95 289 60000;
#X obj 95 335 int;
#X floatatom 95 357 5 0 0 0 - - -, f 5;
#X obj 94 231 int;
#X obj 64 211 bng 15 250 50 0 empty empty empty 17 7 0 10 -262144 -1
-1;
#X obj 162 404 *;
#X obj 162 404;
#X obj 229 170 t b f;
#X obj 229 201 sel 0 1 2 3;
#X msg 233 233 0.25;
#X msg 255 263 0.5;
#X msg 282 292 1;
#X obj 95 311 /;
#X obj 97 180 inlet;
#X obj 228 145 inlet;
#X obj 160 431 outlet;
#X msg 315 296 1.5;
#X connect 0 0 1 0;
#X connect 0 1 13 1;
#X connect 1 0 13 0;
#X connect 2 0 3 0;
#X connect 3 0 6 0;
#X connect 3 0 7 0;
#X connect 4 0 0 0;
#X connect 5 0 4 0;
#X connect 6 0 16 0;
#X connect 8 0 4 0;
#X connect 8 1 9 0;
#X connect 9 0 10 0;
#X connect 9 1 11 0;
#X connect 9 2 12 0;
#X connect 9 3 17 0;
#X connect 10 0 6 1;
#X connect 11 0 6 1;
#X connect 12 0 6 1;
#X connect 13 0 2 0;
#X connect 14 0 4 1;
#X connect 14 0 5 0;
#X connect 15 0 8 0;
#X connect 17 0 6 1;
#X restore -643 -334 pd bpm;
#N canvas 874 57 450 300 +int 0;
#X floatatom -131 -695 5 0 0 0 - - -, f 5;
#X obj -132 -834 moses 0;
#X obj -131 -765 float \$1;
#X floatatom -131 -739 9 0 0 0 - - -, f 9;
#X obj -64 -766 float \$1;
#X floatatom -64 -741 9 0 0 0 - - -, f 9;
#X obj -131 -718 * -1;
#X msg -121 -801 0, f 4;
#X msg -58 -801 0, f 4;
#X obj -131 -669 +;
#X msg -65 -718 bang;
#X obj -124 -865 inlet;
#X obj -131 -639 outlet;
#X connect 0 0 9 0;
#X connect 1 0 2 0;
#X connect 1 0 8 0;
#X connect 1 1 4 0;
#X connect 1 1 7 0;
#X connect 2 0 3 0;
#X connect 3 0 6 0;
#X connect 4 0 5 0;
#X connect 5 0 9 1;
#X connect 5 0 10 0;
#X connect 6 0 0 0;
#X connect 7 0 2 0;
#X connect 8 0 4 0;
#X connect 9 0 12 0;
#X connect 10 0 9 0;
#X connect 11 0 1 0;
#X restore -558 -469 pd +int;
#X floatatom -385 -328 5 0 0 0 - - -, f 5;
#X obj -363 -413 nbx 5 14 0 100 0 0 empty empty control_octave 0 -8
0 10 -262144 -1 -1 20 256;
#X obj -363 -447 + 20;
#X obj -415 -406 vradio 15 1 0 4 empty empty empty 0 -8 0 10 -262144
-1 -1 0;
#X obj -448 -485 r bpm;
#X obj -415 -455 bng 15 250 50 0 empty empty empty 17 7 0 10 -262144
-1 -1;
#N canvas 690 41 704 610 bpm 0;
#X obj 95 261 t b f;
#X msg 95 289 60000;
#X obj 95 335 int;
#X floatatom 95 357 5 0 0 0 - - -, f 5;
#X obj 94 231 int;
#X obj 64 211 bng 15 250 50 0 empty empty empty 17 7 0 10 -262144 -1
-1;
#X obj 162 404 *;
#X obj 162 404;
#X obj 229 170 t b f;
#X obj 229 201 sel 0 1 2 3;
#X msg 233 233 0.25;
#X msg 255 263 0.5;
#X msg 282 292 1;
#X msg 315 296 1.5;
#X obj 95 311 /;
#X obj 97 180 inlet;
#X obj 228 145 inlet;
#X obj 160 431 outlet;
#X connect 0 0 1 0;
#X connect 0 1 14 1;
#X connect 1 0 14 0;
#X connect 2 0 3 0;
#X connect 3 0 6 0;
#X connect 3 0 7 0;
#X connect 4 0 0 0;
#X connect 5 0 4 0;
#X connect 6 0 17 0;
#X connect 8 0 4 0;
#X connect 8 1 9 0;
#X connect 9 0 10 0;
#X connect 9 1 11 0;
#X connect 9 2 12 0;
#X connect 9 3 13 0;
#X connect 10 0 6 1;
#X connect 11 0 6 1;
#X connect 12 0 6 1;
#X connect 13 0 6 1;
#X connect 14 0 2 0;
#X connect 15 0 4 1;
#X connect 15 0 5 0;
#X connect 16 0 8 0;
#X restore -448 -334 pd bpm;
#N canvas 606 62 450 300 +int 0;
#X floatatom -131 -695 5 0 0 0 - - -, f 5;
#X obj -132 -834 moses 0;
#X obj -131 -765 float \$1;
#X floatatom -131 -739 9 0 0 0 - - -, f 9;
#X obj -64 -766 float \$1;
#X floatatom -64 -741 9 0 0 0 - - -, f 9;
#X obj -131 -718 * -1;
#X msg -121 -801 0, f 4;
#X msg -58 -801 0, f 4;
#X obj -131 -669 +;
#X msg -65 -718 bang;
#X obj -124 -865 inlet;
#X obj -131 -639 outlet;
#X connect 0 0 9 0;
#X connect 1 0 2 0;
#X connect 1 0 8 0;
#X connect 1 1 4 0;
#X connect 1 1 7 0;
#X connect 2 0 3 0;
#X connect 3 0 6 0;
#X connect 4 0 5 0;
#X connect 5 0 9 1;
#X connect 5 0 10 0;
#X connect 6 0 0 0;
#X connect 7 0 2 0;
#X connect 8 0 4 0;
#X connect 9 0 12 0;
#X connect 10 0 9 0;
#X connect 11 0 1 0;
#X restore -363 -469 pd +int;
#X obj -579 -353 + 39;
#X obj -384 -353 + 39;
#X msg -415 -431 0;
#X obj -1253 -598 s bpm;
#X obj -964 -509 inlet;
#X obj -787 -498 inlet;
#X obj -558 -498 inlet;
#X obj -363 -496 inlet;
#X obj -1285 -642 inlet;
#X obj -1239 -641 inlet;
#X obj -1286 -285 outlet~;
#X obj -662 -256 outlet~;
#X obj -891 -259 outlet~;
#X obj -466 -258 outlet~;
#X obj -1182 -612 inlet;
#X obj -1122 -614 inlet;
#X text -1177 -633 lat;
#X text -1122 -631 long;
#X obj -1182 -590 s rlat;
#X obj -1122 -592 s rlong;
#X obj -1206 -413 r rlat;
#X obj -809 -387 r rlong;
#X obj -579 -380 r rlat;
#X obj -384 -379 r rlong;
#N canvas 922 96 714 586 bing 0;
#X obj -90 297 *~;
#X msg -90 88 1;
#X obj -46 149 bng 15 250 50 0 empty empty empty 17 7 0 10 -262144
-1 -1;
#X floatatom -46 179 5 0 0 0 - - -, f 5;
#X obj -46 236 *~ 2;
#X obj -90 39 metro 100;
#X obj -45 205 * 10;
#X obj 48 34 inlet;
#X obj -90 12 inlet;
#X text 45 16 incoming value (lat/long);
#X obj -39 11 inlet;
#X text -34 -9 bpm;
#X obj -90 383 outlet~;
#X obj -46 263 osc~;
#N canvas 321 359 1195 589 asdr~ 0;
#X obj 6 36 inlet trig;
#X obj 215 331 line~;
#X obj 215 365 outlet~;
#X obj 103 83 t b;
#X obj 6 66 sel 0;
#X obj 103 190 f \$1;
#X obj 146 273 pack 0 \$2;
#X obj 215 157 f \$4;
#X obj 284 273 pack 0 \$5;
#X obj 215 273 pack 0 \$3;
#X obj 215 247 * \$1;
#X obj 215 182 * 0.01;
#X msg 6 103 stop;
#X text 4 122 If 0 \, stop;
#X text 4 136 attack and;
#X text 4 150 trigger release;
#X obj 215 120 del \$2;
#X text 311 23 Sustain %;
#X text 272 179 as % of attack;
#X obj 150 37 inlet;
#X obj 197 39 inlet;
#X obj 257 41 inlet;
#X obj 385 48 inlet;
#X text 148 17 Level;
#X text 148 7 Attack;
#X text 196 21 Speed;
#X text 196 11 Attack;
#X text 256 23 Speed;
#X text 256 13 Decay;
#X text 384 30 Speed;
#X text 384 20 Release;
#X text 62 200 level;
#X text 62 190 attack;
#X text 62 180 Store;
#X text 6 11 0 to release;
#X text 6 1 Send 1 to start attack \,;
#X text 272 165 Derive sustain level;
#X obj 312 41 inlet;
#X floatatom 150 59 5 0 0 0 - - -, f 5;
#X floatatom 197 61 5 0 0 0 - - -, f 5;
#X floatatom 257 63 5 0 0 0 - - -, f 5;
#X connect 0 0 4 0;
#X connect 1 0 2 0;
#X connect 3 0 5 0;
#X connect 3 0 16 0;
#X connect 4 0 8 0;
#X connect 4 0 12 0;
#X connect 4 1 3 0;
#X connect 5 0 6 0;
#X connect 6 0 1 0;
#X connect 7 0 11 0;
#X connect 8 0 1 0;
#X connect 9 0 1 0;
#X connect 10 0 9 0;
#X connect 11 0 10 0;
#X connect 12 0 16 0;
#X connect 16 0 7 0;
#X connect 19 0 5 1;
#X connect 19 0 10 1;
#X connect 19 0 38 0;
#X connect 20 0 6 1;
#X connect 20 0 16 1;
#X connect 20 0 39 0;
#X connect 21 0 9 1;
#X connect 21 0 40 0;
#X connect 22 0 8 1;
#X connect 37 0 7 0;
#X restore -92 121 pd asdr~ 0.75 0 100 0 0;
#X msg -41 87 0.75;
#X msg 39 84 0;
#X msg -1 87 100;
#X connect 0 0 12 0;
#X connect 1 0 14 0;
#X connect 2 0 3 0;
#X connect 3 0 6 0;
#X connect 4 0 13 0;
#X connect 5 0 1 0;
#X connect 5 0 2 0;
#X connect 5 0 15 0;
#X connect 5 0 17 0;
#X connect 5 0 16 0;
#X connect 6 0 4 0;
#X connect 7 0 3 0;
#X connect 8 0 5 0;
#X connect 10 0 5 1;
#X connect 13 0 0 1;
#X connect 14 0 0 0;
#X connect 15 0 14 1;
#X connect 16 0 14 2;
#X connect 16 0 14 4;
#X connect 16 0 14 5;
#X connect 17 0 14 3;
#X restore -891 -292 pd bing;
#X msg -1285 -620 1;
#N canvas 278 40 714 586 bing 0;
#X obj -90 297 *~;
#X msg -90 88 1;
#X obj -46 149 bng 15 250 50 0 empty empty empty 17 7 0 10 -262144
-1 -1;
#X floatatom -46 179 5 0 0 0 - - -, f 5;
#X obj -46 236 *~ 2;
#X obj -90 39 metro 100;
#X obj -45 205 * 10;
#X obj 48 34 inlet;
#X obj -90 12 inlet;
#X text 45 16 incoming value (lat/long);
#X obj -39 11 inlet;
#X text -34 -9 bpm;
#X obj -90 383 outlet~;
#X obj -46 263 osc~;
#N canvas 321 359 1195 589 asdr~ 0;
#X obj 6 36 inlet trig;
#X obj 215 331 line~;
#X obj 215 365 outlet~;
#X obj 103 83 t b;
#X obj 6 66 sel 0;
#X obj 103 190 f \$1;
#X obj 146 273 pack 0 \$2;
#X obj 215 157 f \$4;
#X obj 284 273 pack 0 \$5;
#X obj 215 273 pack 0 \$3;
#X obj 215 247 * \$1;
#X obj 215 182 * 0.01;
#X msg 6 103 stop;
#X text 4 122 If 0 \, stop;
#X text 4 136 attack and;
#X text 4 150 trigger release;
#X obj 215 120 del \$2;
#X text 311 23 Sustain %;
#X text 272 179 as % of attack;
#X obj 150 37 inlet;
#X obj 197 39 inlet;
#X obj 257 41 inlet;
#X obj 385 48 inlet;
#X text 148 17 Level;
#X text 148 7 Attack;
#X text 196 21 Speed;
#X text 196 11 Attack;
#X text 256 23 Speed;
#X text 256 13 Decay;
#X text 384 30 Speed;
#X text 384 20 Release;
#X text 62 200 level;
#X text 62 190 attack;
#X text 62 180 Store;
#X text 6 11 0 to release;
#X text 6 1 Send 1 to start attack \,;
#X text 272 165 Derive sustain level;
#X obj 312 41 inlet;
#X floatatom 150 59 5 0 0 0 - - -, f 5;
#X floatatom 197 61 5 0 0 0 - - -, f 5;
#X floatatom 257 63 5 0 0 0 - - -, f 5;
#X connect 0 0 4 0;
#X connect 1 0 2 0;
#X connect 3 0 5 0;
#X connect 3 0 16 0;
#X connect 4 0 8 0;
#X connect 4 0 12 0;
#X connect 4 1 3 0;
#X connect 5 0 6 0;
#X connect 6 0 1 0;
#X connect 7 0 11 0;
#X connect 8 0 1 0;
#X connect 9 0 1 0;
#X connect 10 0 9 0;
#X connect 11 0 10 0;
#X connect 12 0 16 0;
#X connect 16 0 7 0;
#X connect 19 0 5 1;
#X connect 19 0 10 1;
#X connect 19 0 38 0;
#X connect 20 0 6 1;
#X connect 20 0 16 1;
#X connect 20 0 39 0;
#X connect 21 0 9 1;
#X connect 21 0 40 0;
#X connect 22 0 8 1;
#X connect 37 0 7 0;
#X restore -92 121 pd asdr~ 0.75 0 100 0 0;
#X msg -41 87 0.75;
#X msg 39 84 0;
#X msg -1 87 100;
#X connect 0 0 12 0;
#X connect 1 0 14 0;
#X connect 2 0 3 0;
#X connect 3 0 6 0;
#X connect 4 0 13 0;
#X connect 5 0 1 0;
#X connect 5 0 2 0;
#X connect 5 0 15 0;
#X connect 5 0 17 0;
#X connect 5 0 16 0;
#X connect 6 0 4 0;
#X connect 7 0 3 0;
#X connect 8 0 5 0;
#X connect 10 0 5 1;
#X connect 13 0 0 1;
#X connect 14 0 0 0;
#X connect 15 0 14 1;
#X connect 16 0 14 2;
#X connect 16 0 14 4;
#X connect 16 0 14 5;
#X connect 17 0 14 3;
#X restore -1286 -313 pd bing;
#N canvas 278 40 714 586 bing 0;
#X obj -90 297 *~;
#X msg -90 88 1;
#X obj -46 149 bng 15 250 50 0 empty empty empty 17 7 0 10 -262144
-1 -1;
#X floatatom -46 179 5 0 0 0 - - -, f 5;
#X obj -46 236 *~ 2;
#X obj -90 39 metro 100;
#X obj -45 205 * 10;
#X obj 48 34 inlet;
#X obj -90 12 inlet;
#X text 45 16 incoming value (lat/long);
#X obj -39 11 inlet;
#X text -34 -9 bpm;
#X obj -90 383 outlet~;
#X obj -46 263 osc~;
#N canvas 321 359 1195 589 asdr~ 0;
#X obj 6 36 inlet trig;
#X obj 215 331 line~;
#X obj 215 365 outlet~;
#X obj 103 83 t b;
#X obj 6 66 sel 0;
#X obj 103 190 f \$1;
#X obj 146 273 pack 0 \$2;
#X obj 215 157 f \$4;
#X obj 284 273 pack 0 \$5;
#X obj 215 273 pack 0 \$3;
#X obj 215 247 * \$1;
#X obj 215 182 * 0.01;
#X msg 6 103 stop;
#X text 4 122 If 0 \, stop;
#X text 4 136 attack and;
#X text 4 150 trigger release;
#X obj 215 120 del \$2;
#X text 311 23 Sustain %;
#X text 272 179 as % of attack;
#X obj 150 37 inlet;
#X obj 197 39 inlet;
#X obj 257 41 inlet;
#X obj 385 48 inlet;
#X text 148 17 Level;
#X text 148 7 Attack;
#X text 196 21 Speed;
#X text 196 11 Attack;
#X text 256 23 Speed;
#X text 256 13 Decay;
#X text 384 30 Speed;
#X text 384 20 Release;
#X text 62 200 level;
#X text 62 190 attack;
#X text 62 180 Store;
#X text 6 11 0 to release;
#X text 6 1 Send 1 to start attack \,;
#X text 272 165 Derive sustain level;
#X obj 312 41 inlet;
#X floatatom 150 59 5 0 0 0 - - -, f 5;
#X floatatom 197 61 5 0 0 0 - - -, f 5;
#X floatatom 257 63 5 0 0 0 - - -, f 5;
#X connect 0 0 4 0;
#X connect 1 0 2 0;
#X connect 3 0 5 0;
#X connect 3 0 16 0;
#X connect 4 0 8 0;
#X connect 4 0 12 0;
#X connect 4 1 3 0;
#X connect 5 0 6 0;
#X connect 6 0 1 0;
#X connect 7 0 11 0;
#X connect 8 0 1 0;
#X connect 9 0 1 0;
#X connect 10 0 9 0;
#X connect 11 0 10 0;
#X connect 12 0 16 0;
#X connect 16 0 7 0;
#X connect 19 0 5 1;
#X connect 19 0 10 1;
#X connect 19 0 38 0;
#X connect 20 0 6 1;
#X connect 20 0 16 1;
#X connect 20 0 39 0;
#X connect 21 0 9 1;
#X connect 21 0 40 0;
#X connect 22 0 8 1;
#X connect 37 0 7 0;
#X restore -92 121 pd asdr~ 0.75 0 100 0 0;
#X msg -41 87 0.75;
#X msg 39 84 0;
#X msg -1 87 100;
#X connect 0 0 12 0;
#X connect 1 0 14 0;
#X connect 2 0 3 0;
#X connect 3 0 6 0;
#X connect 4 0 13 0;
#X connect 5 0 1 0;
#X connect 5 0 2 0;
#X connect 5 0 15 0;
#X connect 5 0 17 0;
#X connect 5 0 16 0;
#X connect 6 0 4 0;
#X connect 7 0 3 0;
#X connect 8 0 5 0;
#X connect 10 0 5 1;
#X connect 13 0 0 1;
#X connect 14 0 0 0;
#X connect 15 0 14 1;
#X connect 16 0 14 2;
#X connect 16 0 14 4;
#X connect 16 0 14 5;
#X connect 17 0 14 3;
#X restore -662 -283 pd bing;
#N canvas 278 40 714 586 bing 0;
#X obj -90 297 *~;
#X msg -90 88 1;
#X obj -46 149 bng 15 250 50 0 empty empty empty 17 7 0 10 -262144
-1 -1;
#X floatatom -46 179 5 0 0 0 - - -, f 5;
#X obj -46 236 *~ 2;
#X obj -90 39 metro 100;
#X obj -45 205 * 10;
#X obj 48 34 inlet;
#X obj -90 12 inlet;
#X text 45 16 incoming value (lat/long);
#X obj -39 11 inlet;
#X text -34 -9 bpm;
#X obj -90 383 outlet~;
#X obj -46 263 osc~;
#N canvas 321 359 1195 589 asdr~ 0;
#X obj 6 36 inlet trig;
#X obj 215 331 line~;
#X obj 215 365 outlet~;
#X obj 103 83 t b;
#X obj 6 66 sel 0;
#X obj 103 190 f \$1;
#X obj 146 273 pack 0 \$2;
#X obj 215 157 f \$4;
#X obj 284 273 pack 0 \$5;
#X obj 215 273 pack 0 \$3;
#X obj 215 247 * \$1;
#X obj 215 182 * 0.01;
#X msg 6 103 stop;
#X text 4 122 If 0 \, stop;
#X text 4 136 attack and;
#X text 4 150 trigger release;
#X obj 215 120 del \$2;
#X text 311 23 Sustain %;
#X text 272 179 as % of attack;
#X obj 150 37 inlet;
#X obj 197 39 inlet;
#X obj 257 41 inlet;
#X obj 385 48 inlet;
#X text 148 17 Level;
#X text 148 7 Attack;
#X text 196 21 Speed;
#X text 196 11 Attack;
#X text 256 23 Speed;
#X text 256 13 Decay;
#X text 384 30 Speed;
#X text 384 20 Release;
#X text 62 200 level;
#X text 62 190 attack;
#X text 62 180 Store;
#X text 6 11 0 to release;
#X text 6 1 Send 1 to start attack \,;
#X text 272 165 Derive sustain level;
#X obj 312 41 inlet;
#X floatatom 150 59 5 0 0 0 - - -, f 5;
#X floatatom 197 61 5 0 0 0 - - -, f 5;
#X floatatom 257 63 5 0 0 0 - - -, f 5;
#X connect 0 0 4 0;
#X connect 1 0 2 0;
#X connect 3 0 5 0;
#X connect 3 0 16 0;
#X connect 4 0 8 0;
#X connect 4 0 12 0;
#X connect 4 1 3 0;
#X connect 5 0 6 0;
#X connect 6 0 1 0;
#X connect 7 0 11 0;
#X connect 8 0 1 0;
#X connect 9 0 1 0;
#X connect 10 0 9 0;
#X connect 11 0 10 0;
#X connect 12 0 16 0;
#X connect 16 0 7 0;
#X connect 19 0 5 1;
#X connect 19 0 10 1;
#X connect 19 0 38 0;
#X connect 20 0 6 1;
#X connect 20 0 16 1;
#X connect 20 0 39 0;
#X connect 21 0 9 1;
#X connect 21 0 40 0;
#X connect 22 0 8 1;
#X connect 37 0 7 0;
#X restore -92 121 pd asdr~ 0.75 0 100 0 0;
#X msg -41 87 0.75;
#X msg 39 84 0;
#X msg -1 87 100;
#X connect 0 0 12 0;
#X connect 1 0 14 0;
#X connect 2 0 3 0;
#X connect 3 0 6 0;
#X connect 4 0 13 0;
#X connect 5 0 1 0;
#X connect 5 0 2 0;
#X connect 5 0 15 0;
#X connect 5 0 17 0;
#X connect 5 0 16 0;
#X connect 6 0 4 0;
#X connect 7 0 3 0;
#X connect 8 0 5 0;
#X connect 10 0 5 1;
#X connect 13 0 0 1;
#X connect 14 0 0 0;
#X connect 15 0 14 1;
#X connect 16 0 14 2;
#X connect 16 0 14 4;
#X connect 16 0 14 5;
#X connect 17 0 14 3;
#X restore -466 -284 pd bing;
#X msg -1227 -463 1;
#X msg -610 -433 2;
#X msg -839 -431 2;
#X connect 0 0 60 2;
#X connect 1 0 3 1;
#X connect 2 0 11 1;
#X connect 3 0 0 0;
#X connect 4 0 5 0;
#X connect 4 0 11 0;
#X connect 5 0 63 0;
#X connect 6 0 58 2;
#X connect 7 0 6 0;
#X connect 8 0 7 1;
#X connect 9 0 8 0;
#X connect 10 0 1 0;
#X connect 11 0 60 1;
#X connect 12 0 15 1;
#X connect 13 0 14 0;
#X connect 13 0 15 0;
#X connect 14 0 65 0;
#X connect 15 0 58 1;
#X connect 16 0 10 0;
#X connect 17 0 9 0;
#X connect 18 0 61 2;
#X connect 19 0 34 1;
#X connect 20 0 19 0;
#X connect 21 0 24 1;
#X connect 22 0 23 0;
#X connect 22 0 24 0;
#X connect 23 0 64 0;
#X connect 24 0 61 1;
#X connect 25 0 20 0;
#X connect 26 0 62 2;
#X connect 27 0 35 1;
#X connect 28 0 27 0;
#X connect 29 0 32 1;
#X connect 30 0 31 0;
#X connect 30 0 32 0;
#X connect 31 0 36 0;
#X connect 32 0 62 1;
#X connect 33 0 28 0;
#X connect 34 0 18 0;
#X connect 35 0 26 0;
#X connect 36 0 29 0;
#X connect 38 0 16 0;
#X connect 39 0 17 0;
#X connect 40 0 25 0;
#X connect 41 0 33 0;
#X connect 42 0 59 0;
#X connect 43 0 37 0;
#X connect 48 0 52 0;
#X connect 49 0 53 0;
#X connect 54 0 3 0;
#X connect 55 0 7 0;
#X connect 56 0 34 0;
#X connect 57 0 35 0;
#X connect 58 0 46 0;
#X connect 59 0 58 0;
#X connect 59 0 62 0;
#X connect 59 0 60 0;
#X connect 59 0 61 0;
#X connect 60 0 44 0;
#X connect 61 0 45 0;
#X connect 62 0 47 0;
#X connect 63 0 2 0;
#X connect 64 0 21 0;
#X connect 65 0 12 0;
#X restore -797 -127 pd rhythmsynthesizer;
#X obj -797 -309 r on \$1;
#X obj -468 -218 r init;
#X obj -615 -219 r init;
#X obj -540 -220 r init;
#X obj -690 -222 r init;
#X obj -780 -1175 cnv 15 350 100 empty empty incoming_from_user_2 20
12 0 10 -262144 -66577 0;
#X obj -768 -1100 s lat2;
#X obj -668 -1099 s long2;
#X obj -567 -1099 s bpm2;
#X obj -764 -255 r lat2;
#X obj -715 -254 r long2;
#X obj -781 -283 r bpm2;
#X obj -1314 -449 throw~ lineoutr1.1;
#X obj -1275 -421 throw~ lineoutr2.2;
#X obj -1311 -724 throw~ lineoutlat.1;
#X obj -1322 -290 catch~ lineoutlat.1;
#X obj -1306 -259 catch~ lineoutlong.1;
#X obj -1289 -230 catch~ lineoutr1.1;
#X obj -1269 -202 catch~ lineoutr2.1;
#X obj -1249 -175 catch~ lineoutr3.1;
#X obj -1228 -148 catch~ lineoutr4.1;
#X obj -793 -371 throw~ lineoutlat.2;
#X obj -797 -98 throw~ lineoutr1.2;
#X obj -758 -70 throw~ lineoutr2.2;
#X obj -719 -43 throw~ lineoutr3.2;
#X obj -680 -16 throw~ lineoutr4.2;
#X obj -289 -371 throw~ lineoutlong.2;
#X obj -807 -725 throw~ lineoutlong.1;
#X obj -270 -628 r init;
#X obj -185 -627 r init;
#X obj -939 -669 r android1c4.1;
#X obj -939 -645 r android1c4.2;
#X obj -939 -621 r android1c4.3;
#X obj -939 -597 r android1c4.4;
#X obj -944 -820 r android1c2.4;
#X obj -944 -845 r android1c2.3;
#X obj -944 -868 r android1c2.2;
#X obj -944 -892 r android1c2.1;
#X obj -423 -892 r android1c3.1;
#X obj -423 -868 r android1c3.2;
#X obj -423 -845 r android1c3.3;
#X obj -423 -820 r android1c3.4;
#X obj -1015 -1028 r android1c1.1;
#X obj -1015 -1004 r android1c1.2;
#X obj -1015 -981 r android1c1.3;
#X obj -1015 -956 r android1c1.4;
#X obj -1325 -1144 r android1stepcounter;
#X obj -1324 -1240 r android1long;
#X obj -1326 -1324 r android1lat;
#X obj -768 -1150 r android2lat;
#X obj -668 -1150 r android2long;
#X obj -567 -1150 r android2stepcounter;
#N canvas 335 31 864 494 circlesynthesizer.2 0;
#X obj -865 -523 +~;
#X obj -865 -591 osc~ 220;
#X floatatom -866 -707 5 0 0 0 - - -, f 5;
#X obj -866 -688 mtof;
#X floatatom -866 -666 5 0 0 0 - - -, f 5;
#X obj -866 -647 -;
#X obj -866 -623 +~;
#X obj -781 -617 +;
#X obj -865 -569 -~ 0.5;
#X obj -865 -492 bp~ 440 0.5;
#X obj -781 -571 osc~ 221;
#X obj -563 -694 osc~;
#X obj -563 -749 nbx 5 14 0 30 0 0 empty empty modulator_freq 0 -8
0 10 -262144 -1 -1 0 256;
#X obj -563 -723 * 30;
#X obj -461 -736 * 30;
#X obj -781 -595 +~;
#N canvas 606 62 450 300 +int 0;
#X floatatom -131 -695 5 0 0 0 - - -, f 5;
#X obj -132 -834 moses 0;
#X obj -131 -765 float \$1;
#X floatatom -131 -739 9 0 0 0 - - -, f 9;
#X obj -64 -766 float \$1;
#X floatatom -64 -741 9 0 0 0 - - -, f 9;
#X obj -131 -718 * -1;
#X msg -121 -801 0, f 4;
#X msg -58 -801 0, f 4;
#X obj -131 -669 +;
#X msg -65 -718 bang;
#X obj -124 -865 inlet;
#X obj -131 -639 outlet;
#X connect 0 0 9 0;
#X connect 1 0 2 0;
#X connect 1 0 8 0;
#X connect 1 1 4 0;
#X connect 1 1 7 0;
#X connect 2 0 3 0;
#X connect 3 0 6 0;
#X connect 4 0 5 0;
#X connect 5 0 9 1;
#X connect 5 0 10 0;
#X connect 6 0 0 0;
#X connect 7 0 2 0;
#X connect 8 0 4 0;
#X connect 9 0 12 0;
#X connect 10 0 9 0;
#X connect 11 0 1 0;
#X restore -563 -786 pd +int;
#X obj -461 -760 nbx 5 14 0 30 0 0 empty empty modulator_freq 0 -8
0 10 -262144 -1 -1 0 256;
#X obj -746 -694 osc~;
#X obj -746 -749 nbx 5 14 0 30 0 0 empty empty modulator_freq 0 -8
0 10 -262144 -1 -1 0 256;
#X obj -746 -723 * 30;
#X obj -655 -726 * 30;
#N canvas 606 62 450 300 +int 0;
#X floatatom -131 -695 5 0 0 0 - - -, f 5;
#X obj -132 -834 moses 0;
#X obj -131 -765 float \$1;
#X floatatom -131 -739 9 0 0 0 - - -, f 9;
#X obj -64 -766 float \$1;
#X floatatom -64 -741 9 0 0 0 - - -, f 9;
#X obj -131 -718 * -1;
#X msg -121 -801 0, f 4;
#X msg -58 -801 0, f 4;
#X obj -131 -669 +;
#X msg -65 -718 bang;
#X obj -124 -865 inlet;
#X obj -131 -639 outlet;
#X connect 0 0 9 0;
#X connect 1 0 2 0;
#X connect 1 0 8 0;
#X connect 1 1 4 0;
#X connect 1 1 7 0;
#X connect 2 0 3 0;
#X connect 3 0 6 0;
#X connect 4 0 5 0;
#X connect 5 0 9 1;
#X connect 5 0 10 0;
#X connect 6 0 0 0;
#X connect 7 0 2 0;
#X connect 8 0 4 0;
#X connect 9 0 12 0;
#X connect 10 0 9 0;
#X connect 11 0 1 0;
#X restore -746 -786 pd +int;
#X obj -655 -751 nbx 5 14 0 30 0 0 empty empty modulator_freq 0 -8
0 10 -262144 -1 -1 0 256;
#N canvas 606 62 450 300 +int 0;
#X floatatom -131 -695 5 0 0 0 - - -, f 5;
#X obj -132 -834 moses 0;
#X obj -131 -765 float \$1;
#X floatatom -131 -739 9 0 0 0 - - -, f 9;
#X obj -64 -766 float \$1;
#X floatatom -64 -741 9 0 0 0 - - -, f 9;
#X obj -131 -718 * -1;
#X msg -121 -801 0, f 4;
#X msg -58 -801 0, f 4;
#X obj -131 -669 +;
#X msg -65 -718 bang;
#X obj -124 -865 inlet;
#X obj -131 -639 outlet;
#X connect 0 0 9 0;
#X connect 1 0 2 0;
#X connect 1 0 8 0;
#X connect 1 1 4 0;
#X connect 1 1 7 0;
#X connect 2 0 3 0;
#X connect 3 0 6 0;
#X connect 4 0 5 0;
#X connect 5 0 9 1;
#X connect 5 0 10 0;
#X connect 6 0 0 0;
#X connect 7 0 2 0;
#X connect 8 0 4 0;
#X connect 9 0 12 0;
#X connect 10 0 9 0;
#X connect 11 0 1 0;
#X restore -655 -786 pd +int;
#N canvas 606 62 450 300 +int 0;
#X floatatom -131 -695 5 0 0 0 - - -, f 5;
#X obj -132 -834 moses 0;
#X obj -131 -765 float \$1;
#X floatatom -131 -739 9 0 0 0 - - -, f 9;
#X obj -64 -766 float \$1;
#X floatatom -64 -741 9 0 0 0 - - -, f 9;
#X obj -131 -718 * -1;
#X msg -121 -801 0, f 4;
#X msg -58 -801 0, f 4;
#X obj -131 -669 +;
#X msg -65 -718 bang;
#X obj -124 -865 inlet;
#X obj -131 -639 outlet;
#X connect 0 0 9 0;
#X connect 1 0 2 0;
#X connect 1 0 8 0;
#X connect 1 1 4 0;
#X connect 1 1 7 0;
#X connect 2 0 3 0;
#X connect 3 0 6 0;
#X connect 4 0 5 0;
#X connect 5 0 9 1;
#X connect 5 0 10 0;
#X connect 6 0 0 0;
#X connect 7 0 2 0;
#X connect 8 0 4 0;
#X connect 9 0 12 0;
#X connect 10 0 9 0;
#X connect 11 0 1 0;
#X restore -461 -795 pd +int;
#X obj -866 -758 + 30;
#X obj -867 -733 + 30;
#X obj -847 -949 inlet;
#X obj -918 -911 inlet;
#X obj -655 -816 inlet;
#X obj -752 -949 inlet;
#X obj -463 -818 inlet;
#X obj -563 -816 inlet;
#X obj -746 -817 inlet;
#X text -927 -933 lat/long;
#X obj -845 -869 nbx 5 14 0 100 0 0 empty empty control_octave 0 -8
0 10 -262144 -1 -1 12 256;
#N canvas 606 62 450 300 +int 0;
#X floatatom -131 -695 5 0 0 0 - - -, f 5;
#X obj -132 -834 moses 0;
#X obj -131 -765 float \$1;
#X floatatom -131 -739 9 0 0 0 - - -, f 9;
#X obj -64 -766 float \$1;
#X floatatom -64 -741 9 0 0 0 - - -, f 9;
#X obj -131 -718 * -1;
#X msg -121 -801 0, f 4;
#X msg -58 -801 0, f 4;
#X obj -131 -669 +;
#X msg -65 -718 bang;
#X obj -124 -865 inlet;
#X obj -131 -639 outlet;
#X connect 0 0 9 0;
#X connect 1 0 2 0;
#X connect 1 0 8 0;
#X connect 1 1 4 0;
#X connect 1 1 7 0;
#X connect 2 0 3 0;
#X connect 3 0 6 0;
#X connect 4 0 5 0;
#X connect 5 0 9 1;
#X connect 5 0 10 0;
#X connect 6 0 0 0;
#X connect 7 0 2 0;
#X connect 8 0 4 0;
#X connect 9 0 12 0;
#X connect 10 0 9 0;
#X connect 11 0 1 0;
#X restore -847 -924 pd +int;
#X obj -749 -870 nbx 5 14 0 100 0 0 empty empty control_octave 0 -8
0 10 -262144 -1 -1 12 256;
#N canvas 606 62 450 300 +int 0;
#X floatatom -131 -695 5 0 0 0 - - -, f 5;
#X obj -132 -834 moses 0;
#X obj -131 -765 float \$1;
#X floatatom -131 -739 9 0 0 0 - - -, f 9;
#X obj -64 -766 float \$1;
#X floatatom -64 -741 9 0 0 0 - - -, f 9;
#X obj -131 -718 * -1;
#X msg -121 -801 0, f 4;
#X msg -58 -801 0, f 4;
#X obj -131 -669 +;
#X msg -65 -718 bang;
#X obj -124 -865 inlet;
#X obj -131 -639 outlet;
#X connect 0 0 9 0;
#X connect 1 0 2 0;
#X connect 1 0 8 0;
#X connect 1 1 4 0;
#X connect 1 1 7 0;
#X connect 2 0 3 0;
#X connect 3 0 6 0;
#X connect 4 0 5 0;
#X connect 5 0 9 1;
#X connect 5 0 10 0;
#X connect 6 0 0 0;
#X connect 7 0 2 0;
#X connect 8 0 4 0;
#X connect 9 0 12 0;
#X connect 10 0 9 0;
#X connect 11 0 1 0;
#X restore -751 -925 pd +int;
#X text -749 -838 circle pt 1;
#X text -568 -836 circle pt 2;
#X text -657 -837 circle pt 3;
#X text -468 -836 circle pt 4;
#X obj -865 -462 outlet~;
#X text -849 -967 control octave;
#X text -755 -965 control octave;
#X obj -746 -665 *~;
#X obj -563 -665 *~;
#X obj -781 -545 -~ 0.5;
#X obj -847 -902 + 12;
#X obj -751 -901 + 12;
#X connect 0 0 9 0;
#X connect 1 0 8 0;
#X connect 2 0 3 0;
#X connect 3 0 4 0;
#X connect 4 0 5 0;
#X connect 4 0 7 0;
#X connect 5 0 6 0;
#X connect 6 0 1 0;
#X connect 7 0 15 0;
#X connect 8 0 0 0;
#X connect 9 0 44 0;
#X connect 10 0 49 0;
#X connect 11 0 48 0;
#X connect 12 0 13 0;
#X connect 13 0 11 0;
#X connect 14 0 48 1;
#X connect 15 0 10 0;
#X connect 16 0 12 0;
#X connect 17 0 14 0;
#X connect 18 0 47 0;
#X connect 19 0 20 0;
#X connect 20 0 18 0;
#X connect 21 0 47 1;
#X connect 22 0 19 0;
#X connect 23 0 21 0;
#X connect 24 0 23 0;
#X connect 25 0 17 0;
#X connect 26 0 27 0;
#X connect 27 0 2 0;
#X connect 28 0 37 0;
#X connect 29 0 26 0;
#X connect 30 0 24 0;
#X connect 31 0 39 0;
#X connect 32 0 25 0;
#X connect 33 0 16 0;
#X connect 34 0 22 0;
#X connect 36 0 26 1;
#X connect 37 0 50 0;
#X connect 38 0 27 1;
#X connect 39 0 51 0;
#X connect 47 0 6 1;
#X connect 48 0 15 1;
#X connect 49 0 0 1;
#X connect 50 0 36 0;
#X connect 51 0 38 0;
#X restore -793 -393 pd circlesynthesizer.2;
#N canvas 577 76 992 626 rhythmsynthesizer.1 0;
#X floatatom -1207 -363 5 0 0 0 - - -, f 5;
#X obj -964 -411 nbx 5 14 0 100 0 0 empty empty control_octave 0 -8
0 10 -262144 -1 -1 20 256;
#X obj -1233 -438 vradio 15 1 0 4 empty empty empty 0 -8 0 10 -262144
-1 -1 0;
#X obj -1206 -386 + 39;
#X obj -1266 -517 r bpm;
#X obj -1233 -487 bng 15 250 50 0 empty empty empty 17 7 0 10 -262144
-1 -1;
#X floatatom -809 -330 5 0 0 0 - - -, f 5;
#X obj -808 -353 + 39;
#X obj -787 -413 nbx 5 14 0 100 0 0 empty empty control_octave 0 -8
0 10 -262144 -1 -1 20 256;
#X obj -787 -447 + 20;
#X obj -964 -453 + 20;
#N canvas 990 22 704 610 bpm 0;
#X obj 95 261 t b f;
#X msg 95 289 60000;
#X obj 95 335 int;
#X floatatom 95 357 5 0 0 0 - - -, f 5;
#X obj 94 231 int;
#X obj 64 211 bng 15 250 50 0 empty empty empty 17 7 0 10 -262144 -1
-1;
#X obj 162 404 *;
#X obj 162 404;
#X obj 229 170 t b f;
#X obj 229 201 sel 0 1 2 3;
#X obj 95 311 /;
#X obj 97 180 inlet;
#X obj 228 145 inlet;
#X obj 160 431 outlet;
#X msg 233 233 0.25;
#X msg 255 263 0.5;
#X msg 282 292 1;
#X msg 315 296 1.5;
#X connect 0 0 1 0;
#X connect 0 1 10 1;
#X connect 1 0 10 0;
#X connect 2 0 3 0;
#X connect 3 0 6 0;
#X connect 3 0 7 0;
#X connect 4 0 0 0;
#X connect 5 0 4 0;
#X connect 6 0 13 0;
#X connect 8 0 4 0;
#X connect 8 1 9 0;
#X connect 9 0 14 0;
#X connect 9 1 15 0;
#X connect 9 2 16 0;
#X connect 9 3 17 0;
#X connect 10 0 2 0;
#X connect 11 0 4 1;
#X connect 11 0 5 0;
#X connect 12 0 8 0;
#X connect 14 0 6 1;
#X connect 15 0 6 1;
#X connect 16 0 6 1;
#X connect 17 0 6 1;
#X restore -1267 -351 pd bpm;
#X obj -839 -406 vradio 15 1 0 4 empty empty empty 0 -8 0 10 -262144
-1 -1 2;
#X obj -872 -485 r bpm;
#X obj -839 -455 bng 15 250 50 0 empty empty empty 17 7 0 10 -262144
-1 -1;
#N canvas 743 56 704 610 bpm 0;
#X obj 95 261 t b f;
#X msg 95 289 60000;
#X obj 95 335 int;
#X floatatom 95 357 5 0 0 0 - - -, f 5;
#X obj 94 231 int;
#X obj 64 211 bng 15 250 50 0 empty empty empty 17 7 0 10 -262144 -1
-1;
#X obj 162 404 *;
#X obj 162 404;
#X obj 229 170 t b f;
#X obj 229 201 sel 0 1 2 3;
#X msg 233 233 0.25;
#X msg 255 263 0.5;
#X msg 282 292 1;
#X msg 315 296 1.5;
#X obj 95 311 /;
#X obj 97 180 inlet;
#X obj 228 145 inlet;
#X obj 160 431 outlet;
#X connect 0 0 1 0;
#X connect 0 1 14 1;
#X connect 1 0 14 0;
#X connect 2 0 3 0;
#X connect 3 0 6 0;
#X connect 3 0 7 0;
#X connect 4 0 0 0;
#X connect 5 0 4 0;
#X connect 6 0 17 0;
#X connect 8 0 4 0;
#X connect 8 1 9 0;
#X connect 9 0 10 0;
#X connect 9 1 11 0;
#X connect 9 2 12 0;
#X connect 9 3 13 0;
#X connect 10 0 6 1;
#X connect 11 0 6 1;
#X connect 12 0 6 1;
#X connect 13 0 6 1;
#X connect 14 0 2 0;
#X connect 15 0 4 1;
#X connect 15 0 5 0;
#X connect 16 0 8 0;
#X restore -872 -334 pd bpm;
#N canvas 606 62 450 300 +int 0;
#X floatatom -131 -695 5 0 0 0 - - -, f 5;
#X obj -132 -834 moses 0;
#X obj -131 -765 float \$1;
#X floatatom -131 -739 9 0 0 0 - - -, f 9;
#X obj -64 -766 float \$1;
#X floatatom -64 -741 9 0 0 0 - - -, f 9;
#X obj -131 -718 * -1;
#X msg -121 -801 0, f 4;
#X msg -58 -801 0, f 4;
#X obj -131 -669 +;
#X msg -65 -718 bang;
#X obj -124 -865 inlet;
#X obj -131 -639 outlet;
#X connect 0 0 9 0;
#X connect 1 0 2 0;
#X connect 1 0 8 0;
#X connect 1 1 4 0;
#X connect 1 1 7 0;
#X connect 2 0 3 0;
#X connect 3 0 6 0;
#X connect 4 0 5 0;
#X connect 5 0 9 1;
#X connect 5 0 10 0;
#X connect 6 0 0 0;
#X connect 7 0 2 0;
#X connect 8 0 4 0;
#X connect 9 0 12 0;
#X connect 10 0 9 0;
#X connect 11 0 1 0;
#X restore -964 -475 pd +int;
#N canvas 606 62 450 300 +int 0;
#X floatatom -131 -695 5 0 0 0 - - -, f 5;
#X obj -132 -834 moses 0;
#X obj -131 -765 float \$1;
#X floatatom -131 -739 9 0 0 0 - - -, f 9;
#X obj -64 -766 float \$1;
#X floatatom -64 -741 9 0 0 0 - - -, f 9;
#X obj -131 -718 * -1;
#X msg -121 -801 0, f 4;
#X msg -58 -801 0, f 4;
#X obj -131 -669 +;
#X msg -65 -718 bang;
#X obj -124 -865 inlet;
#X obj -131 -639 outlet;
#X connect 0 0 9 0;
#X connect 1 0 2 0;
#X connect 1 0 8 0;
#X connect 1 1 4 0;
#X connect 1 1 7 0;
#X connect 2 0 3 0;
#X connect 3 0 6 0;
#X connect 4 0 5 0;
#X connect 5 0 9 1;
#X connect 5 0 10 0;
#X connect 6 0 0 0;
#X connect 7 0 2 0;
#X connect 8 0 4 0;
#X connect 9 0 12 0;
#X connect 10 0 9 0;
#X connect 11 0 1 0;
#X restore -787 -469 pd +int;
#X floatatom -580 -330 5 0 0 0 - - -, f 5;
#X obj -558 -413 nbx 5 14 0 100 0 0 empty empty control_octave 0 -8
0 10 -262144 -1 -1 20 256;
#X obj -558 -447 + 20;
#X obj -610 -406 vradio 15 1 0 4 empty empty empty 0 -8 0 10 -262144
-1 -1 2;
#X obj -643 -485 r bpm;
#X obj -610 -455 bng 15 250 50 0 empty empty empty 17 7 0 10 -262144
-1 -1;
#N canvas 743 93 704 610 bpm 0;
#X obj 95 261 t b f;
#X msg 95 289 60000;
#X obj 95 335 int;
#X floatatom 95 357 5 0 0 0 - - -, f 5;
#X obj 94 231 int;
#X obj 64 211 bng 15 250 50 0 empty empty empty 17 7 0 10 -262144 -1
-1;
#X obj 162 404 *;
#X obj 162 404;
#X obj 229 170 t b f;
#X obj 229 201 sel 0 1 2 3;
#X msg 233 233 0.25;
#X msg 255 263 0.5;
#X msg 282 292 1;
#X obj 95 311 /;
#X obj 97 180 inlet;
#X obj 228 145 inlet;
#X obj 160 431 outlet;
#X msg 315 296 1.5;
#X connect 0 0 1 0;
#X connect 0 1 13 1;
#X connect 1 0 13 0;
#X connect 2 0 3 0;
#X connect 3 0 6 0;
#X connect 3 0 7 0;
#X connect 4 0 0 0;
#X connect 5 0 4 0;
#X connect 6 0 16 0;
#X connect 8 0 4 0;
#X connect 8 1 9 0;
#X connect 9 0 10 0;
#X connect 9 1 11 0;
#X connect 9 2 12 0;
#X connect 9 3 17 0;
#X connect 10 0 6 1;
#X connect 11 0 6 1;
#X connect 12 0 6 1;
#X connect 13 0 2 0;
#X connect 14 0 4 1;
#X connect 14 0 5 0;
#X connect 15 0 8 0;
#X connect 17 0 6 1;
#X restore -643 -334 pd bpm;
#N canvas 874 57 450 300 +int 0;
#X floatatom -131 -695 5 0 0 0 - - -, f 5;
#X obj -132 -834 moses 0;
#X obj -131 -765 float \$1;
#X floatatom -131 -739 9 0 0 0 - - -, f 9;
#X obj -64 -766 float \$1;
#X floatatom -64 -741 9 0 0 0 - - -, f 9;
#X obj -131 -718 * -1;
#X msg -121 -801 0, f 4;
#X msg -58 -801 0, f 4;
#X obj -131 -669 +;
#X msg -65 -718 bang;
#X obj -124 -865 inlet;
#X obj -131 -639 outlet;
#X connect 0 0 9 0;
#X connect 1 0 2 0;
#X connect 1 0 8 0;
#X connect 1 1 4 0;
#X connect 1 1 7 0;
#X connect 2 0 3 0;
#X connect 3 0 6 0;
#X connect 4 0 5 0;
#X connect 5 0 9 1;
#X connect 5 0 10 0;
#X connect 6 0 0 0;
#X connect 7 0 2 0;
#X connect 8 0 4 0;
#X connect 9 0 12 0;
#X connect 10 0 9 0;
#X connect 11 0 1 0;
#X restore -558 -469 pd +int;
#X floatatom -385 -328 5 0 0 0 - - -, f 5;
#X obj -363 -413 nbx 5 14 0 100 0 0 empty empty control_octave 0 -8
0 10 -262144 -1 -1 20 256;
#X obj -363 -447 + 20;
#X obj -415 -406 vradio 15 1 0 4 empty empty empty 0 -8 0 10 -262144
-1 -1 0;
#X obj -448 -485 r bpm;
#X obj -415 -455 bng 15 250 50 0 empty empty empty 17 7 0 10 -262144
-1 -1;
#N canvas 690 41 704 610 bpm 0;
#X obj 95 261 t b f;
#X msg 95 289 60000;
#X obj 95 335 int;
#X floatatom 95 357 5 0 0 0 - - -, f 5;
#X obj 94 231 int;
#X obj 64 211 bng 15 250 50 0 empty empty empty 17 7 0 10 -262144 -1
-1;
#X obj 162 404 *;
#X obj 162 404;
#X obj 229 170 t b f;
#X obj 229 201 sel 0 1 2 3;
#X msg 233 233 0.25;
#X msg 255 263 0.5;
#X msg 282 292 1;
#X msg 315 296 1.5;
#X obj 95 311 /;
#X obj 97 180 inlet;
#X obj 228 145 inlet;
#X obj 160 431 outlet;
#X connect 0 0 1 0;
#X connect 0 1 14 1;
#X connect 1 0 14 0;
#X connect 2 0 3 0;
#X connect 3 0 6 0;
#X connect 3 0 7 0;
#X connect 4 0 0 0;
#X connect 5 0 4 0;
#X connect 6 0 17 0;
#X connect 8 0 4 0;
#X connect 8 1 9 0;
#X connect 9 0 10 0;
#X connect 9 1 11 0;
#X connect 9 2 12 0;
#X connect 9 3 13 0;
#X connect 10 0 6 1;
#X connect 11 0 6 1;
#X connect 12 0 6 1;
#X connect 13 0 6 1;
#X connect 14 0 2 0;
#X connect 15 0 4 1;
#X connect 15 0 5 0;
#X connect 16 0 8 0;
#X restore -448 -334 pd bpm;
#N canvas 606 62 450 300 +int 0;
#X floatatom -131 -695 5 0 0 0 - - -, f 5;
#X obj -132 -834 moses 0;
#X obj -131 -765 float \$1;
#X floatatom -131 -739 9 0 0 0 - - -, f 9;
#X obj -64 -766 float \$1;
#X floatatom -64 -741 9 0 0 0 - - -, f 9;
#X obj -131 -718 * -1;
#X msg -121 -801 0, f 4;
#X msg -58 -801 0, f 4;
#X obj -131 -669 +;
#X msg -65 -718 bang;
#X obj -124 -865 inlet;
#X obj -131 -639 outlet;
#X connect 0 0 9 0;
#X connect 1 0 2 0;
#X connect 1 0 8 0;
#X connect 1 1 4 0;
#X connect 1 1 7 0;
#X connect 2 0 3 0;
#X connect 3 0 6 0;
#X connect 4 0 5 0;
#X connect 5 0 9 1;
#X connect 5 0 10 0;
#X connect 6 0 0 0;
#X connect 7 0 2 0;
#X connect 8 0 4 0;
#X connect 9 0 12 0;
#X connect 10 0 9 0;
#X connect 11 0 1 0;
#X restore -363 -469 pd +int;
#X obj -579 -353 + 39;
#X obj -384 -353 + 39;
#X msg -1227 -463 0;
#X msg -839 -431 2;
#X msg -610 -433 2;
#X msg -415 -431 0;
#X obj -1253 -598 s bpm;
#X obj -964 -509 inlet;
#X obj -787 -498 inlet;
#X obj -558 -498 inlet;
#X obj -363 -496 inlet;
#X obj -1285 -642 inlet;
#X obj -1239 -641 inlet;
#X obj -1286 -285 outlet~;
#X obj -662 -256 outlet~;
#X obj -891 -259 outlet~;
#X obj -466 -258 outlet~;
#X obj -1182 -612 inlet;
#X obj -1122 -614 inlet;
#X text -1177 -633 lat;
#X text -1122 -631 long;
#X obj -1182 -590 s rlat;
#X obj -1122 -592 s rlong;
#X obj -1206 -413 r rlat;
#X obj -809 -387 r rlong;
#X obj -579 -380 r rlat;
#X obj -384 -379 r rlong;
#N canvas 922 96 714 586 bing 0;
#X obj -90 297 *~;
#X msg -90 88 1;
#X obj -46 149 bng 15 250 50 0 empty empty empty 17 7 0 10 -262144
-1 -1;
#X floatatom -46 179 5 0 0 0 - - -, f 5;
#X obj -46 236 *~ 2;
#X obj -90 39 metro 100;
#X obj -45 205 * 10;
#X obj 48 34 inlet;
#X obj -90 12 inlet;
#X text 45 16 incoming value (lat/long);
#X obj -39 11 inlet;
#X text -34 -9 bpm;
#X obj -90 383 outlet~;
#X obj -46 263 osc~;
#N canvas 321 359 1195 589 asdr~ 0;
#X obj 6 36 inlet trig;
#X obj 215 331 line~;
#X obj 215 365 outlet~;
#X obj 103 83 t b;
#X obj 6 66 sel 0;
#X obj 103 190 f \$1;
#X obj 146 273 pack 0 \$2;
#X obj 215 157 f \$4;
#X obj 284 273 pack 0 \$5;
#X obj 215 273 pack 0 \$3;
#X obj 215 247 * \$1;
#X obj 215 182 * 0.01;
#X msg 6 103 stop;
#X text 4 122 If 0 \, stop;
#X text 4 136 attack and;
#X text 4 150 trigger release;
#X obj 215 120 del \$2;
#X text 311 23 Sustain %;
#X text 272 179 as % of attack;
#X obj 150 37 inlet;
#X obj 197 39 inlet;
#X obj 257 41 inlet;
#X obj 385 48 inlet;
#X text 148 17 Level;
#X text 148 7 Attack;
#X text 196 21 Speed;
#X text 196 11 Attack;
#X text 256 23 Speed;
#X text 256 13 Decay;
#X text 384 30 Speed;
#X text 384 20 Release;
#X text 62 200 level;
#X text 62 190 attack;
#X text 62 180 Store;
#X text 6 11 0 to release;
#X text 6 1 Send 1 to start attack \,;
#X text 272 165 Derive sustain level;
#X obj 312 41 inlet;
#X floatatom 150 59 5 0 0 0 - - -, f 5;
#X floatatom 197 61 5 0 0 0 - - -, f 5;
#X floatatom 257 63 5 0 0 0 - - -, f 5;
#X connect 0 0 4 0;
#X connect 1 0 2 0;
#X connect 3 0 5 0;
#X connect 3 0 16 0;
#X connect 4 0 8 0;
#X connect 4 0 12 0;
#X connect 4 1 3 0;
#X connect 5 0 6 0;
#X connect 6 0 1 0;
#X connect 7 0 11 0;
#X connect 8 0 1 0;
#X connect 9 0 1 0;
#X connect 10 0 9 0;
#X connect 11 0 10 0;
#X connect 12 0 16 0;
#X connect 16 0 7 0;
#X connect 19 0 5 1;
#X connect 19 0 10 1;
#X connect 19 0 38 0;
#X connect 20 0 6 1;
#X connect 20 0 16 1;
#X connect 20 0 39 0;
#X connect 21 0 9 1;
#X connect 21 0 40 0;
#X connect 22 0 8 1;
#X connect 37 0 7 0;
#X restore -92 121 pd asdr~ 0.75 0 100 0 0;
#X msg -41 87 0.75;
#X msg 39 84 0;
#X msg -1 87 100;
#X connect 0 0 12 0;
#X connect 1 0 14 0;
#X connect 2 0 3 0;
#X connect 3 0 6 0;
#X connect 4 0 13 0;
#X connect 5 0 1 0;
#X connect 5 0 2 0;
#X connect 5 0 15 0;
#X connect 5 0 17 0;
#X connect 5 0 16 0;
#X connect 6 0 4 0;
#X connect 7 0 3 0;
#X connect 8 0 5 0;
#X connect 10 0 5 1;
#X connect 13 0 0 1;
#X connect 14 0 0 0;
#X connect 15 0 14 1;
#X connect 16 0 14 2;
#X connect 16 0 14 4;
#X connect 16 0 14 5;
#X connect 17 0 14 3;
#X restore -891 -292 pd bing;
#X msg -1285 -620 1;
#N canvas 278 40 714 586 bing 0;
#X obj -90 297 *~;
#X msg -90 88 1;
#X obj -46 149 bng 15 250 50 0 empty empty empty 17 7 0 10 -262144
-1 -1;
#X floatatom -46 179 5 0 0 0 - - -, f 5;
#X obj -46 236 *~ 2;
#X obj -90 39 metro 100;
#X obj -45 205 * 10;
#X obj 48 34 inlet;
#X obj -90 12 inlet;
#X text 45 16 incoming value (lat/long);
#X obj -39 11 inlet;
#X text -34 -9 bpm;
#X obj -90 383 outlet~;
#X obj -46 263 osc~;
#N canvas 321 359 1195 589 asdr~ 0;
#X obj 6 36 inlet trig;
#X obj 215 331 line~;
#X obj 215 365 outlet~;
#X obj 103 83 t b;
#X obj 6 66 sel 0;
#X obj 103 190 f \$1;
#X obj 146 273 pack 0 \$2;
#X obj 215 157 f \$4;
#X obj 284 273 pack 0 \$5;
#X obj 215 273 pack 0 \$3;
#X obj 215 247 * \$1;
#X obj 215 182 * 0.01;
#X msg 6 103 stop;
#X text 4 122 If 0 \, stop;
#X text 4 136 attack and;
#X text 4 150 trigger release;
#X obj 215 120 del \$2;
#X text 311 23 Sustain %;
#X text 272 179 as % of attack;
#X obj 150 37 inlet;
#X obj 197 39 inlet;
#X obj 257 41 inlet;
#X obj 385 48 inlet;
#X text 148 17 Level;
#X text 148 7 Attack;
#X text 196 21 Speed;
#X text 196 11 Attack;
#X text 256 23 Speed;
#X text 256 13 Decay;
#X text 384 30 Speed;
#X text 384 20 Release;
#X text 62 200 level;
#X text 62 190 attack;
#X text 62 180 Store;
#X text 6 11 0 to release;
#X text 6 1 Send 1 to start attack \,;
#X text 272 165 Derive sustain level;
#X obj 312 41 inlet;
#X floatatom 150 59 5 0 0 0 - - -, f 5;
#X floatatom 197 61 5 0 0 0 - - -, f 5;
#X floatatom 257 63 5 0 0 0 - - -, f 5;
#X connect 0 0 4 0;
#X connect 1 0 2 0;
#X connect 3 0 5 0;
#X connect 3 0 16 0;
#X connect 4 0 8 0;
#X connect 4 0 12 0;
#X connect 4 1 3 0;
#X connect 5 0 6 0;
#X connect 6 0 1 0;
#X connect 7 0 11 0;
#X connect 8 0 1 0;
#X connect 9 0 1 0;
#X connect 10 0 9 0;
#X connect 11 0 10 0;
#X connect 12 0 16 0;
#X connect 16 0 7 0;
#X connect 19 0 5 1;
#X connect 19 0 10 1;
#X connect 19 0 38 0;
#X connect 20 0 6 1;
#X connect 20 0 16 1;
#X connect 20 0 39 0;
#X connect 21 0 9 1;
#X connect 21 0 40 0;
#X connect 22 0 8 1;
#X connect 37 0 7 0;
#X restore -92 121 pd asdr~ 0.75 0 100 0 0;
#X msg -41 87 0.75;
#X msg 39 84 0;
#X msg -1 87 100;
#X connect 0 0 12 0;
#X connect 1 0 14 0;
#X connect 2 0 3 0;
#X connect 3 0 6 0;
#X connect 4 0 13 0;
#X connect 5 0 1 0;
#X connect 5 0 2 0;
#X connect 5 0 15 0;
#X connect 5 0 17 0;
#X connect 5 0 16 0;
#X connect 6 0 4 0;
#X connect 7 0 3 0;
#X connect 8 0 5 0;
#X connect 10 0 5 1;
#X connect 13 0 0 1;
#X connect 14 0 0 0;
#X connect 15 0 14 1;
#X connect 16 0 14 2;
#X connect 16 0 14 4;
#X connect 16 0 14 5;
#X connect 17 0 14 3;
#X restore -1286 -313 pd bing;
#N canvas 278 40 714 586 bing 0;
#X obj -90 297 *~;
#X msg -90 88 1;
#X obj -46 149 bng 15 250 50 0 empty empty empty 17 7 0 10 -262144
-1 -1;
#X floatatom -46 179 5 0 0 0 - - -, f 5;
#X obj -46 236 *~ 2;
#X obj -90 39 metro 100;
#X obj -45 205 * 10;
#X obj 48 34 inlet;
#X obj -90 12 inlet;
#X text 45 16 incoming value (lat/long);
#X obj -39 11 inlet;
#X text -34 -9 bpm;
#X obj -90 383 outlet~;
#X obj -46 263 osc~;
#N canvas 321 359 1195 589 asdr~ 0;
#X obj 6 36 inlet trig;
#X obj 215 331 line~;
#X obj 215 365 outlet~;
#X obj 103 83 t b;
#X obj 6 66 sel 0;
#X obj 103 190 f \$1;
#X obj 146 273 pack 0 \$2;
#X obj 215 157 f \$4;
#X obj 284 273 pack 0 \$5;
#X obj 215 273 pack 0 \$3;
#X obj 215 247 * \$1;
#X obj 215 182 * 0.01;
#X msg 6 103 stop;
#X text 4 122 If 0 \, stop;
#X text 4 136 attack and;
#X text 4 150 trigger release;
#X obj 215 120 del \$2;
#X text 311 23 Sustain %;
#X text 272 179 as % of attack;
#X obj 150 37 inlet;
#X obj 197 39 inlet;
#X obj 257 41 inlet;
#X obj 385 48 inlet;
#X text 148 17 Level;
#X text 148 7 Attack;
#X text 196 21 Speed;
#X text 196 11 Attack;
#X text 256 23 Speed;
#X text 256 13 Decay;
#X text 384 30 Speed;
#X text 384 20 Release;
#X text 62 200 level;
#X text 62 190 attack;
#X text 62 180 Store;
#X text 6 11 0 to release;
#X text 6 1 Send 1 to start attack \,;
#X text 272 165 Derive sustain level;
#X obj 312 41 inlet;
#X floatatom 150 59 5 0 0 0 - - -, f 5;
#X floatatom 197 61 5 0 0 0 - - -, f 5;
#X floatatom 257 63 5 0 0 0 - - -, f 5;
#X connect 0 0 4 0;
#X connect 1 0 2 0;
#X connect 3 0 5 0;
#X connect 3 0 16 0;
#X connect 4 0 8 0;
#X connect 4 0 12 0;
#X connect 4 1 3 0;
#X connect 5 0 6 0;
#X connect 6 0 1 0;
#X connect 7 0 11 0;
#X connect 8 0 1 0;
#X connect 9 0 1 0;
#X connect 10 0 9 0;
#X connect 11 0 10 0;
#X connect 12 0 16 0;
#X connect 16 0 7 0;
#X connect 19 0 5 1;
#X connect 19 0 10 1;
#X connect 19 0 38 0;
#X connect 20 0 6 1;
#X connect 20 0 16 1;
#X connect 20 0 39 0;
#X connect 21 0 9 1;
#X connect 21 0 40 0;
#X connect 22 0 8 1;
#X connect 37 0 7 0;
#X restore -92 121 pd asdr~ 0.75 0 100 0 0;
#X msg -41 87 0.75;
#X msg 39 84 0;
#X msg -1 87 100;
#X connect 0 0 12 0;
#X connect 1 0 14 0;
#X connect 2 0 3 0;
#X connect 3 0 6 0;
#X connect 4 0 13 0;
#X connect 5 0 1 0;
#X connect 5 0 2 0;
#X connect 5 0 15 0;
#X connect 5 0 17 0;
#X connect 5 0 16 0;
#X connect 6 0 4 0;
#X connect 7 0 3 0;
#X connect 8 0 5 0;
#X connect 10 0 5 1;
#X connect 13 0 0 1;
#X connect 14 0 0 0;
#X connect 15 0 14 1;
#X connect 16 0 14 2;
#X connect 16 0 14 4;
#X connect 16 0 14 5;
#X connect 17 0 14 3;
#X restore -662 -283 pd bing;
#N canvas 278 40 714 586 bing 0;
#X obj -90 297 *~;
#X msg -90 88 1;
#X obj -46 149 bng 15 250 50 0 empty empty empty 17 7 0 10 -262144
-1 -1;
#X floatatom -46 179 5 0 0 0 - - -, f 5;
#X obj -46 236 *~ 2;
#X obj -90 39 metro 100;
#X obj -45 205 * 10;
#X obj 48 34 inlet;
#X obj -90 12 inlet;
#X text 45 16 incoming value (lat/long);
#X obj -39 11 inlet;
#X text -34 -9 bpm;
#X obj -90 383 outlet~;
#X obj -46 263 osc~;
#N canvas 321 359 1195 589 asdr~ 0;
#X obj 6 36 inlet trig;
#X obj 215 331 line~;
#X obj 215 365 outlet~;
#X obj 103 83 t b;
#X obj 6 66 sel 0;
#X obj 103 190 f \$1;
#X obj 146 273 pack 0 \$2;
#X obj 215 157 f \$4;
#X obj 284 273 pack 0 \$5;
#X obj 215 273 pack 0 \$3;
#X obj 215 247 * \$1;
#X obj 215 182 * 0.01;
#X msg 6 103 stop;
#X text 4 122 If 0 \, stop;
#X text 4 136 attack and;
#X text 4 150 trigger release;
#X obj 215 120 del \$2;
#X text 311 23 Sustain %;
#X text 272 179 as % of attack;
#X obj 150 37 inlet;
#X obj 197 39 inlet;
#X obj 257 41 inlet;
#X obj 385 48 inlet;
#X text 148 17 Level;
#X text 148 7 Attack;
#X text 196 21 Speed;
#X text 196 11 Attack;
#X text 256 23 Speed;
#X text 256 13 Decay;
#X text 384 30 Speed;
#X text 384 20 Release;
#X text 62 200 level;
#X text 62 190 attack;
#X text 62 180 Store;
#X text 6 11 0 to release;
#X text 6 1 Send 1 to start attack \,;
#X text 272 165 Derive sustain level;
#X obj 312 41 inlet;
#X floatatom 150 59 5 0 0 0 - - -, f 5;
#X floatatom 197 61 5 0 0 0 - - -, f 5;
#X floatatom 257 63 5 0 0 0 - - -, f 5;
#X connect 0 0 4 0;
#X connect 1 0 2 0;
#X connect 3 0 5 0;
#X connect 3 0 16 0;
#X connect 4 0 8 0;
#X connect 4 0 12 0;
#X connect 4 1 3 0;
#X connect 5 0 6 0;
#X connect 6 0 1 0;
#X connect 7 0 11 0;
#X connect 8 0 1 0;
#X connect 9 0 1 0;
#X connect 10 0 9 0;
#X connect 11 0 10 0;
#X connect 12 0 16 0;
#X connect 16 0 7 0;
#X connect 19 0 5 1;
#X connect 19 0 10 1;
#X connect 19 0 38 0;
#X connect 20 0 6 1;
#X connect 20 0 16 1;
#X connect 20 0 39 0;
#X connect 21 0 9 1;
#X connect 21 0 40 0;
#X connect 22 0 8 1;
#X connect 37 0 7 0;
#X restore -92 121 pd asdr~ 0.75 0 100 0 0;
#X msg -41 87 0.75;
#X msg 39 84 0;
#X msg -1 87 100;
#X connect 0 0 12 0;
#X connect 1 0 14 0;
#X connect 2 0 3 0;
#X connect 3 0 6 0;
#X connect 4 0 13 0;
#X connect 5 0 1 0;
#X connect 5 0 2 0;
#X connect 5 0 15 0;
#X connect 5 0 17 0;
#X connect 5 0 16 0;
#X connect 6 0 4 0;
#X connect 7 0 3 0;
#X connect 8 0 5 0;
#X connect 10 0 5 1;
#X connect 13 0 0 1;
#X connect 14 0 0 0;
#X connect 15 0 14 1;
#X connect 16 0 14 2;
#X connect 16 0 14 4;
#X connect 16 0 14 5;
#X connect 17 0 14 3;
#X restore -466 -284 pd bing;
#X connect 0 0 63 2;
#X connect 1 0 3 1;
#X connect 2 0 11 1;
#X connect 3 0 0 0;
#X connect 4 0 5 0;
#X connect 4 0 11 0;
#X connect 5 0 36 0;
#X connect 6 0 61 2;
#X connect 7 0 6 0;
#X connect 8 0 7 1;
#X connect 9 0 8 0;
#X connect 10 0 1 0;
#X connect 11 0 63 1;
#X connect 12 0 15 1;
#X connect 13 0 14 0;
#X connect 13 0 15 0;
#X connect 14 0 37 0;
#X connect 15 0 61 1;
#X connect 16 0 10 0;
#X connect 17 0 9 0;
#X connect 18 0 64 2;
#X connect 19 0 34 1;
#X connect 20 0 19 0;
#X connect 21 0 24 1;
#X connect 22 0 23 0;
#X connect 22 0 24 0;
#X connect 23 0 38 0;
#X connect 24 0 64 1;
#X connect 25 0 20 0;
#X connect 26 0 65 2;
#X connect 27 0 35 1;
#X connect 28 0 27 0;
#X connect 29 0 32 1;
#X connect 30 0 31 0;
#X connect 30 0 32 0;
#X connect 31 0 39 0;
#X connect 32 0 65 1;
#X connect 33 0 28 0;
#X connect 34 0 18 0;
#X connect 35 0 26 0;
#X connect 36 0 2 0;
#X connect 37 0 12 0;
#X connect 38 0 21 0;
#X connect 39 0 29 0;
#X connect 41 0 16 0;
#X connect 42 0 17 0;
#X connect 43 0 25 0;
#X connect 44 0 33 0;
#X connect 45 0 62 0;
#X connect 46 0 40 0;
#X connect 51 0 55 0;
#X connect 52 0 56 0;
#X connect 57 0 3 0;
#X connect 58 0 7 0;
#X connect 59 0 34 0;
#X connect 60 0 35 0;
#X connect 61 0 49 0;
#X connect 62 0 61 0;
#X connect 62 0 65 0;
#X connect 62 0 63 0;
#X connect 62 0 64 0;
#X connect 63 0 47 0;
#X connect 64 0 48 0;
#X connect 65 0 50 0;
#X restore -1314 -478 pd rhythmsynthesizer.1;
#N canvas 348 105 864 494 circlesynthesizer.1 0;
#X obj -865 -523 +~;
#X obj -865 -591 osc~ 220;
#X floatatom -866 -707 5 0 0 0 - - -, f 5;
#X obj -866 -688 mtof;
#X floatatom -866 -666 5 0 0 0 - - -, f 5;
#X obj -866 -647 -;
#X obj -866 -623 +~;
#X obj -781 -617 +;
#X obj -865 -569 -~ 0.5;
#X obj -865 -492 bp~ 440 0.5;
#X obj -781 -571 osc~ 221;
#X obj -563 -694 osc~;
#X obj -563 -749 nbx 5 14 0 30 0 0 empty empty modulator_freq 0 -8
0 10 -262144 -1 -1 0 256;
#X obj -563 -723 * 30;
#X obj -461 -736 * 30;
#X obj -781 -595 +~;
#N canvas 606 62 450 300 +int 0;
#X floatatom -131 -695 5 0 0 0 - - -, f 5;
#X obj -132 -834 moses 0;
#X obj -131 -765 float \$1;
#X floatatom -131 -739 9 0 0 0 - - -, f 9;
#X obj -64 -766 float \$1;
#X floatatom -64 -741 9 0 0 0 - - -, f 9;
#X obj -131 -718 * -1;
#X msg -121 -801 0, f 4;
#X msg -58 -801 0, f 4;
#X obj -131 -669 +;
#X msg -65 -718 bang;
#X obj -124 -865 inlet;
#X obj -131 -639 outlet;
#X connect 0 0 9 0;
#X connect 1 0 2 0;
#X connect 1 0 8 0;
#X connect 1 1 4 0;
#X connect 1 1 7 0;
#X connect 2 0 3 0;
#X connect 3 0 6 0;
#X connect 4 0 5 0;
#X connect 5 0 9 1;
#X connect 5 0 10 0;
#X connect 6 0 0 0;
#X connect 7 0 2 0;
#X connect 8 0 4 0;
#X connect 9 0 12 0;
#X connect 10 0 9 0;
#X connect 11 0 1 0;
#X restore -563 -786 pd +int;
#X obj -461 -760 nbx 5 14 0 30 0 0 empty empty modulator_freq 0 -8
0 10 -262144 -1 -1 0 256;
#X obj -746 -694 osc~;
#X obj -746 -749 nbx 5 14 0 30 0 0 empty empty modulator_freq 0 -8
0 10 -262144 -1 -1 0 256;
#X obj -746 -723 * 30;
#X obj -655 -726 * 30;
#N canvas 606 62 450 300 +int 0;
#X floatatom -131 -695 5 0 0 0 - - -, f 5;
#X obj -132 -834 moses 0;
#X obj -131 -765 float \$1;
#X floatatom -131 -739 9 0 0 0 - - -, f 9;
#X obj -64 -766 float \$1;
#X floatatom -64 -741 9 0 0 0 - - -, f 9;
#X obj -131 -718 * -1;
#X msg -121 -801 0, f 4;
#X msg -58 -801 0, f 4;
#X obj -131 -669 +;
#X msg -65 -718 bang;
#X obj -124 -865 inlet;
#X obj -131 -639 outlet;
#X connect 0 0 9 0;
#X connect 1 0 2 0;
#X connect 1 0 8 0;
#X connect 1 1 4 0;
#X connect 1 1 7 0;
#X connect 2 0 3 0;
#X connect 3 0 6 0;
#X connect 4 0 5 0;
#X connect 5 0 9 1;
#X connect 5 0 10 0;
#X connect 6 0 0 0;
#X connect 7 0 2 0;
#X connect 8 0 4 0;
#X connect 9 0 12 0;
#X connect 10 0 9 0;
#X connect 11 0 1 0;
#X restore -746 -786 pd +int;
#X obj -655 -751 nbx 5 14 0 30 0 0 empty empty modulator_freq 0 -8
0 10 -262144 -1 -1 0 256;
#N canvas 606 62 450 300 +int 0;
#X floatatom -131 -695 5 0 0 0 - - -, f 5;
#X obj -132 -834 moses 0;
#X obj -131 -765 float \$1;
#X floatatom -131 -739 9 0 0 0 - - -, f 9;
#X obj -64 -766 float \$1;
#X floatatom -64 -741 9 0 0 0 - - -, f 9;
#X obj -131 -718 * -1;
#X msg -121 -801 0, f 4;
#X msg -58 -801 0, f 4;
#X obj -131 -669 +;
#X msg -65 -718 bang;
#X obj -124 -865 inlet;
#X obj -131 -639 outlet;
#X connect 0 0 9 0;
#X connect 1 0 2 0;
#X connect 1 0 8 0;
#X connect 1 1 4 0;
#X connect 1 1 7 0;
#X connect 2 0 3 0;
#X connect 3 0 6 0;
#X connect 4 0 5 0;
#X connect 5 0 9 1;
#X connect 5 0 10 0;
#X connect 6 0 0 0;
#X connect 7 0 2 0;
#X connect 8 0 4 0;
#X connect 9 0 12 0;
#X connect 10 0 9 0;
#X connect 11 0 1 0;
#X restore -655 -786 pd +int;
#N canvas 606 62 450 300 +int 0;
#X floatatom -131 -695 5 0 0 0 - - -, f 5;
#X obj -132 -834 moses 0;
#X obj -131 -765 float \$1;
#X floatatom -131 -739 9 0 0 0 - - -, f 9;
#X obj -64 -766 float \$1;
#X floatatom -64 -741 9 0 0 0 - - -, f 9;
#X obj -131 -718 * -1;
#X msg -121 -801 0, f 4;
#X msg -58 -801 0, f 4;
#X obj -131 -669 +;
#X msg -65 -718 bang;
#X obj -124 -865 inlet;
#X obj -131 -639 outlet;
#X connect 0 0 9 0;
#X connect 1 0 2 0;
#X connect 1 0 8 0;
#X connect 1 1 4 0;
#X connect 1 1 7 0;
#X connect 2 0 3 0;
#X connect 3 0 6 0;
#X connect 4 0 5 0;
#X connect 5 0 9 1;
#X connect 5 0 10 0;
#X connect 6 0 0 0;
#X connect 7 0 2 0;
#X connect 8 0 4 0;
#X connect 9 0 12 0;
#X connect 10 0 9 0;
#X connect 11 0 1 0;
#X restore -461 -795 pd +int;
#X obj -866 -758 + 30;
#X obj -867 -733 + 30;
#X obj -847 -949 inlet;
#X obj -918 -911 inlet;
#X obj -655 -816 inlet;
#X obj -752 -949 inlet;
#X obj -463 -818 inlet;
#X obj -563 -816 inlet;
#X obj -746 -817 inlet;
#X text -927 -933 lat/long;
#X obj -845 -869 nbx 5 14 0 100 0 0 empty empty control_octave 0 -8
0 10 -262144 -1 -1 20 256;
#N canvas 606 62 450 300 +int 0;
#X floatatom -131 -695 5 0 0 0 - - -, f 5;
#X obj -132 -834 moses 0;
#X obj -131 -765 float \$1;
#X floatatom -131 -739 9 0 0 0 - - -, f 9;
#X obj -64 -766 float \$1;
#X floatatom -64 -741 9 0 0 0 - - -, f 9;
#X obj -131 -718 * -1;
#X msg -121 -801 0, f 4;
#X msg -58 -801 0, f 4;
#X obj -131 -669 +;
#X msg -65 -718 bang;
#X obj -124 -865 inlet;
#X obj -131 -639 outlet;
#X connect 0 0 9 0;
#X connect 1 0 2 0;
#X connect 1 0 8 0;
#X connect 1 1 4 0;
#X connect 1 1 7 0;
#X connect 2 0 3 0;
#X connect 3 0 6 0;
#X connect 4 0 5 0;
#X connect 5 0 9 1;
#X connect 5 0 10 0;
#X connect 6 0 0 0;
#X connect 7 0 2 0;
#X connect 8 0 4 0;
#X connect 9 0 12 0;
#X connect 10 0 9 0;
#X connect 11 0 1 0;
#X restore -847 -924 pd +int;
#X obj -749 -870 nbx 5 14 0 100 0 0 empty empty control_octave 0 -8
0 10 -262144 -1 -1 20 256;
#N canvas 606 62 450 300 +int 0;
#X floatatom -131 -695 5 0 0 0 - - -, f 5;
#X obj -132 -834 moses 0;
#X obj -131 -765 float \$1;
#X floatatom -131 -739 9 0 0 0 - - -, f 9;
#X obj -64 -766 float \$1;
#X floatatom -64 -741 9 0 0 0 - - -, f 9;
#X obj -131 -718 * -1;
#X msg -121 -801 0, f 4;
#X msg -58 -801 0, f 4;
#X obj -131 -669 +;
#X msg -65 -718 bang;
#X obj -124 -865 inlet;
#X obj -131 -639 outlet;
#X connect 0 0 9 0;
#X connect 1 0 2 0;
#X connect 1 0 8 0;
#X connect 1 1 4 0;
#X connect 1 1 7 0;
#X connect 2 0 3 0;
#X connect 3 0 6 0;
#X connect 4 0 5 0;
#X connect 5 0 9 1;
#X connect 5 0 10 0;
#X connect 6 0 0 0;
#X connect 7 0 2 0;
#X connect 8 0 4 0;
#X connect 9 0 12 0;
#X connect 10 0 9 0;
#X connect 11 0 1 0;
#X restore -751 -925 pd +int;
#X obj -847 -902 + 20;
#X obj -751 -901 + 20;
#X text -749 -838 circle pt 1;
#X text -568 -836 circle pt 2;
#X text -657 -837 circle pt 3;
#X text -468 -836 circle pt 4;
#X obj -865 -462 outlet~;
#X text -849 -967 control octave;
#X text -755 -965 control octave;
#X obj -746 -665 *~;
#X obj -563 -665 *~;
#X obj -781 -545 -~ 0.5;
#X connect 0 0 9 0;
#X connect 1 0 8 0;
#X connect 2 0 3 0;
#X connect 3 0 4 0;
#X connect 4 0 5 0;
#X connect 4 0 7 0;
#X connect 5 0 6 0;
#X connect 6 0 1 0;
#X connect 7 0 15 0;
#X connect 8 0 0 0;
#X connect 9 0 46 0;
#X connect 10 0 51 0;
#X connect 11 0 50 0;
#X connect 12 0 13 0;
#X connect 13 0 11 0;
#X connect 14 0 50 1;
#X connect 15 0 10 0;
#X connect 16 0 12 0;
#X connect 17 0 14 0;
#X connect 18 0 49 0;
#X connect 19 0 20 0;
#X connect 20 0 18 0;
#X connect 21 0 49 1;
#X connect 22 0 19 0;
#X connect 23 0 21 0;
#X connect 24 0 23 0;
#X connect 25 0 17 0;
#X connect 26 0 27 0;
#X connect 27 0 2 0;
#X connect 28 0 37 0;
#X connect 29 0 26 0;
#X connect 30 0 24 0;
#X connect 31 0 39 0;
#X connect 32 0 25 0;
#X connect 33 0 16 0;
#X connect 34 0 22 0;
#X connect 36 0 26 1;
#X connect 37 0 40 0;
#X connect 38 0 27 1;
#X connect 39 0 41 0;
#X connect 40 0 36 0;
#X connect 41 0 38 0;
#X connect 49 0 6 1;
#X connect 50 0 15 1;
#X connect 51 0 0 1;
#X restore -1311 -747 pd circlesynthesizer.1;
#N canvas 214 149 864 494 circlesynthesizer.2 0;
#X obj -865 -523 +~;
#X obj -865 -591 osc~ 220;
#X floatatom -866 -707 5 0 0 0 - - -, f 5;
#X obj -866 -688 mtof;
#X floatatom -866 -666 5 0 0 0 - - -, f 5;
#X obj -781 -545 -~ 0.5;
#X obj -866 -647 -;
#X obj -866 -623 +~;
#X obj -781 -617 +;
#X obj -865 -569 -~ 0.5;
#X obj -865 -492 bp~ 440 0.5;
#X obj -781 -571 osc~ 221;
#X obj -563 -694 osc~;
#X obj -563 -749 nbx 5 14 0 30 0 0 empty empty modulator_freq 0 -8
0 10 -262144 -1 -1 0 256;
#X obj -563 -723 * 30;
#X obj -461 -736 * 30;
#X obj -781 -595 +~;
#N canvas 606 62 450 300 +int 0;
#X floatatom -131 -695 5 0 0 0 - - -, f 5;
#X obj -132 -834 moses 0;
#X obj -131 -765 float \$1;
#X floatatom -131 -739 9 0 0 0 - - -, f 9;
#X obj -64 -766 float \$1;
#X floatatom -64 -741 9 0 0 0 - - -, f 9;
#X obj -131 -718 * -1;
#X msg -121 -801 0, f 4;
#X msg -58 -801 0, f 4;
#X obj -131 -669 +;
#X msg -65 -718 bang;
#X obj -124 -865 inlet;
#X obj -131 -639 outlet;
#X connect 0 0 9 0;
#X connect 1 0 2 0;
#X connect 1 0 8 0;
#X connect 1 1 4 0;
#X connect 1 1 7 0;
#X connect 2 0 3 0;
#X connect 3 0 6 0;
#X connect 4 0 5 0;
#X connect 5 0 9 1;
#X connect 5 0 10 0;
#X connect 6 0 0 0;
#X connect 7 0 2 0;
#X connect 8 0 4 0;
#X connect 9 0 12 0;
#X connect 10 0 9 0;
#X connect 11 0 1 0;
#X restore -563 -786 pd +int;
#X obj -461 -760 nbx 5 14 0 30 0 0 empty empty modulator_freq 0 -8
0 10 -262144 -1 -1 0 256;
#X obj -746 -694 osc~;
#X obj -746 -749 nbx 5 14 0 30 0 0 empty empty modulator_freq 0 -8
0 10 -262144 -1 -1 0 256;
#X obj -746 -723 * 30;
#X obj -655 -726 * 30;
#N canvas 606 62 450 300 +int 0;
#X floatatom -131 -695 5 0 0 0 - - -, f 5;
#X obj -132 -834 moses 0;
#X obj -131 -765 float \$1;
#X floatatom -131 -739 9 0 0 0 - - -, f 9;
#X obj -64 -766 float \$1;
#X floatatom -64 -741 9 0 0 0 - - -, f 9;
#X obj -131 -718 * -1;
#X msg -121 -801 0, f 4;
#X msg -58 -801 0, f 4;
#X obj -131 -669 +;
#X msg -65 -718 bang;
#X obj -124 -865 inlet;
#X obj -131 -639 outlet;
#X connect 0 0 9 0;
#X connect 1 0 2 0;
#X connect 1 0 8 0;
#X connect 1 1 4 0;
#X connect 1 1 7 0;
#X connect 2 0 3 0;
#X connect 3 0 6 0;
#X connect 4 0 5 0;
#X connect 5 0 9 1;
#X connect 5 0 10 0;
#X connect 6 0 0 0;
#X connect 7 0 2 0;
#X connect 8 0 4 0;
#X connect 9 0 12 0;
#X connect 10 0 9 0;
#X connect 11 0 1 0;
#X restore -746 -786 pd +int;
#X obj -655 -751 nbx 5 14 0 30 0 0 empty empty modulator_freq 0 -8
0 10 -262144 -1 -1 0 256;
#N canvas 606 62 450 300 +int 0;
#X floatatom -131 -695 5 0 0 0 - - -, f 5;
#X obj -132 -834 moses 0;
#X obj -131 -765 float \$1;
#X floatatom -131 -739 9 0 0 0 - - -, f 9;
#X obj -64 -766 float \$1;
#X floatatom -64 -741 9 0 0 0 - - -, f 9;
#X obj -131 -718 * -1;
#X msg -121 -801 0, f 4;
#X msg -58 -801 0, f 4;
#X obj -131 -669 +;
#X msg -65 -718 bang;
#X obj -124 -865 inlet;
#X obj -131 -639 outlet;
#X connect 0 0 9 0;
#X connect 1 0 2 0;
#X connect 1 0 8 0;
#X connect 1 1 4 0;
#X connect 1 1 7 0;
#X connect 2 0 3 0;
#X connect 3 0 6 0;
#X connect 4 0 5 0;
#X connect 5 0 9 1;
#X connect 5 0 10 0;
#X connect 6 0 0 0;
#X connect 7 0 2 0;
#X connect 8 0 4 0;
#X connect 9 0 12 0;
#X connect 10 0 9 0;
#X connect 11 0 1 0;
#X restore -655 -786 pd +int;
#N canvas 606 62 450 300 +int 0;
#X floatatom -131 -695 5 0 0 0 - - -, f 5;
#X obj -132 -834 moses 0;
#X obj -131 -765 float \$1;
#X floatatom -131 -739 9 0 0 0 - - -, f 9;
#X obj -64 -766 float \$1;
#X floatatom -64 -741 9 0 0 0 - - -, f 9;
#X obj -131 -718 * -1;
#X msg -121 -801 0, f 4;
#X msg -58 -801 0, f 4;
#X obj -131 -669 +;
#X msg -65 -718 bang;
#X obj -124 -865 inlet;
#X obj -131 -639 outlet;
#X connect 0 0 9 0;
#X connect 1 0 2 0;
#X connect 1 0 8 0;
#X connect 1 1 4 0;
#X connect 1 1 7 0;
#X connect 2 0 3 0;
#X connect 3 0 6 0;
#X connect 4 0 5 0;
#X connect 5 0 9 1;
#X connect 5 0 10 0;
#X connect 6 0 0 0;
#X connect 7 0 2 0;
#X connect 8 0 4 0;
#X connect 9 0 12 0;
#X connect 10 0 9 0;
#X connect 11 0 1 0;
#X restore -461 -795 pd +int;
#X obj -866 -758 + 30;
#X obj -867 -733 + 30;
#X obj -847 -949 inlet;
#X obj -918 -911 inlet;
#X obj -655 -816 inlet;
#X obj -752 -949 inlet;
#X obj -463 -818 inlet;
#X obj -563 -816 inlet;
#X obj -746 -817 inlet;
#X text -927 -933 lat/long;
#X obj -845 -869 nbx 5 14 0 100 0 0 empty empty control_octave 0 -8
0 10 -262144 -1 -1 12 256;
#N canvas 606 62 450 300 +int 0;
#X floatatom -131 -695 5 0 0 0 - - -, f 5;
#X obj -132 -834 moses 0;
#X obj -131 -765 float \$1;
#X floatatom -131 -739 9 0 0 0 - - -, f 9;
#X obj -64 -766 float \$1;
#X floatatom -64 -741 9 0 0 0 - - -, f 9;
#X obj -131 -718 * -1;
#X msg -121 -801 0, f 4;
#X msg -58 -801 0, f 4;
#X obj -131 -669 +;
#X msg -65 -718 bang;
#X obj -124 -865 inlet;
#X obj -131 -639 outlet;
#X connect 0 0 9 0;
#X connect 1 0 2 0;
#X connect 1 0 8 0;
#X connect 1 1 4 0;
#X connect 1 1 7 0;
#X connect 2 0 3 0;
#X connect 3 0 6 0;
#X connect 4 0 5 0;
#X connect 5 0 9 1;
#X connect 5 0 10 0;
#X connect 6 0 0 0;
#X connect 7 0 2 0;
#X connect 8 0 4 0;
#X connect 9 0 12 0;
#X connect 10 0 9 0;
#X connect 11 0 1 0;
#X restore -847 -924 pd +int;
#X obj -749 -870 nbx 5 14 0 100 0 0 empty empty control_octave 0 -8
0 10 -262144 -1 -1 12 256;
#N canvas 606 62 450 300 +int 0;
#X floatatom -131 -695 5 0 0 0 - - -, f 5;
#X obj -132 -834 moses 0;
#X obj -131 -765 float \$1;
#X floatatom -131 -739 9 0 0 0 - - -, f 9;
#X obj -64 -766 float \$1;
#X floatatom -64 -741 9 0 0 0 - - -, f 9;
#X obj -131 -718 * -1;
#X msg -121 -801 0, f 4;
#X msg -58 -801 0, f 4;
#X obj -131 -669 +;
#X msg -65 -718 bang;
#X obj -124 -865 inlet;
#X obj -131 -639 outlet;
#X connect 0 0 9 0;
#X connect 1 0 2 0;
#X connect 1 0 8 0;
#X connect 1 1 4 0;
#X connect 1 1 7 0;
#X connect 2 0 3 0;
#X connect 3 0 6 0;
#X connect 4 0 5 0;
#X connect 5 0 9 1;
#X connect 5 0 10 0;
#X connect 6 0 0 0;
#X connect 7 0 2 0;
#X connect 8 0 4 0;
#X connect 9 0 12 0;
#X connect 10 0 9 0;
#X connect 11 0 1 0;
#X restore -751 -925 pd +int;
#X text -749 -838 circle pt 1;
#X text -568 -836 circle pt 2;
#X text -657 -837 circle pt 3;
#X text -468 -836 circle pt 4;
#X obj -865 -462 outlet~;
#X text -849 -967 control octave;
#X text -755 -965 control octave;
#X obj -746 -665 *~;
#X obj -563 -665 *~;
#X obj -847 -902 + 12;
#X obj -751 -901 + 12;
#X connect 0 0 10 0;
#X connect 1 0 9 0;
#X connect 2 0 3 0;
#X connect 3 0 4 0;
#X connect 4 0 6 0;
#X connect 4 0 8 0;
#X connect 5 0 0 1;
#X connect 6 0 7 0;
#X connect 7 0 1 0;
#X connect 8 0 16 0;
#X connect 9 0 0 0;
#X connect 10 0 45 0;
#X connect 11 0 5 0;
#X connect 12 0 49 0;
#X connect 13 0 14 0;
#X connect 14 0 12 0;
#X connect 15 0 49 1;
#X connect 16 0 11 0;
#X connect 17 0 13 0;
#X connect 18 0 15 0;
#X connect 19 0 48 0;
#X connect 20 0 21 0;
#X connect 21 0 19 0;
#X connect 22 0 48 1;
#X connect 23 0 20 0;
#X connect 24 0 22 0;
#X connect 25 0 24 0;
#X connect 26 0 18 0;
#X connect 27 0 28 0;
#X connect 28 0 2 0;
#X connect 29 0 38 0;
#X connect 30 0 27 0;
#X connect 31 0 25 0;
#X connect 32 0 40 0;
#X connect 33 0 26 0;
#X connect 34 0 17 0;
#X connect 35 0 23 0;
#X connect 37 0 27 1;
#X connect 38 0 50 0;
#X connect 39 0 28 1;
#X connect 40 0 51 0;
#X connect 48 0 7 1;
#X connect 49 0 16 1;
#X connect 50 0 37 0;
#X connect 51 0 39 0;
#X restore -289 -394 pd circlesynthesizer.2;
#X obj -1077 -227 +~;
#X obj -1077 -187 +~;
#X obj -1077 -145 +~;
#X obj -1077 -103 +~;
#X obj -1077 -61 +~;
#X obj -1077 -290 catch~ lineoutlat.2;
#X obj -1061 -259 catch~ lineoutlong.2;
#X obj -1044 -230 catch~ lineoutr1.2;
#X obj -1024 -202 catch~ lineoutr2.2;
#X obj -1004 -175 catch~ lineoutr3.2;
#X obj -983 -148 catch~ lineoutr4.2;
#X obj -1235 10 +~;
#X obj -768 -1124 nbx 5 14 0 60 0 0 empty empty empty 0 -8 0 10 -262130
-1 -1 26 256;
#X obj -668 -1125 nbx 5 14 0 60 0 0 empty empty empty 0 -8 0 10 -262130
-1 -1 51 256;
#X floatatom -567 -1128 5 0 0 0 - - -, f 5;
#X obj -774 -628 r init;
#X obj -689 -627 r init;
#X obj -424 -323 r android2c4.1;
#X obj -424 -299 r android2c4.2;
#X obj -424 -275 r android2c4.3;
#X obj -424 -251 r android2c4.4;
#X obj -424 -465 r android1c2.4;
#X obj -424 -490 r android1c2.3;
#X obj -424 -513 r android1c2.2;
#X obj -424 -537 r android1c2.1;
#X obj 95 -535 r android2c3.1;
#X obj 95 -512 r android2c3.2;
#X obj 95 -489 r android2c3.3;
#X obj 95 -466 r android2c3.4;
#X obj -516 -673 r android1c1.1;
#X obj -515 -649 r android1c1.2;
#X obj -515 -626 r android1c1.3;
#X obj -515 -601 r android1c1.4;
#X text -1081 -1160 'record' button;
#X obj -1078 -1120 s record;
#X obj -1236 -394 throw~ lineoutr3.1;
#X obj -1197 -367 throw~ lineoutr4.1;
#X obj -1078 -1144 r android1recstart;
#X text -957 -1160 'stop recording' button;
#X obj -955 -1143 r android1recstop;
#X obj -955 -1119 s stop;
#X obj -1207 -1471 r stop;
#X text -1326 -1161 assume walking pace is 90-100 bpm;
#X obj -590 -1543 t b b;
#X msg -610 -1511 start;
#X obj -590 -1481 del 1000;
#X msg -590 -1459 stop;
#X obj -590 -1417 writesf~ 1;
#X msg -520 -1491 open ~bytes 2 track1.wav;
#X obj -588 -1569 r record;
#X msg -619 -1579 1;
#X obj -590 -1395 soundfiler;
#X connect 2 0 5 1;
#X connect 3 0 6 0;
#X connect 4 0 3 0;
#X connect 5 0 7 1;
#X connect 5 0 7 0;
#X connect 6 0 10 0;
#X connect 8 0 2 0;
#X connect 9 0 2 0;
#X connect 10 0 2 0;
#X connect 11 0 13 0;
#X connect 14 0 17 0;
#X connect 17 0 11 0;
#X connect 23 0 22 0;
#X connect 25 0 26 0;
#X connect 26 0 24 0;
#X connect 27 0 19 0;
#X connect 28 0 32 0;
#X connect 29 0 30 0;
#X connect 30 0 31 0;
#X connect 32 0 34 0;
#X connect 34 0 35 0;
#X connect 35 0 36 0;
#X connect 36 0 188 0;
#X connect 38 0 42 0;
#X connect 39 0 43 0;
#X connect 45 0 44 0;
#X connect 49 0 175 1;
#X connect 50 0 175 5;
#X connect 51 0 175 3;
#X connect 52 0 175 4;
#X connect 53 0 175 6;
#X connect 54 0 175 0;
#X connect 55 0 175 2;
#X connect 56 0 53 0;
#X connect 57 0 49 0;
#X connect 58 0 55 0;
#X connect 59 0 50 0;
#X connect 60 0 52 0;
#X connect 61 0 51 0;
#X connect 62 0 71 1;
#X connect 63 0 71 5;
#X connect 64 0 71 3;
#X connect 65 0 71 4;
#X connect 66 0 71 2;
#X connect 67 0 62 0;
#X connect 68 0 66 0;
#X connect 69 0 63 0;
#X connect 70 0 65 0;
#X connect 71 0 148 0;
#X connect 72 0 64 0;
#X connect 73 0 71 0;
#X connect 74 0 71 6;
#X connect 75 0 74 0;
#X connect 77 0 174 4;
#X connect 78 0 174 5;
#X connect 79 0 174 6;
#X connect 80 0 174 7;
#X connect 81 0 174 0;
#X connect 82 0 174 2;
#X connect 83 0 174 3;
#X connect 84 0 80 0;
#X connect 85 0 79 0;
#X connect 86 0 78 0;
#X connect 87 0 77 0;
#X connect 88 0 174 1;
#X connect 93 0 173 1;
#X connect 94 0 173 5;
#X connect 95 0 173 3;
#X connect 96 0 173 4;
#X connect 97 0 173 6;
#X connect 98 0 173 2;
#X connect 99 0 97 0;
#X connect 100 0 94 0;
#X connect 101 0 96 0;
#X connect 102 0 95 0;
#X connect 103 0 176 1;
#X connect 104 0 176 5;
#X connect 105 0 176 3;
#X connect 106 0 176 4;
#X connect 107 0 176 2;
#X connect 108 0 104 0;
#X connect 109 0 106 0;
#X connect 110 0 105 0;
#X connect 111 0 176 6;
#X connect 112 0 111 0;
#X connect 113 0 173 0;
#X connect 114 0 176 0;
#X connect 116 0 120 4;
#X connect 117 0 120 5;
#X connect 118 0 120 6;
#X connect 119 0 120 7;
#X connect 120 0 143 0;
#X connect 120 1 144 0;
#X connect 120 2 145 0;
#X connect 120 3 146 0;
#X connect 121 0 120 0;
#X connect 122 0 119 0;
#X connect 123 0 118 0;
#X connect 124 0 117 0;
#X connect 125 0 116 0;
#X connect 130 0 120 2;
#X connect 131 0 120 3;
#X connect 132 0 120 1;
#X connect 136 0 28 0;
#X connect 137 0 28 1;
#X connect 138 0 32 1;
#X connect 139 0 34 1;
#X connect 140 0 35 1;
#X connect 141 0 36 1;
#X connect 149 0 103 0;
#X connect 150 0 107 0;
#X connect 151 0 77 0;
#X connect 152 0 79 0;
#X connect 153 0 78 0;
#X connect 154 0 80 0;
#X connect 155 0 63 0;
#X connect 156 0 64 0;
#X connect 157 0 50 0;
#X connect 158 0 51 0;
#X connect 159 0 52 0;
#X connect 160 0 53 0;
#X connect 161 0 65 0;
#X connect 162 0 74 0;
#X connect 163 0 49 0;
#X connect 164 0 62 0;
#X connect 165 0 55 0;
#X connect 166 0 66 0;
#X connect 167 0 45 0;
#X connect 168 0 39 0;
#X connect 169 0 38 0;
#X connect 170 0 189 0;
#X connect 171 0 190 0;
#X connect 172 0 191 0;
#X connect 173 0 142 0;
#X connect 174 0 133 0;
#X connect 174 1 134 0;
#X connect 174 2 212 0;
#X connect 174 3 213 0;
#X connect 175 0 135 0;
#X connect 176 0 147 0;
#X connect 177 0 178 0;
#X connect 178 0 179 0;
#X connect 179 0 180 0;
#X connect 180 0 181 0;
#X connect 181 0 188 1;
#X connect 182 0 177 0;
#X connect 183 0 177 1;
#X connect 184 0 178 1;
#X connect 185 0 179 1;
#X connect 186 0 180 1;
#X connect 187 0 181 1;
#X connect 188 0 5 0;
#X connect 189 0 127 0;
#X connect 190 0 128 0;
#X connect 191 0 129 0;
#X connect 192 0 93 0;
#X connect 193 0 98 0;
#X connect 194 0 116 0;
#X connect 195 0 118 0;
#X connect 196 0 117 0;
#X connect 197 0 119 0;
#X connect 198 0 104 0;
#X connect 199 0 105 0;
#X connect 200 0 94 0;
#X connect 201 0 95 0;
#X connect 202 0 96 0;
#X connect 203 0 97 0;
#X connect 204 0 106 0;
#X connect 205 0 111 0;
#X connect 206 0 93 0;
#X connect 207 0 103 0;
#X connect 208 0 98 0;
#X connect 209 0 107 0;
#X connect 214 0 211 0;
#X connect 216 0 217 0;
#X connect 218 0 20 0;
#X connect 220 0 221 0;
#X connect 220 0 222 0;
#X connect 220 1 225 0;
#X connect 221 0 224 0;
#X connect 222 0 223 0;
#X connect 223 0 224 0;
#X connect 225 0 224 0;
#X connect 226 0 220 0;
#X connect 227 0 220 0;
